{
.appVersion = "1342";
DisplayStrings = (
"nnnnnoooonnononnn\012nn/Placeholder no/Placeholder oo\012abcdefghijkolmn\012opqrostouovonwoxoyoz",
"HHHOOOHOHOHHH\012HH/Placeholder HO/Placeholder OOno\012ABCDEFGHIJKOLOMN\012OPQRSOTOUOVOWOXOYOZO\0120123456789",
"/f_f/space/f_f_i/space/f_f_l/space/fi/space/fl/space/longs_t/space/s_t/space/t_i/space/t_u \012ff/space ffi/space ffl/space fi/space fl/space/longs t/space st/space ti/space tu",
"AÁ/Abreve/Abreveacute/Abrevedotbelow/Abrevegrave/Abrevehookabove/tildecomb/brevecomb_tildecomb/Abrevetilde/Acaron Â/Acircumflexacute/Acircumflexdotbelow/Acircumflexgrave/Acircumflexhookabove/Acircumflextilde Ä/Adotbelow À/Ahookabove",
"á/cacute éí/lacute/nacute ó/horncomb/ohorn/ohornacute/racute/sacute ú/udieresisacute/uhornacute/wacute ý/zacute Á/Abreve/Abreveacute/Abrevedotbelow/Abrevegrave/Abrevehookabove/Abrevetilde/Acaron Â/Acircumflexacute/Acircumflexdotbelow/Acircumflexgrave/Acircumflexhookabove/Acircumflextilde Ä/Adotbelow À/Ahookabove/Amacron/Aogonek ÅÃ",
"/dotbelowcomb :;/ellipsis ·/period.tf/Abrevedotbelow",
"l/caroncomb.alt ,/caroncomb.alt l/lcaron LHHL/Lcaron HHHt/caroncomb.alt/tcaron d/dcaron/zcaron/space/dcaron ongr/space/dcaron t/space/dcaron k",
"0/Placeholder 0/space 1/Placeholder 1/space 2/Placeholder 2/space 3/Placeholder 3/space 4/Placeholder 4/space 5/Placeholder 5/space 6/Placeholder 6/space 7/Placeholder 7/space 8/Placeholder 8/space 9/Placeholder 9\012/foursuperior ­/space 7/divisionslash 746/space 1//241/divisionslash 2/space 727\012HHH1HH2HH3HH4HH5HH6HH7HH8HH9HH0HHO",
"/dieresiscomb/dotaccentcomb/gravecomb/acutecomb/hungarumlautcomb/caroncomb.alt/circumflexcomb/caroncomb/brevecomb/ringcomb/tildecomb/macroncomb/hookabovecomb/commaturnedabovecomb/horncomb/dotbelowcomb/commaaccentcomb/cedillacomb/ogonekcomb",

glyphs = (
{
glyphname = .notdef;
lastChange = "2021-05-26 04:14:52 +0000";
layers = (
{
background = {
paths = (
{
closed = 1;
nodes = (
"378 0 LINE",
"387 8 LINE",
"387 621 LINE",
"378 630 LINE",
"58 630 LINE",
"50 620 LINE",
"50 9 LINE",
"58 0 LINE"
);
},
{
closed = 1;
nodes = (
"86 9 LINE",
"387 621 LINE",
"351 621 LINE",
"50 9 LINE"
);
},
{
closed = 1;
nodes = (
"387 9 LINE",
"86 621 LINE",
"50 621 LINE",
"351 9 LINE"
);
},
{
closed = 1;
nodes = (
"124 541 LINE",
"313 541 LINE",
"313 88 LINE",
"124 88 LINE"
);
}
);
};
layerId = "8A3706BD-364F-4FE3-9C2E-7E87DF0DB4CC";
paths = (
{
closed = 1;
nodes = (
"378 0 LINE",
"387 8 LINE",
"387 621 LINE",
"378 630 LINE",
"58 630 LINE",
"50 620 LINE",
"50 9 LINE",
"58 0 LINE"
);
},
{
closed = 1;
nodes = (
"86 9 LINE",
"387 621 LINE",
"351 621 LINE",
"50 9 LINE"
);
},
{
closed = 1;
nodes = (
"387 9 LINE",
"86 621 LINE",
"50 621 LINE",
"351 9 LINE"
);
},
{
closed = 1;
nodes = (
"124 541 LINE",
"313 541 LINE",
"313 88 LINE",
"124 88 LINE"
);
}
);
width = 437;
},
{
background = {
paths = (
{
closed = 1;
nodes = (
"378 0 LINE",
"387 8 LINE",
"387 621 LINE",
"378 630 LINE",
"58 630 LINE",
"50 620 LINE",
"50 9 LINE",
"58 0 LINE"
);
},
{
closed = 1;
nodes = (
"67 9 LINE",
"387 621 LINE",
"371 621 LINE",
"50 9 LINE"
);
},
{
closed = 1;
nodes = (
"387 9 LINE",
"66 621 LINE",
"50 621 LINE",
"370 9 LINE"
);
},
{
closed = 1;
nodes = (
"69 611 LINE",
"368 611 LINE",
"368 18 LINE",
"69 18 LINE"
);
}
);
};
hints = (
{
horizontal = 1;
place = "{9.16, 593.688}";
type = Stem;
},
{
place = "{42.514, 315.698}";
type = Stem;
},
{
horizontal = 1;
place = "{9.16, 593.689}";
type = Stem;
},
{
place = "{369.986, 315.698}";
type = Stem;
}
);
layerId = "5AAFD18E-AEF5-43C3-A12E-1BAE6B19067F";
paths = (
{
closed = 1;
nodes = (
"378 0 LINE",
"387 8 LINE",
"387 621 LINE",
"378 630 LINE",
"58 630 LINE",
"50 620 LINE",
"50 9 LINE",
"58 0 LINE"
);
},
{
closed = 1;
nodes = (
"67 9 LINE",
"387 621 LINE",
"371 621 LINE",
"50 9 LINE"
);
},
{
closed = 1;
nodes = (
"387 9 LINE",
"66 621 LINE",
"50 621 LINE",
"370 9 LINE"
);
},
{
closed = 1;
nodes = (
"69 611 LINE",
"368 611 LINE",
"368 18 LINE",
"69 18 LINE"
);
}
);
width = 437;
}
);
},
{
color = 4;
glyphname = A;
lastChange = "2021-05-28 01:15:23 +0000";
layers = (
{
anchors = (
{
name = bottom;
position = "{205, 0}";
},
{
name = ogonek;
position = "{406, 0}";
},
{
name = top;
position = "{205, 591}";
}
);
background = {
paths = (
{
closed = 1;
nodes = (
"176 0 LINE",
"182 86 LINE",
"219 86 LINE",
"227 0 LINE",
"406 0 LINE",
"323 591 LINE",
"88 591 LINE",
"3 0 LINE"
);
},
{
closed = 1;
nodes = (
"201 466 LINE",
"219 163 LINE",
"183 163 LINE"
);
}
);
};
layerId = "8A3706BD-364F-4FE3-9C2E-7E87DF0DB4CC";
paths = (
{
closed = 1;
nodes = (
"176 0 LINE",
"182 86 LINE",
"219 86 LINE",
"227 0 LINE",
"406 0 LINE",
"323 591 LINE",
"88 591 LINE",
"3 0 LINE"
);
},
{
closed = 1;
nodes = (
"201 466 LINE",
"219 163 LINE",
"183 163 LINE"
);
}
);
width = 409;
},
{
anchors = (
{
name = bottom;
position = "{178, 0}";
},
{
name = ogonek;
position = "{334, 0}";
},
{
name = top;
position = "{178, 591}";
}
);
background = {
paths = (
{
closed = 1;
nodes = (
"42 0 LINE",
"82 158 LINE",
"271 158 LINE",
"312 0 LINE",
"336 0 LINE",
"188 591 LINE",
"169 591 LINE",
"20 0 LINE"
);
},
{
closed = 1;
nodes = (
"178 534 LINE",
"269 175 LINE",
"85 175 LINE"
);
}
);
};
layerId = "5AAFD18E-AEF5-43C3-A12E-1BAE6B19067F";
paths = (
{
closed = 1;
nodes = (
"42 0 LINE",
"82 158 LINE",
"271 158 LINE",
"312 0 LINE",
"336 0 LINE",
"188 591 LINE",
"169 591 LINE",
"20 0 LINE"
);
},
{
closed = 1;
nodes = (
"178 534 LINE",
"269 175 LINE",
"85 175 LINE"
);
}
);
width = 356;
}
);
leftKerningGroup = A;
rightKerningGroup = A;
unicode = 0041;
},
{
color = 3;
glyphname = Aring;
lastChange = "2021-05-27 21:18:14 +0000";
layers = (
{
background = {
paths = (
{
closed = 1;
nodes = (
"-324 0 LINE",
"-318 86 LINE",
"-281 86 LINE",
"-273 0 LINE",
"-94 0 LINE",
"-177 591 LINE",
"-412 591 LINE",
"-497 0 LINE"
);
},
{
closed = 1;
nodes = (
"-299 466 LINE",
"-281 163 LINE",
"-317 163 LINE"
);
},
{
closed = 1;
nodes = (
"-232 580 OFFCURVE",
"-186 623 OFFCURVE",
"-186 676 CURVE SMOOTH",
"-186 730 OFFCURVE",
"-232 774 OFFCURVE",
"-288 774 CURVE SMOOTH",
"-348 774 OFFCURVE",
"-390 731 OFFCURVE",
"-390 676 CURVE SMOOTH",
"-390 623 OFFCURVE",
"-348 580 OFFCURVE",
"-288 580 CURVE SMOOTH"
);
},
{
closed = 1;
nodes = (
"-315 632 OFFCURVE",
"-335 652 OFFCURVE",
"-335 676 CURVE SMOOTH",
"-335 703 OFFCURVE",
"-315 723 OFFCURVE",
"-288 723 CURVE SMOOTH",
"-261 723 OFFCURVE",
"-241 703 OFFCURVE",
"-241 676 CURVE SMOOTH",
"-241 652 OFFCURVE",
"-261 632 OFFCURVE",
"-288 632 CURVE SMOOTH"
);
},
{
closed = 1;
nodes = (
"176 0 LINE",
"182 86 LINE",
"219 86 LINE",
"227 0 LINE",
"406 0 LINE",
"323 591 LINE",
"88 591 LINE",
"3 0 LINE"
);
},
{
closed = 1;
nodes = (
"201 466 LINE",
"219 163 LINE",
"183 163 LINE"
);
},
{
closed = 1;
nodes = (
"268 580 OFFCURVE",
"314 623 OFFCURVE",
"314 676 CURVE SMOOTH",
"314 730 OFFCURVE",
"268 774 OFFCURVE",
"212 774 CURVE SMOOTH",
"152 774 OFFCURVE",
"110 731 OFFCURVE",
"110 676 CURVE SMOOTH",
"110 623 OFFCURVE",
"152 580 OFFCURVE",
"212 580 CURVE SMOOTH"
);
},
{
closed = 1;
nodes = (
"185 632 OFFCURVE",
"165 652 OFFCURVE",
"165 676 CURVE SMOOTH",
"165 703 OFFCURVE",
"185 723 OFFCURVE",
"212 723 CURVE SMOOTH",
"239 723 OFFCURVE",
"259 703 OFFCURVE",
"259 676 CURVE SMOOTH",
"259 652 OFFCURVE",
"239 632 OFFCURVE",
"212 632 CURVE SMOOTH"
);
}
);
};
components = (
{
name = A;
},
{
alignment = -1;
name = ringcomb.case;
transform = "{1, 0, 0, 1, 100, -28}";
}
);
layerId = "8A3706BD-364F-4FE3-9C2E-7E87DF0DB4CC";
width = 409;
},
{
background = {
anchors = (
{
name = bottom;
position = "{178, 0}";
},
{
name = ogonek;
position = "{320, 10}";
},
{
name = top;
position = "{178, 591}";
}
);
hints = (
{
horizontal = 1;
place = "{564.941, 14.559}";
type = Stem;
},
{
horizontal = 1;
place = "{698.882, 13.588}";
type = Stem;
},
{
place = "{95.529, 17.471}";
type = Stem;
},
{
place = "{235.294, 17.471}";
type = Stem;
}
);
paths = (
{
closed = 1;
nodes = (
"42 0 LINE",
"82 158 LINE",
"271 158 LINE",
"312 0 LINE",
"336 0 LINE",
"188 591 LINE",
"169 591 LINE",
"20 0 LINE"
);
},
{
closed = 1;
nodes = (
"178 534 LINE",
"269 175 LINE",
"85 175 LINE"
);
},
{
closed = 1;
nodes = (
"223 580 OFFCURVE",
"261 614 OFFCURVE",
"261 656 CURVE SMOOTH",
"261 699 OFFCURVE",
"223 733 OFFCURVE",
"179 733 CURVE SMOOTH",
"132 733 OFFCURVE",
"98 699 OFFCURVE",
"98 656 CURVE SMOOTH",
"98 614 OFFCURVE",
"132 580 OFFCURVE",
"179 580 CURVE SMOOTH"
);
},
{
closed = 1;
nodes = (
"140 596 OFFCURVE",
"117 621 OFFCURVE",
"117 656 CURVE SMOOTH",
"117 694 OFFCURVE",
"140 718 OFFCURVE",
"179 718 CURVE SMOOTH",
"218 718 OFFCURVE",
"242 694 OFFCURVE",
"242 656 CURVE SMOOTH",
"242 621 OFFCURVE",
"218 596 OFFCURVE",
"179 596 CURVE SMOOTH"
);
}
);
};
components = (
{
name = A;
},
{
alignment = -1;
name = ringcomb.case;
transform = "{1, 0, 0, 1, 86, -35}";
}
);
layerId = "5AAFD18E-AEF5-43C3-A12E-1BAE6B19067F";
width = 356;
}
);
unicode = 00C5;
},
{
color = 4;
glyphname = AE;
lastChange = "2021-05-28 00:48:16 +0000";
layers = (
{
background = {
paths = (
{
closed = 1;
nodes = (
"168 0 LINE",
"184 86 LINE",
"221 86 LINE",
"219 0 LINE",
"550 0 LINE",
"550 108 LINE",
"395 108 LINE",
"393 240 LINE",
"525 240 LINE",
"525 365 LINE",
"391 365 LINE",
"389 480 LINE",
"538 480 LINE",
"538 591 LINE",
"152 591 LINE",
"-5 0 LINE"
);
},
{
closed = 1;
nodes = (
"245 441 LINE",
"250 466 LINE",
"248 441 LINE",
"231 163 LINE",
"195 163 LINE"
);
}
);
};
layerId = "8A3706BD-364F-4FE3-9C2E-7E87DF0DB4CC";
paths = (
{
closed = 1;
nodes = (
"168 0 LINE",
"184 86 LINE",
"221 86 LINE",
"219 0 LINE",
"550 0 LINE",
"550 108 LINE",
"395 108 LINE",
"393 240 LINE",
"525 240 LINE",
"525 365 LINE",
"391 365 LINE",
"389 480 LINE",
"538 480 LINE",
"538 591 LINE",
"152 591 LINE",
"-5 0 LINE"
);
},
{
closed = 1;
nodes = (
"245 441 LINE",
"250 466 LINE",
"248 441 LINE",
"231 163 LINE",
"195 163 LINE"
);
}
);
width = 567;
},
{
background = {
paths = (
{
closed = 1;
nodes = (
"37 0 LINE",
"96 158 LINE",
"238 158 LINE",
"241 0 LINE",
"486 0 LINE",
"486 19 LINE",
"264 19 LINE",
"261 302 LINE",
"450 302 LINE",
"450 321 LINE",
"261 321 LINE",
"258 572 LINE",
"476 572 LINE",
"476 591 LINE",
"235 591 LINE",
"15 0 LINE"
);
},
{
closed = 1;
nodes = (
"236 526 LINE",
"238 534 LINE",
"238 524 LINE",
"239 175 LINE",
"101 175 LINE"
);
}
);
};
layerId = "5AAFD18E-AEF5-43C3-A12E-1BAE6B19067F";
paths = (
{
closed = 1;
nodes = (
"37 0 LINE",
"96 158 LINE",
"238 158 LINE",
"241 0 LINE",
"486 0 LINE",
"486 19 LINE",
"264 19 LINE",
"261 302 LINE",
"450 302 LINE",
"450 321 LINE",
"261 321 LINE",
"258 572 LINE",
"476 572 LINE",
"476 591 LINE",
"235 591 LINE",
"15 0 LINE"
);
},
{
closed = 1;
nodes = (
"236 526 LINE",
"238 534 LINE",
"238 524 LINE",
"239 175 LINE",
"101 175 LINE"
);
}
);
width = 513;
}
);
rightMetricsKey = E;
unicode = 00C6;
},
{
color = 4;
glyphname = B;
lastChange = "2021-05-26 04:14:52 +0000";
layers = (
{
background = {
paths = (
{
closed = 1;
nodes = (
"243 0 LINE SMOOTH",
"332 0 OFFCURVE",
"386 30 OFFCURVE",
"386 125 CURVE SMOOTH",
"386 202 LINE SMOOTH",
"386 248 OFFCURVE",
"370 279 OFFCURVE",
"346 297 CURVE SMOOTH",
"325 312 OFFCURVE",
"307 316 OFFCURVE",
"289 316 CURVE",
"289 318 LINE",
"312 320 OFFCURVE",
"332 330 OFFCURVE",
"346 343 CURVE SMOOTH",
"367 363 OFFCURVE",
"376 392 OFFCURVE",
"376 426 CURVE SMOOTH",
"376 490 LINE SMOOTH",
"376 549 OFFCURVE",
"339 591 OFFCURVE",
"257 591 CURVE SMOOTH",
"25 591 LINE",
"25 0 LINE"
);
},
{
closed = 1;
nodes = (
"185 249 LINE",
"204 249 LINE SMOOTH",
"219 249 OFFCURVE",
"225 241 OFFCURVE",
"225 197 CURVE SMOOTH",
"225 134 LINE SMOOTH",
"225 92 OFFCURVE",
"218 81 OFFCURVE",
"205 81 CURVE SMOOTH",
"185 81 LINE"
);
},
{
closed = 1;
nodes = (
"185 507 LINE",
"203 507 LINE SMOOTH",
"218 507 OFFCURVE",
"224 496 OFFCURVE",
"224 461 CURVE SMOOTH",
"224 408 LINE SMOOTH",
"224 359 OFFCURVE",
"213 348 OFFCURVE",
"201 348 CURVE SMOOTH",
"185 348 LINE"
);
}
);
};
layerId = "8A3706BD-364F-4FE3-9C2E-7E87DF0DB4CC";
paths = (
{
closed = 1;
nodes = (
"243 0 LINE SMOOTH",
"332 0 OFFCURVE",
"386 30 OFFCURVE",
"386 125 CURVE SMOOTH",
"386 202 LINE SMOOTH",
"386 248 OFFCURVE",
"370 279 OFFCURVE",
"346 297 CURVE SMOOTH",
"325 312 OFFCURVE",
"307 316 OFFCURVE",
"289 316 CURVE",
"289 318 LINE",
"312 320 OFFCURVE",
"332 330 OFFCURVE",
"346 343 CURVE SMOOTH",
"367 363 OFFCURVE",
"376 392 OFFCURVE",
"376 426 CURVE SMOOTH",
"376 490 LINE SMOOTH",
"376 549 OFFCURVE",
"339 591 OFFCURVE",
"257 591 CURVE SMOOTH",
"25 591 LINE",
"25 0 LINE"
);
},
{
closed = 1;
nodes = (
"185 249 LINE",
"204 249 LINE SMOOTH",
"219 249 OFFCURVE",
"225 241 OFFCURVE",
"225 197 CURVE SMOOTH",
"225 134 LINE SMOOTH",
"225 92 OFFCURVE",
"218 81 OFFCURVE",
"205 81 CURVE SMOOTH",
"185 81 LINE"
);
},
{
closed = 1;
nodes = (
"185 507 LINE",
"203 507 LINE SMOOTH",
"218 507 OFFCURVE",
"224 496 OFFCURVE",
"224 461 CURVE SMOOTH",
"224 408 LINE SMOOTH",
"224 359 OFFCURVE",
"213 348 OFFCURVE",
"201 348 CURVE SMOOTH",
"185 348 LINE"
);
}
);
width = 401;
},
{
background = {
paths = (
{
closed = 1;
nodes = (
"232 0 LINE SMOOTH",
"304 0 OFFCURVE",
"354 16 OFFCURVE",
"354 120 CURVE SMOOTH",
"354 209 LINE SMOOTH",
"354 245 OFFCURVE",
"343 272 OFFCURVE",
"325 292 CURVE SMOOTH",
"309 309 OFFCURVE",
"279 314 OFFCURVE",
"249 314 CURVE",
"249 311 LINE",
"265 311 OFFCURVE",
"298 314 OFFCURVE",
"319 334 CURVE SMOOTH",
"336 351 OFFCURVE",
"349 380 OFFCURVE",
"349 419 CURVE SMOOTH",
"349 494 LINE SMOOTH",
"349 566 OFFCURVE",
"300 591 OFFCURVE",
"241 591 CURVE SMOOTH",
"78 591 LINE",
"78 0 LINE"
);
},
{
closed = 1;
nodes = (
"102 301 LINE",
"219 301 LINE SMOOTH",
"281 301 OFFCURVE",
"330 283 OFFCURVE",
"330 211 CURVE SMOOTH",
"330 123 LINE SMOOTH",
"330 33 OFFCURVE",
"291 18 OFFCURVE",
"231 18 CURVE SMOOTH",
"102 18 LINE"
);
},
{
closed = 1;
nodes = (
"102 573 LINE",
"240 573 LINE SMOOTH",
"285 573 OFFCURVE",
"325 546 OFFCURVE",
"325 490 CURVE SMOOTH",
"325 416 LINE SMOOTH",
"325 357 OFFCURVE",
"289 320 OFFCURVE",
"218 320 CURVE SMOOTH",
"102 320 LINE"
);
}
);
};
layerId = "5AAFD18E-AEF5-43C3-A12E-1BAE6B19067F";
paths = (
{
closed = 1;
nodes = (
"232 0 LINE SMOOTH",
"304 0 OFFCURVE",
"354 16 OFFCURVE",
"354 120 CURVE SMOOTH",
"354 209 LINE SMOOTH",
"354 245 OFFCURVE",
"343 272 OFFCURVE",
"325 292 CURVE SMOOTH",
"309 309 OFFCURVE",
"279 314 OFFCURVE",
"249 314 CURVE",
"249 311 LINE",
"265 311 OFFCURVE",
"298 314 OFFCURVE",
"319 334 CURVE SMOOTH",
"336 351 OFFCURVE",
"349 380 OFFCURVE",
"349 419 CURVE SMOOTH",
"349 494 LINE SMOOTH",
"349 566 OFFCURVE",
"300 591 OFFCURVE",
"241 591 CURVE SMOOTH",
"78 591 LINE",
"78 0 LINE"
);
},
{
closed = 1;
nodes = (
"102 301 LINE",
"219 301 LINE SMOOTH",
"281 301 OFFCURVE",
"330 283 OFFCURVE",
"330 211 CURVE SMOOTH",
"330 123 LINE SMOOTH",
"330 33 OFFCURVE",
"291 18 OFFCURVE",
"231 18 CURVE SMOOTH",
"102 18 LINE"
);
},
{
closed = 1;
nodes = (
"102 573 LINE",
"240 573 LINE SMOOTH",
"285 573 OFFCURVE",
"325 546 OFFCURVE",
"325 490 CURVE SMOOTH",
"325 416 LINE SMOOTH",
"325 357 OFFCURVE",
"289 320 OFFCURVE",
"218 320 CURVE SMOOTH",
"102 320 LINE"
);
}
);
width = 416;
}
);
leftKerningGroup = H;
leftMetricsKey = H;
rightKerningGroup = B;
rightMetricsKey = "=O-5";
unicode = 0042;
},
{
color = 4;
glyphname = C;
lastChange = "2021-05-28 00:47:31 +0000";
layers = (
{
anchors = (
{
name = bottom;
position = "{198, 0}";
},
{
name = top;
position = "{198, 591}";
}
);
background = {
paths = (
{
closed = 1;
nodes = (
"311 -12 OFFCURVE",
"377 14 OFFCURVE",
"377 174 CURVE SMOOTH",
"377 248 LINE",
"218 248 LINE",
"218 110 LINE SMOOTH",
"218 87 OFFCURVE",
"211 80 OFFCURVE",
"202 80 CURVE SMOOTH",
"192 80 OFFCURVE",
"186 87 OFFCURVE",
"186 110 CURVE SMOOTH",
"186 473 LINE SMOOTH",
"186 496 OFFCURVE",
"192 503 OFFCURVE",
"202 503 CURVE SMOOTH",
"211 503 OFFCURVE",
"218 496 OFFCURVE",
"218 473 CURVE SMOOTH",
"218 327 LINE",
"377 327 LINE",
"377 465 LINE SMOOTH",
"377 564 OFFCURVE",
"311 600 OFFCURVE",
"202 600 CURVE SMOOTH",
"93 600 OFFCURVE",
"20 564 OFFCURVE",
"20 465 CURVE SMOOTH",
"20 173 LINE SMOOTH",
"20 14 OFFCURVE",
"93 -12 OFFCURVE",
"202 -12 CURVE SMOOTH"
);
}
);
};
layerId = "8A3706BD-364F-4FE3-9C2E-7E87DF0DB4CC";
paths = (
{
closed = 1;
nodes = (
"311 -12 OFFCURVE",
"377 14 OFFCURVE",
"377 174 CURVE SMOOTH",
"377 248 LINE",
"218 248 LINE",
"218 110 LINE SMOOTH",
"218 87 OFFCURVE",
"211 80 OFFCURVE",
"202 80 CURVE SMOOTH",
"192 80 OFFCURVE",
"186 87 OFFCURVE",
"186 110 CURVE SMOOTH",
"186 473 LINE SMOOTH",
"186 496 OFFCURVE",
"192 503 OFFCURVE",
"202 503 CURVE SMOOTH",
"211 503 OFFCURVE",
"218 496 OFFCURVE",
"218 473 CURVE SMOOTH",
"218 327 LINE",
"377 327 LINE",
"377 465 LINE SMOOTH",
"377 564 OFFCURVE",
"311 600 OFFCURVE",
"202 600 CURVE SMOOTH",
"93 600 OFFCURVE",
"20 564 OFFCURVE",
"20 465 CURVE SMOOTH",
"20 173 LINE SMOOTH",
"20 14 OFFCURVE",
"93 -12 OFFCURVE",
"202 -12 CURVE SMOOTH"
);
}
);
width = 395;
},
{
anchors = (
{
name = bottom;
position = "{201, 0}";
},
{
name = top;
position = "{201, 591}";
}
);
background = {
paths = (
{
closed = 1;
nodes = (
"284 -12 OFFCURVE",
"342 2 OFFCURVE",
"342 120 CURVE SMOOTH",
"342 191 LINE",
"318 191 LINE",
"318 121 LINE SMOOTH",
"318 19 OFFCURVE",
"272 6 OFFCURVE",
"204 6 CURVE SMOOTH",
"137 6 OFFCURVE",
"90 19 OFFCURVE",
"90 121 CURVE SMOOTH",
"90 467 LINE SMOOTH",
"90 569 OFFCURVE",
"137 582 OFFCURVE",
"204 582 CURVE SMOOTH",
"270 582 OFFCURVE",
"318 569 OFFCURVE",
"318 467 CURVE SMOOTH",
"318 379 LINE",
"342 379 LINE",
"342 469 LINE SMOOTH",
"342 582 OFFCURVE",
"284 599 OFFCURVE",
"205 599 CURVE SMOOTH",
"126 599 OFFCURVE",
"67 584 OFFCURVE",
"67 469 CURVE SMOOTH",
"67 120 LINE SMOOTH",
"67 4 OFFCURVE",
"125 -12 OFFCURVE",
"203 -12 CURVE SMOOTH"
);
}
);
};
layerId = "5AAFD18E-AEF5-43C3-A12E-1BAE6B19067F";
paths = (
{
closed = 1;
nodes = (
"284 -12 OFFCURVE",
"342 2 OFFCURVE",
"342 120 CURVE SMOOTH",
"342 191 LINE",
"318 191 LINE",
"318 121 LINE SMOOTH",
"318 19 OFFCURVE",
"272 6 OFFCURVE",
"204 6 CURVE SMOOTH",
"137 6 OFFCURVE",
"90 19 OFFCURVE",
"90 121 CURVE SMOOTH",
"90 467 LINE SMOOTH",
"90 569 OFFCURVE",
"137 582 OFFCURVE",
"204 582 CURVE SMOOTH",
"270 582 OFFCURVE",
"318 569 OFFCURVE",
"318 467 CURVE SMOOTH",
"318 379 LINE",
"342 379 LINE",
"342 469 LINE SMOOTH",
"342 582 OFFCURVE",
"284 599 OFFCURVE",
"205 599 CURVE SMOOTH",
"126 599 OFFCURVE",
"67 584 OFFCURVE",
"67 469 CURVE SMOOTH",
"67 120 LINE SMOOTH",
"67 4 OFFCURVE",
"125 -12 OFFCURVE",
"203 -12 CURVE SMOOTH"
);
}
);
width = 401;
}
);
leftKerningGroup = O;
leftMetricsKey = O;
rightKerningGroup = C;
unicode = 0043;
},
{
color = 4;
glyphname = D;
lastChange = "2021-05-28 00:49:03 +0000";
layers = (
{
anchors = (
{
name = bottom;
position = "{201, 0}";
},
{
name = center;
position = "{201, 296}";
},
{
name = top;
position = "{201, 591}";
}
);
background = {
paths = (
{
closed = 1;
nodes = (
"233 0 LINE SMOOTH",
"326 0 OFFCURVE",
"382 30 OFFCURVE",
"382 125 CURVE SMOOTH",
"382 490 LINE SMOOTH",
"382 549 OFFCURVE",
"345 591 OFFCURVE",
"257 591 CURVE SMOOTH",
"25 591 LINE",
"25 0 LINE"
);
},
{
closed = 1;
nodes = (
"191 503 LINE",
"206 503 LINE SMOOTH",
"216 503 OFFCURVE",
"223 496 OFFCURVE",
"223 473 CURVE SMOOTH",
"223 110 LINE SMOOTH",
"223 87 OFFCURVE",
"216 80 OFFCURVE",
"206 80 CURVE SMOOTH",
"191 80 LINE"
);
}
);
};
layerId = "8A3706BD-364F-4FE3-9C2E-7E87DF0DB4CC";
paths = (
{
closed = 1;
nodes = (
"233 0 LINE SMOOTH",
"326 0 OFFCURVE",
"382 30 OFFCURVE",
"382 125 CURVE SMOOTH",
"382 490 LINE SMOOTH",
"382 549 OFFCURVE",
"345 591 OFFCURVE",
"257 591 CURVE SMOOTH",
"25 591 LINE",
"25 0 LINE"
);
},
{
closed = 1;
nodes = (
"191 503 LINE",
"206 503 LINE SMOOTH",
"216 503 OFFCURVE",
"223 496 OFFCURVE",
"223 473 CURVE SMOOTH",
"223 110 LINE SMOOTH",
"223 87 OFFCURVE",
"216 80 OFFCURVE",
"206 80 CURVE SMOOTH",
"191 80 LINE"
);
}
);
width = 402;
},
{
anchors = (
{
name = bottom;
position = "{211, 0}";
},
{
name = center;
position = "{211, 296}";
},
{
name = top;
position = "{211, 591}";
}
);
background = {
paths = (
{
closed = 1;
nodes = (
"232 0 LINE SMOOTH",
"304 0 OFFCURVE",
"354 25 OFFCURVE",
"354 130 CURVE SMOOTH",
"354 462 LINE SMOOTH",
"354 566 OFFCURVE",
"304 591 OFFCURVE",
"233 591 CURVE SMOOTH",
"78 591 LINE",
"78 0 LINE"
);
},
{
closed = 1;
nodes = (
"102 573 LINE",
"231 573 LINE SMOOTH",
"291 573 OFFCURVE",
"330 547 OFFCURVE",
"330 458 CURVE SMOOTH",
"330 132 LINE SMOOTH",
"330 43 OFFCURVE",
"291 18 OFFCURVE",
"231 18 CURVE SMOOTH",
"102 18 LINE"
);
}
);
};
layerId = "5AAFD18E-AEF5-43C3-A12E-1BAE6B19067F";
paths = (
{
closed = 1;
nodes = (
"232 0 LINE SMOOTH",
"304 0 OFFCURVE",
"354 25 OFFCURVE",
"354 130 CURVE SMOOTH",
"354 462 LINE SMOOTH",
"354 566 OFFCURVE",
"304 591 OFFCURVE",
"233 591 CURVE SMOOTH",
"78 591 LINE",
"78 0 LINE"
);
},
{
closed = 1;
nodes = (
"102 573 LINE",
"231 573 LINE SMOOTH",
"291 573 OFFCURVE",
"330 547 OFFCURVE",
"330 458 CURVE SMOOTH",
"330 132 LINE SMOOTH",
"330 43 OFFCURVE",
"291 18 OFFCURVE",
"231 18 CURVE SMOOTH",
"102 18 LINE"
);
}
);
width = 421;
}
);
leftKerningGroup = H;
leftMetricsKey = H;
rightKerningGroup = O;
rightMetricsKey = O;
unicode = 0044;
},
{
color = 4;
glyphname = Eth;
lastChange = "2021-05-28 00:49:03 +0000";
layers = (
{
background = {
paths = (
{
closed = 1;
nodes = (
"277 0 LINE SMOOTH",
"370 0 OFFCURVE",
"426 30 OFFCURVE",
"426 125 CURVE SMOOTH",
"426 490 LINE SMOOTH",
"426 549 OFFCURVE",
"389 591 OFFCURVE",
"301 591 CURVE SMOOTH",
"47 591 LINE",
"47 0 LINE"
);
},
{
closed = 1;
nodes = (
"236 246 LINE",
"236 335 LINE",
"7 335 LINE",
"7 246 LINE"
);
},
{
closed = 1;
nodes = (
"213 503 LINE",
"238 503 LINE SMOOTH",
"260 503 OFFCURVE",
"267 496 OFFCURVE",
"267 473 CURVE SMOOTH",
"267 110 LINE SMOOTH",
"267 87 OFFCURVE",
"260 80 OFFCURVE",
"238 80 CURVE SMOOTH",
"213 80 LINE"
);
}
);
};
layerId = "8A3706BD-364F-4FE3-9C2E-7E87DF0DB4CC";
paths = (
{
closed = 1;
nodes = (
"277 0 LINE SMOOTH",
"370 0 OFFCURVE",
"426 30 OFFCURVE",
"426 125 CURVE SMOOTH",
"426 490 LINE SMOOTH",
"426 549 OFFCURVE",
"389 591 OFFCURVE",
"301 591 CURVE SMOOTH",
"47 591 LINE",
"47 0 LINE"
);
},
{
closed = 1;
nodes = (
"236 246 LINE",
"236 335 LINE",
"7 335 LINE",
"7 246 LINE"
);
},
{
closed = 1;
nodes = (
"213 503 LINE",
"238 503 LINE SMOOTH",
"260 503 OFFCURVE",
"267 496 OFFCURVE",
"267 473 CURVE SMOOTH",
"267 110 LINE SMOOTH",
"267 87 OFFCURVE",
"260 80 OFFCURVE",
"238 80 CURVE SMOOTH",
"213 80 LINE"
);
}
);
width = 446;
},
{
background = {
paths = (
{
closed = 1;
nodes = (
"241 0 LINE SMOOTH",
"313 0 OFFCURVE",
"363 25 OFFCURVE",
"363 130 CURVE SMOOTH",
"363 462 LINE SMOOTH",
"363 566 OFFCURVE",
"313 591 OFFCURVE",
"242 591 CURVE SMOOTH",
"87 591 LINE",
"87 0 LINE"
);
},
{
closed = 1;
nodes = (
"185 278 LINE",
"185 299 LINE",
"24 299 LINE",
"24 278 LINE"
);
},
{
closed = 1;
nodes = (
"110 573 LINE",
"240 573 LINE SMOOTH",
"300 573 OFFCURVE",
"339 547 OFFCURVE",
"339 458 CURVE SMOOTH",
"339 132 LINE SMOOTH",
"339 43 OFFCURVE",
"300 18 OFFCURVE",
"240 18 CURVE SMOOTH",
"110 18 LINE"
);
}
);
};
hints = (
{
horizontal = 1;
place = "{0, 15.529}";
type = Stem;
},
{
horizontal = 1;
place = "{211.588, 14.559}";
type = Stem;
},
{
horizontal = 1;
place = "{558.088, 15.529}";
type = Stem;
},
{
place = "{108.706, 18.441}";
type = Stem;
},
{
place = "{354.265, 19.412}";
type = Stem;
},
{
horizontal = 1;
place = "{165, 18.441}";
type = Stem;
},
{
place = "{4.853, 193.147}";
type = Stem;
}
);
layerId = "5AAFD18E-AEF5-43C3-A12E-1BAE6B19067F";
paths = (
{
closed = 1;
nodes = (
"241 0 LINE SMOOTH",
"313 0 OFFCURVE",
"363 25 OFFCURVE",
"363 130 CURVE SMOOTH",
"363 462 LINE SMOOTH",
"363 566 OFFCURVE",
"313 591 OFFCURVE",
"242 591 CURVE SMOOTH",
"87 591 LINE",
"87 0 LINE"
);
},
{
closed = 1;
nodes = (
"185 278 LINE",
"185 299 LINE",
"24 299 LINE",
"24 278 LINE"
);
},
{
closed = 1;
nodes = (
"110 573 LINE",
"240 573 LINE SMOOTH",
"300 573 OFFCURVE",
"339 547 OFFCURVE",
"339 458 CURVE SMOOTH",
"339 132 LINE SMOOTH",
"339 43 OFFCURVE",
"300 18 OFFCURVE",
"240 18 CURVE SMOOTH",
"110 18 LINE"
);
}
);
width = 430;
}
);
note = Eth;
rightKerningGroup = parenright;
rightMetricsKey = O;
unicode = 00D0;
},
{
color = 4;
glyphname = E;
lastChange = "2021-05-28 00:49:12 +0000";
layers = (
{
anchors = (
{
name = bottom;
position = "{164, 0}";
},
{
name = ogonek;
position = "{287, 0}";
},
{
name = top;
position = "{167, 591}";
},
{
name = topleft;
position = "{20, 591}";
}
);
background = {
paths = (
{
closed = 1;
nodes = (
"311 0 LINE",
"311 108 LINE",
"191 108 LINE",
"191 240 LINE",
"301 240 LINE",
"301 365 LINE",
"191 365 LINE",
"191 480 LINE",
"311 480 LINE",
"311 591 LINE",
"25 591 LINE",
"25 0 LINE"
);
}
);
};
layerId = "8A3706BD-364F-4FE3-9C2E-7E87DF0DB4CC";
paths = (
{
closed = 1;
nodes = (
"311 0 LINE",
"311 108 LINE",
"191 108 LINE",
"191 240 LINE",
"301 240 LINE",
"301 365 LINE",
"191 365 LINE",
"191 480 LINE",
"311 480 LINE",
"311 591 LINE",
"25 591 LINE",
"25 0 LINE"
);
}
);
width = 328;
},
{
anchors = (
{
name = bottom;
position = "{174, 0}";
},
{
name = ogonek;
position = "{262, 0}";
},
{
name = top;
position = "{200, 591}";
},
{
name = topleft;
position = "{20, 591}";
}
);
background = {
paths = (
{
closed = 1;
nodes = (
"321 0 LINE",
"321 19 LINE",
"103 19 LINE",
"103 302 LINE",
"271 302 LINE",
"271 321 LINE",
"103 321 LINE",
"103 572 LINE",
"321 572 LINE",
"321 591 LINE",
"78 591 LINE",
"78 0 LINE"
);
}
);
};
layerId = "5AAFD18E-AEF5-43C3-A12E-1BAE6B19067F";
paths = (
{
closed = 1;
nodes = (
"321 0 LINE",
"321 19 LINE",
"103 19 LINE",
"103 302 LINE",
"271 302 LINE",
"271 321 LINE",
"103 321 LINE",
"103 572 LINE",
"321 572 LINE",
"321 591 LINE",
"78 591 LINE",
"78 0 LINE"
);
}
);
width = 348;
}
);
leftKerningGroup = H;
leftMetricsKey = H;
rightKerningGroup = E;
unicode = 0045;
},
{
color = 4;
glyphname = F;
lastChange = "2021-05-28 00:49:25 +0000";
layers = (
{
background = {
paths = (
{
closed = 1;
nodes = (
"191 0 LINE",
"191 240 LINE",
"301 240 LINE",
"301 365 LINE",
"191 365 LINE",
"191 480 LINE",
"311 480 LINE",
"311 591 LINE",
"25 591 LINE",
"25 0 LINE"
);
}
);
};
layerId = "8A3706BD-364F-4FE3-9C2E-7E87DF0DB4CC";
paths = (
{
closed = 1;
nodes = (
"191 0 LINE",
"191 240 LINE",
"301 240 LINE",
"301 365 LINE",
"191 365 LINE",
"191 480 LINE",
"311 480 LINE",
"311 591 LINE",
"25 591 LINE",
"25 0 LINE"
);
}
);
width = 326;
},
{
background = {
paths = (
{
closed = 1;
nodes = (
"103 0 LINE",
"103 302 LINE",
"271 302 LINE",
"271 321 LINE",
"103 321 LINE",
"103 572 LINE",
"321 572 LINE",
"321 591 LINE",
"78 591 LINE",
"78 0 LINE"
);
}
);
};
layerId = "5AAFD18E-AEF5-43C3-A12E-1BAE6B19067F";
paths = (
{
closed = 1;
nodes = (
"103 0 LINE",
"103 302 LINE",
"271 302 LINE",
"271 321 LINE",
"103 321 LINE",
"103 572 LINE",
"321 572 LINE",
"321 591 LINE",
"78 591 LINE",
"78 0 LINE"
);
}
);
width = 337;
}
);
leftKerningGroup = H;
leftMetricsKey = H;
rightKerningGroup = F;
unicode = 0046;
},
{
color = 4;
glyphname = G;
lastChange = "2021-05-28 00:49:32 +0000";
layers = (
{
anchors = (
{
name = bottom;
position = "{198, 0}";
},
{
name = top;
position = "{198, 591}";
}
);
background = {
paths = (
{
closed = 1;
nodes = (
"211 -10 OFFCURVE",
"239 18 OFFCURVE",
"249 38 CURVE",
"249 38 OFFCURVE",
"249 38 OFFCURVE",
"249 38 CURVE",
"257 0 LINE",
"377 0 LINE",
"377 311 LINE",
"198 311 LINE",
"198 222 LINE",
"223 222 LINE",
"223 110 LINE SMOOTH",
"223 87 OFFCURVE",
"214 80 OFFCURVE",
"201 80 CURVE SMOOTH",
"188 80 OFFCURVE",
"179 87 OFFCURVE",
"179 110 CURVE SMOOTH",
"179 473 LINE SMOOTH",
"179 496 OFFCURVE",
"188 503 OFFCURVE",
"201 503 CURVE SMOOTH",
"214 503 OFFCURVE",
"223 496 OFFCURVE",
"223 473 CURVE SMOOTH",
"223 373 LINE",
"377 373 LINE",
"377 463 LINE SMOOTH",
"377 562 OFFCURVE",
"302 598 OFFCURVE",
"196 598 CURVE SMOOTH",
"90 598 OFFCURVE",
"20 562 OFFCURVE",
"20 463 CURVE SMOOTH",
"20 151 LINE SMOOTH",
"20 14 OFFCURVE",
"87 -10 OFFCURVE",
"149 -10 CURVE SMOOTH"
);
}
);
};
layerId = "8A3706BD-364F-4FE3-9C2E-7E87DF0DB4CC";
paths = (
{
closed = 1;
nodes = (
"211 -10 OFFCURVE",
"239 18 OFFCURVE",
"249 38 CURVE",
"249 38 OFFCURVE",
"249 38 OFFCURVE",
"249 38 CURVE",
"257 0 LINE",
"377 0 LINE",
"377 311 LINE",
"198 311 LINE",
"198 222 LINE",
"223 222 LINE",
"223 110 LINE SMOOTH",
"223 87 OFFCURVE",
"214 80 OFFCURVE",
"201 80 CURVE SMOOTH",
"188 80 OFFCURVE",
"179 87 OFFCURVE",
"179 110 CURVE SMOOTH",
"179 473 LINE SMOOTH",
"179 496 OFFCURVE",
"188 503 OFFCURVE",
"201 503 CURVE SMOOTH",
"214 503 OFFCURVE",
"223 496 OFFCURVE",
"223 473 CURVE SMOOTH",
"223 373 LINE",
"377 373 LINE",
"377 463 LINE SMOOTH",
"377 562 OFFCURVE",
"302 598 OFFCURVE",
"196 598 CURVE SMOOTH",
"90 598 OFFCURVE",
"20 562 OFFCURVE",
"20 463 CURVE SMOOTH",
"20 151 LINE SMOOTH",
"20 14 OFFCURVE",
"87 -10 OFFCURVE",
"149 -10 CURVE SMOOTH"
);
}
);
width = 395;
},
{
anchors = (
{
name = bottom;
position = "{203, 0}";
},
{
name = top;
position = "{203, 591}";
}
);
background = {
paths = (
{
closed = 1;
nodes = (
"247 -12 OFFCURVE",
"279 1 OFFCURVE",
"302 29 CURVE",
"309 38 OFFCURVE",
"317 52 OFFCURVE",
"324 64 CURVE",
"325 0 LINE",
"342 0 LINE",
"342 267 LINE",
"221 267 LINE",
"221 249 LINE",
"318 249 LINE",
"318 121 LINE SMOOTH",
"318 48 OFFCURVE",
"270 6 OFFCURVE",
"204 6 CURVE SMOOTH",
"137 6 OFFCURVE",
"90 19 OFFCURVE",
"90 121 CURVE SMOOTH",
"90 466 LINE SMOOTH",
"90 568 OFFCURVE",
"137 581 OFFCURVE",
"204 581 CURVE SMOOTH",
"272 581 OFFCURVE",
"318 568 OFFCURVE",
"318 466 CURVE SMOOTH",
"318 400 LINE",
"342 400 LINE",
"342 469 LINE SMOOTH",
"342 582 OFFCURVE",
"286 599 OFFCURVE",
"206 599 CURVE SMOOTH",
"126 599 OFFCURVE",
"67 584 OFFCURVE",
"67 469 CURVE SMOOTH",
"67 119 LINE SMOOTH",
"67 4 OFFCURVE",
"125 -12 OFFCURVE",
"201 -12 CURVE SMOOTH"
);
}
);
};
layerId = "5AAFD18E-AEF5-43C3-A12E-1BAE6B19067F";
paths = (
{
closed = 1;
nodes = (
"247 -12 OFFCURVE",
"279 1 OFFCURVE",
"302 29 CURVE",
"309 38 OFFCURVE",
"317 52 OFFCURVE",
"324 64 CURVE",
"325 0 LINE",
"342 0 LINE",
"342 267 LINE",
"221 267 LINE",
"221 249 LINE",
"318 249 LINE",
"318 121 LINE SMOOTH",
"318 48 OFFCURVE",
"270 6 OFFCURVE",
"204 6 CURVE SMOOTH",
"137 6 OFFCURVE",
"90 19 OFFCURVE",
"90 121 CURVE SMOOTH",
"90 466 LINE SMOOTH",
"90 568 OFFCURVE",
"137 581 OFFCURVE",
"204 581 CURVE SMOOTH",
"272 581 OFFCURVE",
"318 568 OFFCURVE",
"318 466 CURVE SMOOTH",
"318 400 LINE",
"342 400 LINE",
"342 469 LINE SMOOTH",
"342 582 OFFCURVE",
"286 599 OFFCURVE",
"206 599 CURVE SMOOTH",
"126 599 OFFCURVE",
"67 584 OFFCURVE",
"67 469 CURVE SMOOTH",
"67 119 LINE SMOOTH",
"67 4 OFFCURVE",
"125 -12 OFFCURVE",
"201 -12 CURVE SMOOTH"
);
}
);
width = 405;
}
);
leftKerningGroup = O;
leftMetricsKey = O;
rightKerningGroup = G;
unicode = 0047;
},
{
color = 4;
glyphname = H;
lastChange = "2021-05-28 00:49:34 +0000";
layers = (
{
background = {
paths = (
{
closed = 1;
nodes = (
"184 0 LINE",
"184 245 LINE",
"220 245 LINE",
"220 0 LINE",
"379 0 LINE",
"379 591 LINE",
"220 591 LINE",
"220 362 LINE",
"184 362 LINE",
"184 591 LINE",
"25 591 LINE",
"25 0 LINE"
);
}
);
};
layerId = "8A3706BD-364F-4FE3-9C2E-7E87DF0DB4CC";
paths = (
{
closed = 1;
nodes = (
"184 0 LINE",
"184 245 LINE",
"220 245 LINE",
"220 0 LINE",
"379 0 LINE",
"379 591 LINE",
"220 591 LINE",
"220 362 LINE",
"184 362 LINE",
"184 591 LINE",
"25 591 LINE",
"25 0 LINE"
);
}
);
width = 404;
},
{
background = {
paths = (
{
closed = 1;
nodes = (
"102 0 LINE",
"102 301 LINE",
"331 301 LINE",
"331 0 LINE",
"354 0 LINE",
"354 591 LINE",
"331 591 LINE",
"331 321 LINE",
"102 321 LINE",
"102 591 LINE",
"78 591 LINE",
"78 0 LINE"
);
}
);
};
layerId = "5AAFD18E-AEF5-43C3-A12E-1BAE6B19067F";
paths = (
{
closed = 1;
nodes = (
"102 0 LINE",
"102 301 LINE",
"331 301 LINE",
"331 0 LINE",
"354 0 LINE",
"354 591 LINE",
"331 591 LINE",
"331 321 LINE",
"102 321 LINE",
"102 591 LINE",
"78 591 LINE",
"78 0 LINE"
);
}
);
width = 432;
}
);
leftKerningGroup = H;
rightKerningGroup = H;
unicode = 0048;
},
{
color = 4;
glyphname = I;
lastChange = "2021-05-28 00:49:45 +0000";
layers = (
{
anchors = (
{
name = bottom;
position = "{105, 0}";
},
{
name = ogonek;
position = "{184, 0}";
},
{
name = top;
position = "{105, 591}";
},
{
name = topleft;
position = "{20, 591}";
}
);
background = {
paths = (
{
closed = 1;
nodes = (
"184 0 LINE",
"184 591 LINE",
"25 591 LINE",
"25 0 LINE"
);
}
);
};
layerId = "8A3706BD-364F-4FE3-9C2E-7E87DF0DB4CC";
paths = (
{
closed = 1;
nodes = (
"184 0 LINE",
"184 591 LINE",
"25 591 LINE",
"25 0 LINE"
);
}
);
width = 209;
},
{
anchors = (
{
name = bottom;
position = "{90, 0}";
},
{
name = ogonek;
position = "{100, 0}";
},
{
name = top;
position = "{90, 591}";
},
{
name = topleft;
position = "{20, 591}";
}
);
background = {
paths = (
{
closed = 1;
nodes = (
"102 0 LINE",
"102 591 LINE",
"78 591 LINE",
"78 0 LINE"
);
}
);
};
layerId = "5AAFD18E-AEF5-43C3-A12E-1BAE6B19067F";
paths = (
{
closed = 1;
nodes = (
"102 0 LINE",
"102 591 LINE",
"78 591 LINE",
"78 0 LINE"
);
}
);
width = 180;
}
);
leftKerningGroup = H;
leftMetricsKey = H;
rightKerningGroup = H;
rightMetricsKey = H;
unicode = 0049;
},
{
color = 4;
glyphname = J;
lastChange = "2021-05-26 04:14:52 +0000";
layers = (
{
background = {
paths = (
{
closed = 1;
nodes = (
"186 -1 OFFCURVE",
"239 33 OFFCURVE",
"239 159 CURVE SMOOTH",
"239 591 LINE",
"80 591 LINE",
"80 156 LINE SMOOTH",
"80 117 OFFCURVE",
"72 108 OFFCURVE",
"34 108 CURVE SMOOTH",
"5 108 LINE",
"5 0 LINE",
"15 -1 OFFCURVE",
"48 -1 OFFCURVE",
"59 -1 CURVE SMOOTH"
);
}
);
};
layerId = "8A3706BD-364F-4FE3-9C2E-7E87DF0DB4CC";
paths = (
{
closed = 1;
nodes = (
"186 -1 OFFCURVE",
"239 33 OFFCURVE",
"239 159 CURVE SMOOTH",
"239 591 LINE",
"80 591 LINE",
"80 156 LINE SMOOTH",
"80 117 OFFCURVE",
"72 108 OFFCURVE",
"34 108 CURVE SMOOTH",
"5 108 LINE",
"5 0 LINE",
"15 -1 OFFCURVE",
"48 -1 OFFCURVE",
"59 -1 CURVE SMOOTH"
);
}
);
width = 264;
},
{
background = {
paths = (
{
closed = 1;
nodes = (
"120 -1 OFFCURVE",
"128 29 OFFCURVE",
"128 118 CURVE SMOOTH",
"128 591 LINE",
"104 591 LINE",
"104 82 LINE SMOOTH",
"104 33 OFFCURVE",
"85 18 OFFCURVE",
"43 19 CURVE SMOOTH",
"8 20 LINE",
"8 0 LINE",
"21 -1 OFFCURVE",
"31 -1 OFFCURVE",
"43 -1 CURVE SMOOTH"
);
}
);
};
layerId = "5AAFD18E-AEF5-43C3-A12E-1BAE6B19067F";
paths = (
{
closed = 1;
nodes = (
"120 -1 OFFCURVE",
"128 29 OFFCURVE",
"128 118 CURVE SMOOTH",
"128 591 LINE",
"104 591 LINE",
"104 82 LINE SMOOTH",
"104 33 OFFCURVE",
"85 18 OFFCURVE",
"43 19 CURVE SMOOTH",
"8 20 LINE",
"8 0 LINE",
"21 -1 OFFCURVE",
"31 -1 OFFCURVE",
"43 -1 CURVE SMOOTH"
);
}
);
width = 200;
}
);
leftKerningGroup = J;
rightKerningGroup = O;
rightMetricsKey = "=O+5";
unicode = 004A;
},
{
color = 4;
glyphname = K;
lastChange = "2021-05-28 00:50:08 +0000";
layers = (
{
anchors = (
{
name = bottom;
position = "{220, 0}";
},
{
name = top;
position = "{220, 591}";
}
);
background = {
paths = (
{
closed = 1;
nodes = (
"434 0 LINE",
"336 307 LINE",
"432 591 LINE",
"263 591 LINE",
"182 306 LINE",
"263 0 LINE"
);
},
{
closed = 1;
nodes = (
"184 0 LINE",
"184 591 LINE",
"25 591 LINE",
"25 0 LINE"
);
}
);
};
layerId = "8A3706BD-364F-4FE3-9C2E-7E87DF0DB4CC";
paths = (
{
closed = 1;
nodes = (
"434 0 LINE",
"336 307 LINE",
"432 591 LINE",
"263 591 LINE",
"182 306 LINE",
"263 0 LINE"
);
},
{
closed = 1;
nodes = (
"184 0 LINE",
"184 591 LINE",
"25 591 LINE",
"25 0 LINE"
);
}
);
width = 439;
},
{
anchors = (
{
name = bottom;
position = "{175, 0}";
},
{
name = top;
position = "{175, 591}";
}
);
background = {
paths = (
{
closed = 1;
nodes = (
"333 0 LINE",
"149 306 LINE",
"326 591 LINE",
"298 591 LINE",
"122 308 LINE",
"304 0 LINE"
);
},
{
closed = 1;
nodes = (
"102 0 LINE",
"102 591 LINE",
"78 591 LINE",
"78 0 LINE"
);
}
);
};
layerId = "5AAFD18E-AEF5-43C3-A12E-1BAE6B19067F";
paths = (
{
closed = 1;
nodes = (
"333 0 LINE",
"149 306 LINE",
"326 591 LINE",
"298 591 LINE",
"122 308 LINE",
"304 0 LINE"
);
},
{
closed = 1;
nodes = (
"102 0 LINE",
"102 591 LINE",
"78 591 LINE",
"78 0 LINE"
);
}
);
width = 349;
}
);
leftKerningGroup = H;
leftMetricsKey = H;
rightKerningGroup = K;
unicode = 004B;
},
{
color = 4;
glyphname = L;
lastChange = "2021-05-28 00:50:14 +0000";
layers = (
{
anchors = (
{
name = bottom;
position = "{151, 0}";
},
{
name = center;
position = "{151, 296}";
},
{
name = top;
position = "{151, 591}";
},
{
name = topright;
position = "{197, 446}";
}
);
background = {
paths = (
{
closed = 1;
nodes = (
"291 0 LINE",
"291 108 LINE",
"182 108 LINE",
"182 591 LINE",
"25 591 LINE",
"25 0 LINE"
);
}
);
};
layerId = "8A3706BD-364F-4FE3-9C2E-7E87DF0DB4CC";
paths = (
{
closed = 1;
nodes = (
"291 0 LINE",
"291 108 LINE",
"182 108 LINE",
"182 591 LINE",
"25 591 LINE",
"25 0 LINE"
);
}
);
width = 301;
},
{
anchors = (
{
name = bottom;
position = "{148, 0}";
},
{
name = center;
position = "{148, 296}";
},
{
name = top;
position = "{90, 591}";
},
{
name = topright;
position = "{214, 495}";
}
);
background = {
paths = (
{
closed = 1;
nodes = (
"290 0 LINE",
"290 19 LINE",
"102 19 LINE",
"102 591 LINE",
"78 591 LINE",
"78 0 LINE"
);
}
);
};
layerId = "5AAFD18E-AEF5-43C3-A12E-1BAE6B19067F";
paths = (
{
closed = 1;
nodes = (
"290 0 LINE",
"290 19 LINE",
"102 19 LINE",
"102 591 LINE",
"78 591 LINE",
"78 0 LINE"
);
}
);
width = 295;
}
);
leftKerningGroup = H;
leftMetricsKey = H;
rightKerningGroup = L;
unicode = 004C;
},
{
color = 4;
glyphname = Lslash;
lastChange = "2021-05-28 00:50:14 +0000";
layers = (
{
background = {
paths = (
{
closed = 1;
nodes = (
"333 0 LINE",
"333 108 LINE",
"224 108 LINE",
"224 225 LINE",
"285 253 LINE",
"285 316 LINE",
"224 289 LINE",
"224 585 LINE",
"67 585 LINE",
"67 219 LINE",
"15 196 LINE",
"15 132 LINE",
"67 155 LINE",
"67 0 LINE"
);
}
);
};
layerId = "8A3706BD-364F-4FE3-9C2E-7E87DF0DB4CC";
paths = (
{
closed = 1;
nodes = (
"333 0 LINE",
"333 108 LINE",
"224 108 LINE",
"224 225 LINE",
"285 253 LINE",
"285 316 LINE",
"224 289 LINE",
"224 585 LINE",
"67 585 LINE",
"67 219 LINE",
"15 196 LINE",
"15 132 LINE",
"67 155 LINE",
"67 0 LINE"
);
}
);
width = 353;
},
{
background = {
paths = (
{
closed = 1;
nodes = (
"324 0 LINE",
"324 19 LINE",
"137 19 LINE",
"137 189 LINE",
"247 240 LINE",
"247 262 LINE",
"137 211 LINE",
"137 591 LINE",
"113 591 LINE",
"113 201 LINE",
"49 172 LINE",
"49 149 LINE",
"113 178 LINE",
"113 0 LINE"
);
}
);
};
hints = (
{
horizontal = 1;
place = "{0, 8.735}";
type = Stem;
},
{
horizontal = 1;
place = "{573.618, -20}";
target = down;
type = TopGhost;
},
{
place = "{110.647, 19.412}";
type = Stem;
}
);
layerId = "5AAFD18E-AEF5-43C3-A12E-1BAE6B19067F";
paths = (
{
closed = 1;
nodes = (
"324 0 LINE",
"324 19 LINE",
"137 19 LINE",
"137 189 LINE",
"247 240 LINE",
"247 262 LINE",
"137 211 LINE",
"137 591 LINE",
"113 591 LINE",
"113 201 LINE",
"49 172 LINE",
"49 149 LINE",
"113 178 LINE",
"113 0 LINE"
);
}
);
width = 373;
}
);
note = Lslash;
unicode = 0141;
},
{
color = 4;
glyphname = M;
lastChange = "2021-05-28 00:50:27 +0000";
layers = (
{
background = {
paths = (
{
closed = 1;
nodes = (
"164 0 LINE",
"164 412 LINE",
"217 0 LINE",
"323 0 LINE",
"376 412 LINE",
"376 0 LINE",
"515 0 LINE",
"515 591 LINE",
"313 591 LINE",
"270 289 LINE",
"227 591 LINE",
"25 591 LINE",
"25 0 LINE"
);
}
);
};
layerId = "8A3706BD-364F-4FE3-9C2E-7E87DF0DB4CC";
paths = (
{
closed = 1;
nodes = (
"164 0 LINE",
"164 412 LINE",
"217 0 LINE",
"323 0 LINE",
"376 412 LINE",
"376 0 LINE",
"515 0 LINE",
"515 591 LINE",
"313 591 LINE",
"270 289 LINE",
"227 591 LINE",
"25 591 LINE",
"25 0 LINE"
);
}
);
width = 540;
},
{
background = {
paths = (
{
closed = 1;
nodes = (
"102 0 LINE",
"102 505 LINE",
"253 0 LINE",
"274 0 LINE",
"425 505 LINE",
"425 0 LINE",
"448 0 LINE",
"448 591 LINE",
"429 591 LINE",
"263 38 LINE",
"101 591 LINE",
"78 591 LINE",
"78 0 LINE"
);
}
);
};
layerId = "5AAFD18E-AEF5-43C3-A12E-1BAE6B19067F";
paths = (
{
closed = 1;
nodes = (
"102 0 LINE",
"102 505 LINE",
"253 0 LINE",
"274 0 LINE",
"425 505 LINE",
"425 0 LINE",
"448 0 LINE",
"448 591 LINE",
"429 591 LINE",
"263 38 LINE",
"101 591 LINE",
"78 591 LINE",
"78 0 LINE"
);
}
);
width = 526;
}
);
leftKerningGroup = H;
leftMetricsKey = H;
rightKerningGroup = H;
rightMetricsKey = H;
unicode = 004D;
},
{
color = 4;
glyphname = N;
lastChange = "2021-05-28 00:52:07 +0000";
layers = (
{
anchors = (
{
name = bottom;
position = "{200, 0}";
},
{
name = top;
position = "{203, 591}";
}
);
background = {
paths = (
{
closed = 1;
nodes = (
"164 0 LINE",
"164 245 LINE",
"237 0 LINE",
"374 0 LINE",
"374 591 LINE",
"235 591 LINE",
"235 316 LINE",
"163 591 LINE",
"25 591 LINE",
"25 0 LINE"
);
}
);
};
layerId = "8A3706BD-364F-4FE3-9C2E-7E87DF0DB4CC";
paths = (
{
closed = 1;
nodes = (
"164 0 LINE",
"164 245 LINE",
"237 0 LINE",
"374 0 LINE",
"374 591 LINE",
"235 591 LINE",
"235 316 LINE",
"163 591 LINE",
"25 591 LINE",
"25 0 LINE"
);
}
);
width = 399;
},
{
anchors = (
{
name = bottom;
position = "{216, 0}";
},
{
name = top;
position = "{220, 591}";
}
);
background = {
paths = (
{
closed = 1;
nodes = (
"102 0 LINE",
"102 526 LINE",
"330 0 LINE",
"354 0 LINE",
"354 591 LINE",
"331 591 LINE",
"331 54 LINE",
"100 591 LINE",
"78 591 LINE",
"78 0 LINE"
);
}
);
};
layerId = "5AAFD18E-AEF5-43C3-A12E-1BAE6B19067F";
paths = (
{
closed = 1;
nodes = (
"102 0 LINE",
"102 526 LINE",
"330 0 LINE",
"354 0 LINE",
"354 591 LINE",
"331 591 LINE",
"331 54 LINE",
"100 591 LINE",
"78 591 LINE",
"78 0 LINE"
);
}
);
width = 432;
}
);
leftKerningGroup = H;
leftMetricsKey = H;
rightKerningGroup = H;
rightMetricsKey = H;
unicode = 004E;
},
{
color = 4;
glyphname = Eng;
lastChange = "2021-05-28 00:51:42 +0000";
layers = (
{
background = {
paths = (
{
closed = 1;
nodes = (
"321 -250 OFFCURVE",
"374 -215 OFFCURVE",
"374 -90 CURVE SMOOTH",
"374 591 LINE",
"235 591 LINE",
"235 316 LINE",
"163 591 LINE",
"25 591 LINE",
"25 0 LINE",
"164 0 LINE",
"164 245 LINE",
"215 74 LINE",
"215 -93 LINE SMOOTH",
"215 -132 OFFCURVE",
"208 -141 OFFCURVE",
"169 -141 CURVE SMOOTH",
"159 -141 OFFCURVE",
"150 -141 OFFCURVE",
"140 -141 CURVE",
"140 -249 LINE",
"158 -249 OFFCURVE",
"176 -250 OFFCURVE",
"194 -250 CURVE SMOOTH"
);
}
);
};
layerId = "8A3706BD-364F-4FE3-9C2E-7E87DF0DB4CC";
paths = (
{
closed = 1;
nodes = (
"328 -196 OFFCURVE",
"374 -164 OFFCURVE",
"374 -36 CURVE SMOOTH",
"375 591 LINE",
"236 591 LINE",
"235 316 LINE",
"164 591 LINE",
"26 591 LINE",
"25 0 LINE",
"164 0 LINE",
"164 245 LINE",
"236 2 LINE",
"236 -39 LINE SMOOTH",
"236 -79 OFFCURVE",
"228 -87 OFFCURVE",
"189 -87 CURVE SMOOTH",
"160 -87 LINE",
"160 -195 LINE",
"170 -196 OFFCURVE",
"203 -196 OFFCURVE",
"214 -196 CURVE SMOOTH"
);
}
);
width = 400;
},
{
background = {
paths = (
{
closed = 1;
nodes = (
"341 -249 OFFCURVE",
"355 -227 OFFCURVE",
"355 -127 CURVE SMOOTH",
"355 591 LINE",
"332 591 LINE",
"332 54 LINE",
"101 591 LINE",
"79 591 LINE",
"79 0 LINE",
"103 0 LINE",
"103 526 LINE",
"331 2 LINE",
"331 -160 LINE SMOOTH",
"331 -215 OFFCURVE",
"314 -230 OFFCURVE",
"269 -229 CURVE SMOOTH",
"257 -229 OFFCURVE",
"246 -229 OFFCURVE",
"234 -228 CURVE",
"234 -248 LINE",
"242 -249 OFFCURVE",
"252 -249 OFFCURVE",
"269 -249 CURVE SMOOTH"
);
}
);
};
layerId = "5AAFD18E-AEF5-43C3-A12E-1BAE6B19067F";
paths = (
{
closed = 1;
nodes = (
"346 -164 OFFCURVE",
"356 -133 OFFCURVE",
"354 -45 CURVE SMOOTH",
"355 591 LINE",
"332 591 LINE",
"331 54 LINE",
"101 591 LINE",
"79 591 LINE",
"78 0 LINE",
"102 0 LINE",
"103 526 LINE",
"330 1 LINE",
"329 -81 LINE SMOOTH",
"329 -130 OFFCURVE",
"310 -145 OFFCURVE",
"268 -144 CURVE SMOOTH",
"234 -143 LINE",
"234 -163 LINE",
"247 -164 OFFCURVE",
"256 -164 OFFCURVE",
"268 -164 CURVE SMOOTH"
);
}
);
width = 433;
}
);
leftMetricsKey = H;
rightMetricsKey = H;
unicode = 014A;
},
{
color = 4;
glyphname = O;
lastChange = "2021-05-28 00:53:13 +0000";
layers = (
{
anchors = (
{
name = bottom;
position = "{199, 0}";
},
{
name = center;
position = "{199, 296}";
},
{
name = ogonek;
position = "{357, 10}";
},
{
name = top;
position = "{199, 591}";
},
{
name = topleft;
position = "{20, 591}";
},
{
name = topright;
position = "{268, 591}";
}
);
background = {
paths = (
{
closed = 1;
nodes = (
"303 -12 OFFCURVE",
"377 14 OFFCURVE",
"377 174 CURVE SMOOTH",
"377 465 LINE SMOOTH",
"377 564 OFFCURVE",
"303 600 OFFCURVE",
"197 600 CURVE SMOOTH",
"91 600 OFFCURVE",
"20 564 OFFCURVE",
"20 465 CURVE SMOOTH",
"20 173 LINE SMOOTH",
"20 14 OFFCURVE",
"91 -12 OFFCURVE",
"197 -12 CURVE SMOOTH"
);
},
{
closed = 1;
nodes = (
"185 80 OFFCURVE",
"176 92 OFFCURVE",
"176 110 CURVE SMOOTH",
"176 473 LINE SMOOTH",
"176 491 OFFCURVE",
"185 503 OFFCURVE",
"197 503 CURVE SMOOTH",
"209 503 OFFCURVE",
"218 491 OFFCURVE",
"218 473 CURVE SMOOTH",
"218 110 LINE SMOOTH",
"218 92 OFFCURVE",
"209 80 OFFCURVE",
"197 80 CURVE SMOOTH"
);
}
);
};
layerId = "8A3706BD-364F-4FE3-9C2E-7E87DF0DB4CC";
paths = (
{
closed = 1;
nodes = (
"303 -12 OFFCURVE",
"377 14 OFFCURVE",
"377 174 CURVE SMOOTH",
"377 465 LINE SMOOTH",
"377 564 OFFCURVE",
"303 600 OFFCURVE",
"197 600 CURVE SMOOTH",
"91 600 OFFCURVE",
"20 564 OFFCURVE",
"20 465 CURVE SMOOTH",
"20 173 LINE SMOOTH",
"20 14 OFFCURVE",
"91 -12 OFFCURVE",
"197 -12 CURVE SMOOTH"
);
},
{
closed = 1;
nodes = (
"185 80 OFFCURVE",
"176 92 OFFCURVE",
"176 110 CURVE SMOOTH",
"176 473 LINE SMOOTH",
"176 491 OFFCURVE",
"185 503 OFFCURVE",
"197 503 CURVE SMOOTH",
"209 503 OFFCURVE",
"218 491 OFFCURVE",
"218 473 CURVE SMOOTH",
"218 110 LINE SMOOTH",
"218 92 OFFCURVE",
"209 80 OFFCURVE",
"197 80 CURVE SMOOTH"
);
}
);
width = 397;
},
{
anchors = (
{
name = bottom;
position = "{205, 0}";
},
{
name = center;
position = "{205, 296}";
},
{
name = ogonek;
position = "{368, 10}";
},
{
name = top;
position = "{205, 591}";
},
{
name = topleft;
position = "{20, 591}";
},
{
name = topright;
position = "{265, 594}";
}
);
background = {
paths = (
{
closed = 1;
nodes = (
"284 -12 OFFCURVE",
"342 2 OFFCURVE",
"342 120 CURVE SMOOTH",
"342 469 LINE SMOOTH",
"342 582 OFFCURVE",
"284 599 OFFCURVE",
"205 599 CURVE SMOOTH",
"126 599 OFFCURVE",
"67 584 OFFCURVE",
"67 469 CURVE SMOOTH",
"67 120 LINE SMOOTH",
"67 4 OFFCURVE",
"125 -12 OFFCURVE",
"203 -12 CURVE SMOOTH"
);
},
{
closed = 1;
nodes = (
"136 6 OFFCURVE",
"90 19 OFFCURVE",
"90 121 CURVE SMOOTH",
"90 466 LINE SMOOTH",
"90 568 OFFCURVE",
"136 581 OFFCURVE",
"204 581 CURVE SMOOTH",
"270 581 OFFCURVE",
"318 568 OFFCURVE",
"318 466 CURVE SMOOTH",
"318 121 LINE SMOOTH",
"318 19 OFFCURVE",
"272 6 OFFCURVE",
"204 6 CURVE SMOOTH"
);
}
);
};
layerId = "5AAFD18E-AEF5-43C3-A12E-1BAE6B19067F";
paths = (
{
closed = 1;
nodes = (
"284 -12 OFFCURVE",
"342 2 OFFCURVE",
"342 120 CURVE SMOOTH",
"342 469 LINE SMOOTH",
"342 582 OFFCURVE",
"284 599 OFFCURVE",
"205 599 CURVE SMOOTH",
"126 599 OFFCURVE",
"67 584 OFFCURVE",
"67 469 CURVE SMOOTH",
"67 120 LINE SMOOTH",
"67 4 OFFCURVE",
"125 -12 OFFCURVE",
"203 -12 CURVE SMOOTH"
);
},
{
closed = 1;
nodes = (
"136 6 OFFCURVE",
"90 19 OFFCURVE",
"90 121 CURVE SMOOTH",
"90 466 LINE SMOOTH",
"90 568 OFFCURVE",
"136 581 OFFCURVE",
"204 581 CURVE SMOOTH",
"270 581 OFFCURVE",
"318 568 OFFCURVE",
"318 466 CURVE SMOOTH",
"318 121 LINE SMOOTH",
"318 19 OFFCURVE",
"272 6 OFFCURVE",
"204 6 CURVE SMOOTH"
);
}
);
width = 409;
}
);
leftKerningGroup = O;
rightKerningGroup = O;
unicode = 004F;
},
{
glyphname = Oslash;
lastChange = "2021-05-26 04:14:52 +0000";
layers = (
{
background = {
paths = (
{
closed = 1;
nodes = (
"86 -15 LINE",
"393 591 LINE",
"326 591 LINE",
"20 -15 LINE"
);
},
{
closed = 1;
nodes = (
"316 -12 OFFCURVE",
"382 14 OFFCURVE",
"382 174 CURVE SMOOTH",
"382 465 LINE SMOOTH",
"382 564 OFFCURVE",
"316 600 OFFCURVE",
"207 600 CURVE SMOOTH",
"98 600 OFFCURVE",
"25 564 OFFCURVE",
"25 465 CURVE SMOOTH",
"25 173 LINE SMOOTH",
"25 14 OFFCURVE",
"98 -12 OFFCURVE",
"207 -12 CURVE SMOOTH"
);
},
{
closed = 1;
nodes = (
"197 80 OFFCURVE",
"191 87 OFFCURVE",
"191 110 CURVE SMOOTH",
"191 473 LINE SMOOTH",
"191 496 OFFCURVE",
"197 503 OFFCURVE",
"207 503 CURVE SMOOTH",
"216 503 OFFCURVE",
"223 496 OFFCURVE",
"223 473 CURVE SMOOTH",
"223 110 LINE SMOOTH",
"223 87 OFFCURVE",
"216 80 OFFCURVE",
"207 80 CURVE SMOOTH"
);
}
);
};
layerId = "8A3706BD-364F-4FE3-9C2E-7E87DF0DB4CC";
paths = (
{
closed = 1;
nodes = (
"86 -15 LINE",
"393 591 LINE",
"326 591 LINE",
"20 -15 LINE"
);
},
{
closed = 1;
nodes = (
"316 -12 OFFCURVE",
"382 14 OFFCURVE",
"382 174 CURVE SMOOTH",
"382 465 LINE SMOOTH",
"382 564 OFFCURVE",
"316 600 OFFCURVE",
"207 600 CURVE SMOOTH",
"98 600 OFFCURVE",
"25 564 OFFCURVE",
"25 465 CURVE SMOOTH",
"25 173 LINE SMOOTH",
"25 14 OFFCURVE",
"98 -12 OFFCURVE",
"207 -12 CURVE SMOOTH"
);
},
{
closed = 1;
nodes = (
"197 80 OFFCURVE",
"191 87 OFFCURVE",
"191 110 CURVE SMOOTH",
"191 473 LINE SMOOTH",
"191 496 OFFCURVE",
"197 503 OFFCURVE",
"207 503 CURVE SMOOTH",
"216 503 OFFCURVE",
"223 496 OFFCURVE",
"223 473 CURVE SMOOTH",
"223 110 LINE SMOOTH",
"223 87 OFFCURVE",
"216 80 OFFCURVE",
"207 80 CURVE SMOOTH"
);
}
);
width = 411;
},
{
background = {
paths = (
{
closed = 1;
nodes = (
"63 -14 LINE",
"367 591 LINE",
"343 591 LINE",
"39 -14 LINE"
);
},
{
closed = 1;
nodes = (
"293 -12 OFFCURVE",
"351 2 OFFCURVE",
"351 120 CURVE SMOOTH",
"351 469 LINE SMOOTH",
"351 582 OFFCURVE",
"293 599 OFFCURVE",
"214 599 CURVE SMOOTH",
"135 599 OFFCURVE",
"75 584 OFFCURVE",
"75 469 CURVE SMOOTH",
"75 120 LINE SMOOTH",
"75 4 OFFCURVE",
"134 -12 OFFCURVE",
"212 -12 CURVE SMOOTH"
);
},
{
closed = 1;
nodes = (
"146 6 OFFCURVE",
"99 19 OFFCURVE",
"99 121 CURVE SMOOTH",
"99 466 LINE SMOOTH",
"99 568 OFFCURVE",
"146 581 OFFCURVE",
"213 581 CURVE SMOOTH",
"279 581 OFFCURVE",
"327 568 OFFCURVE",
"327 466 CURVE SMOOTH",
"327 121 LINE SMOOTH",
"327 19 OFFCURVE",
"281 6 OFFCURVE",
"213 6 CURVE SMOOTH"
);
}
);
};
hints = (
{
horizontal = 1;
place = "{-44.647, 657.088}";
type = Stem;
},
{
place = "{22.324, 349.412}";
type = Stem;
}
);
layerId = "5AAFD18E-AEF5-43C3-A12E-1BAE6B19067F";
paths = (
{
closed = 1;
nodes = (
"63 -14 LINE",
"367 591 LINE",
"343 591 LINE",
"39 -14 LINE"
);
},
{
closed = 1;
nodes = (
"293 -12 OFFCURVE",
"351 2 OFFCURVE",
"351 120 CURVE SMOOTH",
"351 469 LINE SMOOTH",
"351 582 OFFCURVE",
"293 599 OFFCURVE",
"214 599 CURVE SMOOTH",
"135 599 OFFCURVE",
"75 584 OFFCURVE",
"75 469 CURVE SMOOTH",
"75 120 LINE SMOOTH",
"75 4 OFFCURVE",
"134 -12 OFFCURVE",
"212 -12 CURVE SMOOTH"
);
},
{
closed = 1;
nodes = (
"146 6 OFFCURVE",
"99 19 OFFCURVE",
"99 121 CURVE SMOOTH",
"99 466 LINE SMOOTH",
"99 568 OFFCURVE",
"146 581 OFFCURVE",
"213 581 CURVE SMOOTH",
"279 581 OFFCURVE",
"327 568 OFFCURVE",
"327 466 CURVE SMOOTH",
"327 121 LINE SMOOTH",
"327 19 OFFCURVE",
"281 6 OFFCURVE",
"213 6 CURVE SMOOTH"
);
}
);
width = 427;
}
);
unicode = 00D8;
},
{
color = 4;
glyphname = OE;
lastChange = "2021-05-28 00:54:58 +0000";
layers = (
{
background = {
paths = (
{
closed = 1;
nodes = (
"311 -12 OFFCURVE",
"377 14 OFFCURVE",
"377 174 CURVE SMOOTH",
"377 465 LINE SMOOTH",
"377 564 OFFCURVE",
"311 600 OFFCURVE",
"202 600 CURVE SMOOTH",
"93 600 OFFCURVE",
"20 564 OFFCURVE",
"20 465 CURVE SMOOTH",
"20 173 LINE SMOOTH",
"20 14 OFFCURVE",
"93 -12 OFFCURVE",
"202 -12 CURVE SMOOTH"
);
},
{
closed = 1;
nodes = (
"192 80 OFFCURVE",
"186 87 OFFCURVE",
"186 110 CURVE SMOOTH",
"186 473 LINE SMOOTH",
"186 496 OFFCURVE",
"192 503 OFFCURVE",
"202 503 CURVE SMOOTH",
"211 503 OFFCURVE",
"218 496 OFFCURVE",
"218 473 CURVE SMOOTH",
"218 110 LINE SMOOTH",
"218 87 OFFCURVE",
"211 80 OFFCURVE",
"202 80 CURVE SMOOTH"
);
},
{
closed = 1;
nodes = (
"525 0 LINE",
"525 108 LINE",
"377 108 LINE",
"377 240 LINE",
"515 240 LINE",
"515 365 LINE",
"377 365 LINE",
"377 480 LINE",
"525 480 LINE",
"525 591 LINE",
"219 591 LINE",
"219 0 LINE"
);
},
{
closed = 1;
nodes = (
"303 -12 OFFCURVE",
"377 14 OFFCURVE",
"377 174 CURVE SMOOTH",
"377 465 LINE SMOOTH",
"377 564 OFFCURVE",
"303 600 OFFCURVE",
"197 600 CURVE SMOOTH",
"91 600 OFFCURVE",
"20 564 OFFCURVE",
"20 465 CURVE SMOOTH",
"20 173 LINE SMOOTH",
"20 14 OFFCURVE",
"91 -12 OFFCURVE",
"197 -12 CURVE SMOOTH"
);
},
{
closed = 1;
nodes = (
"185 80 OFFCURVE",
"176 92 OFFCURVE",
"176 110 CURVE SMOOTH",
"176 473 LINE SMOOTH",
"176 491 OFFCURVE",
"185 503 OFFCURVE",
"197 503 CURVE SMOOTH",
"209 503 OFFCURVE",
"218 491 OFFCURVE",
"218 473 CURVE SMOOTH",
"218 110 LINE SMOOTH",
"218 92 OFFCURVE",
"209 80 OFFCURVE",
"197 80 CURVE SMOOTH"
);
}
);
};
layerId = "8A3706BD-364F-4FE3-9C2E-7E87DF0DB4CC";
paths = (
{
closed = 1;
nodes = (
"291 -12 OFFCURVE",
"357 14 OFFCURVE",
"357 174 CURVE SMOOTH",
"357 465 LINE SMOOTH",
"357 564 OFFCURVE",
"291 600 OFFCURVE",
"197 600 CURVE SMOOTH",
"91 600 OFFCURVE",
"20 564 OFFCURVE",
"20 465 CURVE SMOOTH",
"20 173 LINE SMOOTH",
"20 14 OFFCURVE",
"91 -12 OFFCURVE",
"197 -12 CURVE SMOOTH"
);
},
{
closed = 1;
nodes = (
"185 80 OFFCURVE",
"176 92 OFFCURVE",
"176 110 CURVE SMOOTH",
"176 473 LINE SMOOTH",
"176 491 OFFCURVE",
"185 503 OFFCURVE",
"197 503 CURVE SMOOTH",
"209 503 OFFCURVE",
"218 491 OFFCURVE",
"218 473 CURVE SMOOTH",
"218 110 LINE SMOOTH",
"218 92 OFFCURVE",
"209 80 OFFCURVE",
"197 80 CURVE SMOOTH"
);
},
{
closed = 1;
nodes = (
"525 0 LINE",
"525 108 LINE",
"377 108 LINE",
"377 240 LINE",
"515 240 LINE",
"515 365 LINE",
"377 365 LINE",
"377 480 LINE",
"525 480 LINE",
"525 591 LINE",
"219 591 LINE",
"219 0 LINE"
);
}
);
width = 542;
},
{
background = {
paths = (
{
closed = 1;
nodes = (
"285 -12 OFFCURVE",
"343 2 OFFCURVE",
"343 120 CURVE SMOOTH",
"343 469 LINE SMOOTH",
"343 582 OFFCURVE",
"285 599 OFFCURVE",
"206 599 CURVE SMOOTH",
"127 599 OFFCURVE",
"67 584 OFFCURVE",
"67 469 CURVE SMOOTH",
"67 120 LINE SMOOTH",
"67 4 OFFCURVE",
"126 -12 OFFCURVE",
"204 -12 CURVE SMOOTH"
);
},
{
closed = 1;
nodes = (
"138 6 OFFCURVE",
"91 19 OFFCURVE",
"91 121 CURVE SMOOTH",
"91 466 LINE SMOOTH",
"91 568 OFFCURVE",
"138 581 OFFCURVE",
"205 581 CURVE SMOOTH",
"271 581 OFFCURVE",
"319 568 OFFCURVE",
"319 466 CURVE SMOOTH",
"319 121 LINE SMOOTH",
"319 19 OFFCURVE",
"273 6 OFFCURVE",
"205 6 CURVE SMOOTH"
);
},
{
closed = 1;
nodes = (
"562 0 LINE",
"562 19 LINE",
"343 19 LINE",
"343 302 LINE",
"512 302 LINE",
"512 321 LINE",
"343 321 LINE",
"343 572 LINE",
"562 572 LINE",
"562 591 LINE",
"319 591 LINE",
"319 0 LINE"
);
},
{
closed = 1;
nodes = (
"284 -12 OFFCURVE",
"342 2 OFFCURVE",
"342 120 CURVE SMOOTH",
"342 469 LINE SMOOTH",
"342 582 OFFCURVE",
"284 599 OFFCURVE",
"205 599 CURVE SMOOTH",
"126 599 OFFCURVE",
"67 584 OFFCURVE",
"67 469 CURVE SMOOTH",
"67 120 LINE SMOOTH",
"67 4 OFFCURVE",
"125 -12 OFFCURVE",
"203 -12 CURVE SMOOTH"
);
},
{
closed = 1;
nodes = (
"136 6 OFFCURVE",
"90 19 OFFCURVE",
"90 121 CURVE SMOOTH",
"90 466 LINE SMOOTH",
"90 568 OFFCURVE",
"136 581 OFFCURVE",
"204 581 CURVE SMOOTH",
"270 581 OFFCURVE",
"318 568 OFFCURVE",
"318 466 CURVE SMOOTH",
"318 121 LINE SMOOTH",
"318 19 OFFCURVE",
"272 6 OFFCURVE",
"204 6 CURVE SMOOTH"
);
}
);
};
layerId = "5AAFD18E-AEF5-43C3-A12E-1BAE6B19067F";
paths = (
{
closed = 1;
nodes = (
"285 -12 OFFCURVE",
"343 2 OFFCURVE",
"343 120 CURVE SMOOTH",
"343 469 LINE SMOOTH",
"343 582 OFFCURVE",
"285 599 OFFCURVE",
"206 599 CURVE SMOOTH",
"127 599 OFFCURVE",
"67 584 OFFCURVE",
"67 469 CURVE SMOOTH",
"67 120 LINE SMOOTH",
"67 4 OFFCURVE",
"126 -12 OFFCURVE",
"204 -12 CURVE SMOOTH"
);
},
{
closed = 1;
nodes = (
"138 6 OFFCURVE",
"91 19 OFFCURVE",
"91 121 CURVE SMOOTH",
"91 466 LINE SMOOTH",
"91 568 OFFCURVE",
"138 581 OFFCURVE",
"205 581 CURVE SMOOTH",
"271 581 OFFCURVE",
"319 568 OFFCURVE",
"319 466 CURVE SMOOTH",
"319 121 LINE SMOOTH",
"319 19 OFFCURVE",
"273 6 OFFCURVE",
"205 6 CURVE SMOOTH"
);
},
{
closed = 1;
nodes = (
"562 0 LINE",
"562 19 LINE",
"343 19 LINE",
"343 302 LINE",
"512 302 LINE",
"512 321 LINE",
"343 321 LINE",
"343 572 LINE",
"562 572 LINE",
"562 591 LINE",
"319 591 LINE",
"319 0 LINE"
);
}
);
width = 589;
}
);
leftMetricsKey = O;
rightMetricsKey = E;
unicode = 0152;
},
{
glyphname = P;
lastChange = "2021-05-26 04:14:52 +0000";
layers = (
{
background = {
paths = (
{
closed = 1;
nodes = (
"191 0 LINE",
"191 224 LINE",
"265 224 LINE SMOOTH",
"357 224 OFFCURVE",
"382 303 OFFCURVE",
"382 392 CURVE SMOOTH",
"382 490 LINE SMOOTH",
"382 549 OFFCURVE",
"345 591 OFFCURVE",
"257 591 CURVE SMOOTH",
"25 591 LINE",
"25 0 LINE"
);
},
{
closed = 1;
nodes = (
"191 507 LINE",
"206 507 LINE SMOOTH",
"223 507 OFFCURVE",
"224 483 OFFCURVE",
"224 418 CURVE SMOOTH",
"224 408 LINE SMOOTH",
"224 335 OFFCURVE",
"217 310 OFFCURVE",
"203 310 CURVE SMOOTH",
"191 310 LINE"
);
}
);
};
layerId = "8A3706BD-364F-4FE3-9C2E-7E87DF0DB4CC";
paths = (
{
closed = 1;
nodes = (
"191 0 LINE",
"191 224 LINE",
"265 224 LINE SMOOTH",
"357 224 OFFCURVE",
"382 303 OFFCURVE",
"382 392 CURVE SMOOTH",
"382 490 LINE SMOOTH",
"382 549 OFFCURVE",
"345 591 OFFCURVE",
"257 591 CURVE SMOOTH",
"25 591 LINE",
"25 0 LINE"
);
},
{
closed = 1;
nodes = (
"191 507 LINE",
"206 507 LINE SMOOTH",
"223 507 OFFCURVE",
"224 483 OFFCURVE",
"224 418 CURVE SMOOTH",
"224 408 LINE SMOOTH",
"224 335 OFFCURVE",
"217 310 OFFCURVE",
"203 310 CURVE SMOOTH",
"191 310 LINE"
);
}
);
width = 398;
},
{
background = {
paths = (
{
closed = 1;
nodes = (
"103 0 LINE",
"103 267 LINE",
"221 267 LINE SMOOTH",
"329 267 OFFCURVE",
"349 321 OFFCURVE",
"349 381 CURVE SMOOTH",
"349 494 LINE SMOOTH",
"349 566 OFFCURVE",
"300 591 OFFCURVE",
"242 591 CURVE SMOOTH",
"78 591 LINE",
"78 0 LINE"
);
},
{
closed = 1;
nodes = (
"103 573 LINE",
"241 573 LINE SMOOTH",
"285 573 OFFCURVE",
"325 546 OFFCURVE",
"325 489 CURVE SMOOTH",
"325 386 LINE SMOOTH",
"325 319 OFFCURVE",
"289 285 OFFCURVE",
"220 285 CURVE SMOOTH",
"103 285 LINE"
);
}
);
};
layerId = "5AAFD18E-AEF5-43C3-A12E-1BAE6B19067F";
paths = (
{
closed = 1;
nodes = (
"103 0 LINE",
"103 267 LINE",
"221 267 LINE SMOOTH",
"329 267 OFFCURVE",
"349 321 OFFCURVE",
"349 381 CURVE SMOOTH",
"349 494 LINE SMOOTH",
"349 566 OFFCURVE",
"300 591 OFFCURVE",
"242 591 CURVE SMOOTH",
"78 591 LINE",
"78 0 LINE"
);
},
{
closed = 1;
nodes = (
"103 573 LINE",
"241 573 LINE SMOOTH",
"285 573 OFFCURVE",
"325 546 OFFCURVE",
"325 489 CURVE SMOOTH",
"325 386 LINE SMOOTH",
"325 319 OFFCURVE",
"289 285 OFFCURVE",
"220 285 CURVE SMOOTH",
"103 285 LINE"
);
}
);
width = 379;
}
);
leftKerningGroup = H;
leftMetricsKey = H;
rightKerningGroup = P;
unicode = 0050;
},
{
glyphname = Thorn;
lastChange = "2021-05-26 04:14:52 +0000";
layers = (
{
background = {
paths = (
{
closed = 1;
nodes = (
"191 0 LINE",
"191 127 LINE",
"265 127 LINE SMOOTH",
"357 127 OFFCURVE",
"382 206 OFFCURVE",
"382 295 CURVE SMOOTH",
"382 393 LINE SMOOTH",
"382 453 OFFCURVE",
"345 494 OFFCURVE",
"257 494 CURVE SMOOTH",
"192 494 LINE",
"192 591 LINE",
"25 591 LINE",
"25 0 LINE"
);
},
{
closed = 1;
nodes = (
"191 410 LINE",
"206 410 LINE SMOOTH",
"224 410 OFFCURVE",
"224 387 OFFCURVE",
"224 321 CURVE SMOOTH",
"224 311 LINE SMOOTH",
"224 238 OFFCURVE",
"218 213 OFFCURVE",
"203 213 CURVE SMOOTH",
"191 213 LINE"
);
}
);
};
layerId = "8A3706BD-364F-4FE3-9C2E-7E87DF0DB4CC";
paths = (
{
closed = 1;
nodes = (
"191 0 LINE",
"191 127 LINE",
"265 127 LINE SMOOTH",
"357 127 OFFCURVE",
"382 206 OFFCURVE",
"382 295 CURVE SMOOTH",
"382 393 LINE SMOOTH",
"382 453 OFFCURVE",
"345 494 OFFCURVE",
"257 494 CURVE SMOOTH",
"192 494 LINE",
"192 591 LINE",
"25 591 LINE",
"25 0 LINE"
);
},
{
closed = 1;
nodes = (
"191 410 LINE",
"206 410 LINE SMOOTH",
"224 410 OFFCURVE",
"224 387 OFFCURVE",
"224 321 CURVE SMOOTH",
"224 311 LINE SMOOTH",
"224 238 OFFCURVE",
"218 213 OFFCURVE",
"203 213 CURVE SMOOTH",
"191 213 LINE"
);
}
);
width = 407;
},
{
background = {
paths = (
{
closed = 1;
nodes = (
"74 0 LINE",
"74 149 LINE",
"192 149 LINE SMOOTH",
"300 149 OFFCURVE",
"320 204 OFFCURVE",
"320 264 CURVE SMOOTH",
"320 377 LINE SMOOTH",
"320 448 OFFCURVE",
"271 474 OFFCURVE",
"213 474 CURVE SMOOTH",
"74 474 LINE",
"74 591 LINE",
"49 591 LINE",
"49 0 LINE"
);
},
{
closed = 1;
nodes = (
"74 456 LINE",
"212 456 LINE SMOOTH",
"256 456 OFFCURVE",
"296 429 OFFCURVE",
"296 371 CURVE SMOOTH",
"296 268 LINE SMOOTH",
"296 201 OFFCURVE",
"261 167 OFFCURVE",
"190 167 CURVE SMOOTH",
"74 167 LINE"
);
}
);
};
hints = (
{
horizontal = 1;
place = "{0, 21}";
target = up;
type = BottomGhost;
},
{
horizontal = 1;
place = "{145.588, 15.529}";
type = Stem;
},
{
horizontal = 1;
place = "{443.559, 15.529}";
type = Stem;
},
{
horizontal = 1;
place = "{573.618, -20}";
target = down;
type = TopGhost;
},
{
place = "{48.529, 19.412}";
type = Stem;
},
{
place = "{289.235, 19.412}";
type = Stem;
}
);
layerId = "5AAFD18E-AEF5-43C3-A12E-1BAE6B19067F";
paths = (
{
closed = 1;
nodes = (
"74 0 LINE",
"74 149 LINE",
"192 149 LINE SMOOTH",
"300 149 OFFCURVE",
"320 204 OFFCURVE",
"320 264 CURVE SMOOTH",
"320 377 LINE SMOOTH",
"320 448 OFFCURVE",
"271 474 OFFCURVE",
"213 474 CURVE SMOOTH",
"74 474 LINE",
"74 591 LINE",
"49 591 LINE",
"49 0 LINE"
);
},
{
closed = 1;
nodes = (
"74 456 LINE",
"212 456 LINE SMOOTH",
"256 456 OFFCURVE",
"296 429 OFFCURVE",
"296 371 CURVE SMOOTH",
"296 268 LINE SMOOTH",
"296 201 OFFCURVE",
"261 167 OFFCURVE",
"190 167 CURVE SMOOTH",
"74 167 LINE"
);
}
);
width = 369;
}
);
note = Thorn;
unicode = 00DE;
},
{
color = 4;
glyphname = Q;
lastChange = "2021-05-26 04:14:52 +0000";
layers = (
{
background = {
paths = (
{
closed = 1;
nodes = (
"385 -68 LINE",
"333 24 LINE",
"366 51 OFFCURVE",
"385 97 OFFCURVE",
"385 178 CURVE SMOOTH",
"385 465 LINE SMOOTH",
"385 564 OFFCURVE",
"317 600 OFFCURVE",
"206 600 CURVE SMOOTH",
"95 600 OFFCURVE",
"20 564 OFFCURVE",
"20 465 CURVE SMOOTH",
"20 177 LINE SMOOTH",
"20 18 OFFCURVE",
"93 -8 OFFCURVE",
"199 -8 CURVE SMOOTH",
"204 -8 OFFCURVE",
"208 -8 OFFCURVE",
"213 -8 CURVE",
"281 -129 LINE"
);
},
{
closed = 1;
nodes = (
"194 84 OFFCURVE",
"186 91 OFFCURVE",
"186 114 CURVE SMOOTH",
"186 473 LINE SMOOTH",
"186 496 OFFCURVE",
"194 503 OFFCURVE",
"206 503 CURVE SMOOTH",
"217 503 OFFCURVE",
"226 496 OFFCURVE",
"226 473 CURVE SMOOTH",
"226 114 LINE SMOOTH",
"226 91 OFFCURVE",
"217 84 OFFCURVE",
"206 84 CURVE SMOOTH"
);
}
);
};
layerId = "8A3706BD-364F-4FE3-9C2E-7E87DF0DB4CC";
paths = (
{
closed = 1;
nodes = (
"385 -68 LINE",
"333 24 LINE",
"366 51 OFFCURVE",
"385 97 OFFCURVE",
"385 178 CURVE SMOOTH",
"385 465 LINE SMOOTH",
"385 564 OFFCURVE",
"317 600 OFFCURVE",
"206 600 CURVE SMOOTH",
"95 600 OFFCURVE",
"20 564 OFFCURVE",
"20 465 CURVE SMOOTH",
"20 177 LINE SMOOTH",
"20 18 OFFCURVE",
"93 -8 OFFCURVE",
"199 -8 CURVE SMOOTH",
"204 -8 OFFCURVE",
"208 -8 OFFCURVE",
"213 -8 CURVE",
"281 -129 LINE"
);
},
{
closed = 1;
nodes = (
"194 84 OFFCURVE",
"186 91 OFFCURVE",
"186 114 CURVE SMOOTH",
"186 473 LINE SMOOTH",
"186 496 OFFCURVE",
"194 503 OFFCURVE",
"206 503 CURVE SMOOTH",
"217 503 OFFCURVE",
"226 496 OFFCURVE",
"226 473 CURVE SMOOTH",
"226 114 LINE SMOOTH",
"226 91 OFFCURVE",
"217 84 OFFCURVE",
"206 84 CURVE SMOOTH"
);
}
);
width = 405;
},
{
background = {
paths = (
{
closed = 1;
nodes = (
"333 -99 LINE",
"275 -3 LINE",
"317 9 OFFCURVE",
"342 41 OFFCURVE",
"342 120 CURVE SMOOTH",
"342 469 LINE SMOOTH",
"342 582 OFFCURVE",
"284 599 OFFCURVE",
"205 599 CURVE SMOOTH",
"126 599 OFFCURVE",
"67 584 OFFCURVE",
"67 469 CURVE SMOOTH",
"67 120 LINE SMOOTH",
"67 4 OFFCURVE",
"125 -12 OFFCURVE",
"203 -12 CURVE SMOOTH",
"221 -12 OFFCURVE",
"236 -11 OFFCURVE",
"251 -9 CURVE",
"311 -112 LINE"
);
},
{
closed = 1;
nodes = (
"137 6 OFFCURVE",
"90 19 OFFCURVE",
"90 121 CURVE SMOOTH",
"90 466 LINE SMOOTH",
"90 568 OFFCURVE",
"137 581 OFFCURVE",
"204 581 CURVE SMOOTH",
"270 581 OFFCURVE",
"318 568 OFFCURVE",
"318 466 CURVE SMOOTH",
"318 121 LINE SMOOTH",
"318 19 OFFCURVE",
"272 6 OFFCURVE",
"204 6 CURVE SMOOTH"
);
}
);
};
layerId = "5AAFD18E-AEF5-43C3-A12E-1BAE6B19067F";
paths = (
{
closed = 1;
nodes = (
"333 -99 LINE",
"275 -3 LINE",
"317 9 OFFCURVE",
"342 41 OFFCURVE",
"342 120 CURVE SMOOTH",
"342 469 LINE SMOOTH",
"342 582 OFFCURVE",
"284 599 OFFCURVE",
"205 599 CURVE SMOOTH",
"126 599 OFFCURVE",
"67 584 OFFCURVE",
"67 469 CURVE SMOOTH",
"67 120 LINE SMOOTH",
"67 4 OFFCURVE",
"125 -12 OFFCURVE",
"203 -12 CURVE SMOOTH",
"221 -12 OFFCURVE",
"236 -11 OFFCURVE",
"251 -9 CURVE",
"311 -112 LINE"
);
},
{
closed = 1;
nodes = (
"137 6 OFFCURVE",
"90 19 OFFCURVE",
"90 121 CURVE SMOOTH",
"90 466 LINE SMOOTH",
"90 568 OFFCURVE",
"137 581 OFFCURVE",
"204 581 CURVE SMOOTH",
"270 581 OFFCURVE",
"318 568 OFFCURVE",
"318 466 CURVE SMOOTH",
"318 121 LINE SMOOTH",
"318 19 OFFCURVE",
"272 6 OFFCURVE",
"204 6 CURVE SMOOTH"
);
}
);
width = 409;
}
);
leftKerningGroup = O;
leftMetricsKey = O;
rightKerningGroup = O;
rightMetricsKey = O;
unicode = 0051;
},
{
color = 4;
glyphname = R;
lastChange = "2021-05-26 05:08:20 +0000";
layers = (
{
anchors = (
{
name = bottom;
position = "{212, 0}";
},
{
name = top;
position = "{212, 591}";
}
);
background = {
paths = (
{
closed = 1;
nodes = (
"191 0 LINE",
"191 237 LINE",
"194 237 LINE",
"199 237 OFFCURVE",
"203 221 OFFCURVE",
"208 194 CURVE SMOOTH",
"242 0 LINE",
"419 0 LINE",
"367 204 LINE SMOOTH",
"355 252 OFFCURVE",
"343 269 OFFCURVE",
"296 278 CURVE",
"296 280 LINE",
"367 288 OFFCURVE",
"390 342 OFFCURVE",
"390 400 CURVE SMOOTH",
"390 490 LINE SMOOTH",
"390 549 OFFCURVE",
"353 591 OFFCURVE",
"265 591 CURVE SMOOTH",
"25 591 LINE",
"25 0 LINE"
);
},
{
closed = 1;
nodes = (
"191 507 LINE",
"210 507 LINE SMOOTH",
"227 507 OFFCURVE",
"234 497 OFFCURVE",
"234 461 CURVE SMOOTH",
"234 396 LINE SMOOTH",
"234 360 OFFCURVE",
"224 347 OFFCURVE",
"207 347 CURVE SMOOTH",
"191 347 LINE"
);
}
);
};
layerId = "8A3706BD-364F-4FE3-9C2E-7E87DF0DB4CC";
paths = (
{
closed = 1;
nodes = (
"191 0 LINE",
"191 237 LINE",
"194 237 LINE",
"199 237 OFFCURVE",
"203 221 OFFCURVE",
"208 194 CURVE SMOOTH",
"242 0 LINE",
"419 0 LINE",
"367 204 LINE SMOOTH",
"355 252 OFFCURVE",
"343 269 OFFCURVE",
"296 278 CURVE",
"296 280 LINE",
"367 288 OFFCURVE",
"390 342 OFFCURVE",
"390 400 CURVE SMOOTH",
"390 490 LINE SMOOTH",
"390 549 OFFCURVE",
"353 591 OFFCURVE",
"265 591 CURVE SMOOTH",
"25 591 LINE",
"25 0 LINE"
);
},
{
closed = 1;
nodes = (
"191 507 LINE",
"210 507 LINE SMOOTH",
"227 507 OFFCURVE",
"234 497 OFFCURVE",
"234 461 CURVE SMOOTH",
"234 396 LINE SMOOTH",
"234 360 OFFCURVE",
"224 347 OFFCURVE",
"207 347 CURVE SMOOTH",
"191 347 LINE"
);
}
);
width = 424;
},
{
anchors = (
{
name = bottom;
position = "{205, 0}";
},
{
name = top;
position = "{205, 591}";
}
);
background = {
paths = (
{
closed = 1;
nodes = (
"102 0 LINE",
"102 287 LINE",
"203 287 LINE",
"253 287 OFFCURVE",
"272 242 OFFCURVE",
"285 201 CURVE SMOOTH",
"347 0 LINE",
"371 0 LINE",
"307 203 LINE SMOOTH",
"288 264 OFFCURVE",
"271 294 OFFCURVE",
"228 293 CURVE",
"228 291 LINE",
"297 291 OFFCURVE",
"349 323 OFFCURVE",
"349 396 CURVE SMOOTH",
"349 494 LINE SMOOTH",
"349 566 OFFCURVE",
"300 591 OFFCURVE",
"242 591 CURVE SMOOTH",
"78 591 LINE",
"78 0 LINE"
);
},
{
closed = 1;
nodes = (
"102 573 LINE",
"241 573 LINE SMOOTH",
"285 573 OFFCURVE",
"325 547 OFFCURVE",
"325 490 CURVE SMOOTH",
"325 404 LINE SMOOTH",
"325 331 OFFCURVE",
"289 304 OFFCURVE",
"220 304 CURVE SMOOTH",
"102 304 LINE"
);
}
);
};
layerId = "5AAFD18E-AEF5-43C3-A12E-1BAE6B19067F";
paths = (
{
closed = 1;
nodes = (
"102 0 LINE",
"102 287 LINE",
"203 287 LINE",
"253 287 OFFCURVE",
"272 242 OFFCURVE",
"285 201 CURVE SMOOTH",
"347 0 LINE",
"371 0 LINE",
"307 203 LINE SMOOTH",
"288 264 OFFCURVE",
"271 294 OFFCURVE",
"228 293 CURVE",
"228 291 LINE",
"297 291 OFFCURVE",
"349 323 OFFCURVE",
"349 396 CURVE SMOOTH",
"349 494 LINE SMOOTH",
"349 566 OFFCURVE",
"300 591 OFFCURVE",
"242 591 CURVE SMOOTH",
"78 591 LINE",
"78 0 LINE"
);
},
{
closed = 1;
nodes = (
"102 573 LINE",
"241 573 LINE SMOOTH",
"285 573 OFFCURVE",
"325 547 OFFCURVE",
"325 490 CURVE SMOOTH",
"325 404 LINE SMOOTH",
"325 331 OFFCURVE",
"289 304 OFFCURVE",
"220 304 CURVE SMOOTH",
"102 304 LINE"
);
}
);
width = 410;
}
);
leftKerningGroup = H;
leftMetricsKey = H;
rightKerningGroup = R;
unicode = 0052;
},
{
color = 4;
glyphname = S;
lastChange = "2021-05-28 00:56:37 +0000";
layers = (
{
anchors = (
{
name = bottom;
position = "{203, 0}";
},
{
name = top;
position = "{203, 591}";
}
);
background = {
paths = (
{
closed = 1;
nodes = (
"315 -8 OFFCURVE",
"391 36 OFFCURVE",
"391 171 CURVE SMOOTH",
"391 290 OFFCURVE",
"354 313 OFFCURVE",
"266 345 CURVE SMOOTH",
"223 361 OFFCURVE",
"184 368 OFFCURVE",
"184 427 CURVE SMOOTH",
"184 456 OFFCURVE",
"187 467 OFFCURVE",
"204 467 CURVE SMOOTH",
"225 467 OFFCURVE",
"225 453 OFFCURVE",
"225 399 CURVE SMOOTH",
"225 373 LINE",
"278 373 OFFCURVE",
"331 373 OFFCURVE",
"384 373 CURVE",
"384 449 LINE SMOOTH",
"384 546 OFFCURVE",
"322 593 OFFCURVE",
"202 593 CURVE SMOOTH",
"62 593 OFFCURVE",
"19 548 OFFCURVE",
"19 422 CURVE SMOOTH",
"19 332 OFFCURVE",
"40 279 OFFCURVE",
"115 246 CURVE SMOOTH",
"195 211 OFFCURVE",
"222 211 OFFCURVE",
"222 147 CURVE SMOOTH",
"222 101 OFFCURVE",
"217 92 OFFCURVE",
"202 92 CURVE SMOOTH",
"188 92 OFFCURVE",
"181 101 OFFCURVE",
"181 155 CURVE SMOOTH",
"181 206 LINE",
"125 206 OFFCURVE",
"70 206 OFFCURVE",
"14 206 CURVE",
"14 169 LINE SMOOTH",
"14 26 OFFCURVE",
"77 -8 OFFCURVE",
"196 -8 CURVE SMOOTH"
);
}
);
};
layerId = "8A3706BD-364F-4FE3-9C2E-7E87DF0DB4CC";
paths = (
{
closed = 1;
nodes = (
"315 -8 OFFCURVE",
"391 36 OFFCURVE",
"391 171 CURVE SMOOTH",
"391 290 OFFCURVE",
"354 313 OFFCURVE",
"266 345 CURVE SMOOTH",
"223 361 OFFCURVE",
"184 368 OFFCURVE",
"184 427 CURVE SMOOTH",
"184 456 OFFCURVE",
"187 467 OFFCURVE",
"204 467 CURVE SMOOTH",
"225 467 OFFCURVE",
"225 453 OFFCURVE",
"225 399 CURVE SMOOTH",
"225 373 LINE",
"278 373 OFFCURVE",
"331 373 OFFCURVE",
"384 373 CURVE",
"384 449 LINE SMOOTH",
"384 546 OFFCURVE",
"322 593 OFFCURVE",
"202 593 CURVE SMOOTH",
"62 593 OFFCURVE",
"19 548 OFFCURVE",
"19 422 CURVE SMOOTH",
"19 332 OFFCURVE",
"40 279 OFFCURVE",
"115 246 CURVE SMOOTH",
"195 211 OFFCURVE",
"222 211 OFFCURVE",
"222 147 CURVE SMOOTH",
"222 101 OFFCURVE",
"217 92 OFFCURVE",
"202 92 CURVE SMOOTH",
"188 92 OFFCURVE",
"181 101 OFFCURVE",
"181 155 CURVE SMOOTH",
"181 206 LINE",
"125 206 OFFCURVE",
"70 206 OFFCURVE",
"14 206 CURVE",
"14 169 LINE SMOOTH",
"14 26 OFFCURVE",
"77 -8 OFFCURVE",
"196 -8 CURVE SMOOTH"
);
}
);
width = 405;
},
{
anchors = (
{
name = bottom;
position = "{181, 0}";
},
{
name = top;
position = "{181, 591}";
}
);
background = {
paths = (
{
closed = 1;
nodes = (
"255 -6 OFFCURVE",
"314 34 OFFCURVE",
"314 150 CURVE SMOOTH",
"314 247 OFFCURVE",
"277 274 OFFCURVE",
"186 310 CURVE SMOOTH",
"128 332 OFFCURVE",
"72 357 OFFCURVE",
"72 444 CURVE SMOOTH",
"72 529 OFFCURVE",
"105 572 OFFCURVE",
"180 572 CURVE SMOOTH",
"247 572 OFFCURVE",
"286 531 OFFCURVE",
"286 463 CURVE SMOOTH",
"286 404 LINE",
"294 404 OFFCURVE",
"301 404 OFFCURVE",
"308 404 CURVE",
"308 465 LINE SMOOTH",
"308 544 OFFCURVE",
"260 591 OFFCURVE",
"180 591 CURVE SMOOTH",
"87 591 OFFCURVE",
"50 539 OFFCURVE",
"50 443 CURVE SMOOTH",
"50 349 OFFCURVE",
"106 318 OFFCURVE",
"167 295 CURVE SMOOTH",
"245 265 OFFCURVE",
"291 247 OFFCURVE",
"291 149 CURVE SMOOTH",
"291 48 OFFCURVE",
"241 13 OFFCURVE",
"176 13 CURVE SMOOTH",
"113 13 OFFCURVE",
"69 48 OFFCURVE",
"69 166 CURVE SMOOTH",
"69 198 LINE",
"62 198 OFFCURVE",
"54 198 OFFCURVE",
"47 198 CURVE",
"47 166 LINE SMOOTH",
"47 36 OFFCURVE",
"97 -6 OFFCURVE",
"176 -6 CURVE SMOOTH"
);
}
);
};
layerId = "5AAFD18E-AEF5-43C3-A12E-1BAE6B19067F";
paths = (
{
closed = 1;
nodes = (
"255 -6 OFFCURVE",
"314 34 OFFCURVE",
"314 150 CURVE SMOOTH",
"314 247 OFFCURVE",
"277 274 OFFCURVE",
"186 310 CURVE SMOOTH",
"128 332 OFFCURVE",
"72 357 OFFCURVE",
"72 444 CURVE SMOOTH",
"72 529 OFFCURVE",
"105 572 OFFCURVE",
"180 572 CURVE SMOOTH",
"247 572 OFFCURVE",
"286 531 OFFCURVE",
"286 463 CURVE SMOOTH",
"286 404 LINE",
"294 404 OFFCURVE",
"301 404 OFFCURVE",
"308 404 CURVE",
"308 465 LINE SMOOTH",
"308 544 OFFCURVE",
"260 591 OFFCURVE",
"180 591 CURVE SMOOTH",
"87 591 OFFCURVE",
"50 539 OFFCURVE",
"50 443 CURVE SMOOTH",
"50 349 OFFCURVE",
"106 318 OFFCURVE",
"167 295 CURVE SMOOTH",
"245 265 OFFCURVE",
"291 247 OFFCURVE",
"291 149 CURVE SMOOTH",
"291 48 OFFCURVE",
"241 13 OFFCURVE",
"176 13 CURVE SMOOTH",
"113 13 OFFCURVE",
"69 48 OFFCURVE",
"69 166 CURVE SMOOTH",
"69 198 LINE",
"62 198 OFFCURVE",
"54 198 OFFCURVE",
"47 198 CURVE",
"47 166 LINE SMOOTH",
"47 36 OFFCURVE",
"97 -6 OFFCURVE",
"176 -6 CURVE SMOOTH"
);
}
);
width = 361;
}
);
leftKerningGroup = S;
rightKerningGroup = S;
unicode = 0053;
},
{
color = 0;
glyphname = Germandbls;
lastChange = "2021-05-26 05:08:36 +0000";
layers = (
{
background = {
paths = (
{
closed = 1;
nodes = (
"718 -8 OFFCURVE",
"794 36 OFFCURVE",
"794 171 CURVE SMOOTH",
"794 290 OFFCURVE",
"757 313 OFFCURVE",
"669 345 CURVE SMOOTH",
"626 361 OFFCURVE",
"587 368 OFFCURVE",
"587 427 CURVE SMOOTH",
"587 456 OFFCURVE",
"590 467 OFFCURVE",
"607 467 CURVE SMOOTH",
"628 467 OFFCURVE",
"628 453 OFFCURVE",
"628 399 CURVE SMOOTH",
"628 373 LINE",
"681 373 OFFCURVE",
"734 373 OFFCURVE",
"787 373 CURVE",
"787 449 LINE SMOOTH",
"787 546 OFFCURVE",
"725 593 OFFCURVE",
"605 593 CURVE SMOOTH",
"465 593 OFFCURVE",
"422 548 OFFCURVE",
"422 422 CURVE SMOOTH",
"422 332 OFFCURVE",
"443 279 OFFCURVE",
"518 246 CURVE SMOOTH",
"598 211 OFFCURVE",
"625 211 OFFCURVE",
"625 147 CURVE SMOOTH",
"625 101 OFFCURVE",
"620 92 OFFCURVE",
"605 92 CURVE SMOOTH",
"591 92 OFFCURVE",
"584 101 OFFCURVE",
"584 155 CURVE SMOOTH",
"584 206 LINE",
"528 206 OFFCURVE",
"473 206 OFFCURVE",
"417 206 CURVE",
"417 169 LINE SMOOTH",
"417 26 OFFCURVE",
"480 -8 OFFCURVE",
"599 -8 CURVE SMOOTH"
);
},
{
closed = 1;
nodes = (
"321 -8 OFFCURVE",
"397 36 OFFCURVE",
"397 171 CURVE SMOOTH",
"397 290 OFFCURVE",
"360 313 OFFCURVE",
"272 345 CURVE SMOOTH",
"229 361 OFFCURVE",
"190 368 OFFCURVE",
"190 427 CURVE SMOOTH",
"190 456 OFFCURVE",
"193 467 OFFCURVE",
"210 467 CURVE SMOOTH",
"231 467 OFFCURVE",
"231 453 OFFCURVE",
"231 399 CURVE SMOOTH",
"231 373 LINE",
"284 373 OFFCURVE",
"337 373 OFFCURVE",
"390 373 CURVE",
"390 449 LINE SMOOTH",
"390 546 OFFCURVE",
"328 593 OFFCURVE",
"208 593 CURVE SMOOTH",
"68 593 OFFCURVE",
"25 548 OFFCURVE",
"25 422 CURVE SMOOTH",
"25 332 OFFCURVE",
"46 279 OFFCURVE",
"121 246 CURVE SMOOTH",
"201 211 OFFCURVE",
"228 211 OFFCURVE",
"228 147 CURVE SMOOTH",
"228 101 OFFCURVE",
"223 92 OFFCURVE",
"208 92 CURVE SMOOTH",
"194 92 OFFCURVE",
"187 101 OFFCURVE",
"187 155 CURVE SMOOTH",
"187 206 LINE",
"131 206 OFFCURVE",
"76 206 OFFCURVE",
"20 206 CURVE",
"20 169 LINE SMOOTH",
"20 26 OFFCURVE",
"83 -8 OFFCURVE",
"202 -8 CURVE SMOOTH"
);
}
);
};
layerId = "8A3706BD-364F-4FE3-9C2E-7E87DF0DB4CC";
paths = (
{
closed = 1;
nodes = (
"718 -8 OFFCURVE",
"794 36 OFFCURVE",
"794 171 CURVE SMOOTH",
"794 290 OFFCURVE",
"757 313 OFFCURVE",
"669 345 CURVE SMOOTH",
"626 361 OFFCURVE",
"587 368 OFFCURVE",
"587 427 CURVE SMOOTH",
"587 456 OFFCURVE",
"590 467 OFFCURVE",
"607 467 CURVE SMOOTH",
"628 467 OFFCURVE",
"628 453 OFFCURVE",
"628 399 CURVE SMOOTH",
"628 373 LINE",
"681 373 OFFCURVE",
"734 373 OFFCURVE",
"787 373 CURVE",
"787 449 LINE SMOOTH",
"787 546 OFFCURVE",
"725 593 OFFCURVE",
"605 593 CURVE SMOOTH",
"465 593 OFFCURVE",
"422 548 OFFCURVE",
"422 422 CURVE SMOOTH",
"422 332 OFFCURVE",
"443 279 OFFCURVE",
"518 246 CURVE SMOOTH",
"598 211 OFFCURVE",
"625 211 OFFCURVE",
"625 147 CURVE SMOOTH",
"625 101 OFFCURVE",
"620 92 OFFCURVE",
"605 92 CURVE SMOOTH",
"591 92 OFFCURVE",
"584 101 OFFCURVE",
"584 155 CURVE SMOOTH",
"584 206 LINE",
"528 206 OFFCURVE",
"473 206 OFFCURVE",
"417 206 CURVE",
"417 169 LINE SMOOTH",
"417 26 OFFCURVE",
"480 -8 OFFCURVE",
"599 -8 CURVE SMOOTH"
);
},
{
closed = 1;
nodes = (
"321 -8 OFFCURVE",
"397 36 OFFCURVE",
"397 171 CURVE SMOOTH",
"397 290 OFFCURVE",
"360 313 OFFCURVE",
"272 345 CURVE SMOOTH",
"229 361 OFFCURVE",
"190 368 OFFCURVE",
"190 427 CURVE SMOOTH",
"190 456 OFFCURVE",
"193 467 OFFCURVE",
"210 467 CURVE SMOOTH",
"231 467 OFFCURVE",
"231 453 OFFCURVE",
"231 399 CURVE SMOOTH",
"231 373 LINE",
"284 373 OFFCURVE",
"337 373 OFFCURVE",
"390 373 CURVE",
"390 449 LINE SMOOTH",
"390 546 OFFCURVE",
"328 593 OFFCURVE",
"208 593 CURVE SMOOTH",
"68 593 OFFCURVE",
"25 548 OFFCURVE",
"25 422 CURVE SMOOTH",
"25 332 OFFCURVE",
"46 279 OFFCURVE",
"121 246 CURVE SMOOTH",
"201 211 OFFCURVE",
"228 211 OFFCURVE",
"228 147 CURVE SMOOTH",
"228 101 OFFCURVE",
"223 92 OFFCURVE",
"208 92 CURVE SMOOTH",
"194 92 OFFCURVE",
"187 101 OFFCURVE",
"187 155 CURVE SMOOTH",
"187 206 LINE",
"131 206 OFFCURVE",
"76 206 OFFCURVE",
"20 206 CURVE",
"20 169 LINE SMOOTH",
"20 26 OFFCURVE",
"83 -8 OFFCURVE",
"202 -8 CURVE SMOOTH"
);
}
);
width = 814;
},
{
background = {
paths = (
{
closed = 1;
nodes = (
"626 -6 OFFCURVE",
"685 34 OFFCURVE",
"685 150 CURVE SMOOTH",
"685 247 OFFCURVE",
"648 274 OFFCURVE",
"557 310 CURVE SMOOTH",
"499 332 OFFCURVE",
"443 357 OFFCURVE",
"443 444 CURVE SMOOTH",
"443 529 OFFCURVE",
"475 572 OFFCURVE",
"551 572 CURVE SMOOTH",
"618 572 OFFCURVE",
"657 531 OFFCURVE",
"657 463 CURVE SMOOTH",
"657 404 LINE",
"665 404 OFFCURVE",
"672 404 OFFCURVE",
"679 404 CURVE",
"679 465 LINE SMOOTH",
"679 544 OFFCURVE",
"631 591 OFFCURVE",
"551 591 CURVE SMOOTH",
"458 591 OFFCURVE",
"421 539 OFFCURVE",
"421 443 CURVE SMOOTH",
"421 349 OFFCURVE",
"477 318 OFFCURVE",
"538 295 CURVE SMOOTH",
"615 265 OFFCURVE",
"662 247 OFFCURVE",
"662 149 CURVE SMOOTH",
"662 48 OFFCURVE",
"612 13 OFFCURVE",
"547 13 CURVE SMOOTH",
"484 13 OFFCURVE",
"440 48 OFFCURVE",
"440 166 CURVE SMOOTH",
"440 198 LINE",
"433 198 OFFCURVE",
"425 198 OFFCURVE",
"418 198 CURVE",
"418 166 LINE SMOOTH",
"418 36 OFFCURVE",
"468 -6 OFFCURVE",
"547 -6 CURVE SMOOTH"
);
},
{
closed = 1;
nodes = (
"281 -6 OFFCURVE",
"341 34 OFFCURVE",
"341 150 CURVE SMOOTH",
"341 247 OFFCURVE",
"304 274 OFFCURVE",
"213 310 CURVE SMOOTH",
"154 332 OFFCURVE",
"99 357 OFFCURVE",
"99 444 CURVE SMOOTH",
"99 529 OFFCURVE",
"131 572 OFFCURVE",
"206 572 CURVE SMOOTH",
"274 572 OFFCURVE",
"313 531 OFFCURVE",
"313 463 CURVE SMOOTH",
"313 404 LINE",
"320 404 OFFCURVE",
"327 404 OFFCURVE",
"335 404 CURVE",
"335 465 LINE SMOOTH",
"335 544 OFFCURVE",
"286 591 OFFCURVE",
"206 591 CURVE SMOOTH",
"114 591 OFFCURVE",
"76 539 OFFCURVE",
"76 443 CURVE SMOOTH",
"76 349 OFFCURVE",
"132 318 OFFCURVE",
"194 295 CURVE SMOOTH",
"271 265 OFFCURVE",
"317 247 OFFCURVE",
"317 149 CURVE SMOOTH",
"317 48 OFFCURVE",
"268 13 OFFCURVE",
"202 13 CURVE SMOOTH",
"140 13 OFFCURVE",
"96 48 OFFCURVE",
"96 166 CURVE SMOOTH",
"96 198 LINE",
"88 198 OFFCURVE",
"81 198 OFFCURVE",
"73 198 CURVE",
"73 166 LINE SMOOTH",
"73 36 OFFCURVE",
"124 -6 OFFCURVE",
"202 -6 CURVE SMOOTH"
);
}
);
};
layerId = "5AAFD18E-AEF5-43C3-A12E-1BAE6B19067F";
paths = (
{
closed = 1;
nodes = (
"626 -6 OFFCURVE",
"685 34 OFFCURVE",
"685 150 CURVE SMOOTH",
"685 247 OFFCURVE",
"648 274 OFFCURVE",
"557 310 CURVE SMOOTH",
"499 332 OFFCURVE",
"443 357 OFFCURVE",
"443 444 CURVE SMOOTH",
"443 529 OFFCURVE",
"475 572 OFFCURVE",
"551 572 CURVE SMOOTH",
"618 572 OFFCURVE",
"657 531 OFFCURVE",
"657 463 CURVE SMOOTH",
"657 404 LINE",
"665 404 OFFCURVE",
"672 404 OFFCURVE",
"679 404 CURVE",
"679 465 LINE SMOOTH",
"679 544 OFFCURVE",
"631 591 OFFCURVE",
"551 591 CURVE SMOOTH",
"458 591 OFFCURVE",
"421 539 OFFCURVE",
"421 443 CURVE SMOOTH",
"421 349 OFFCURVE",
"477 318 OFFCURVE",
"538 295 CURVE SMOOTH",
"615 265 OFFCURVE",
"662 247 OFFCURVE",
"662 149 CURVE SMOOTH",
"662 48 OFFCURVE",
"612 13 OFFCURVE",
"547 13 CURVE SMOOTH",
"484 13 OFFCURVE",
"440 48 OFFCURVE",
"440 166 CURVE SMOOTH",
"440 198 LINE",
"433 198 OFFCURVE",
"425 198 OFFCURVE",
"418 198 CURVE",
"418 166 LINE SMOOTH",
"418 36 OFFCURVE",
"468 -6 OFFCURVE",
"547 -6 CURVE SMOOTH"
);
},
{
closed = 1;
nodes = (
"281 -6 OFFCURVE",
"341 34 OFFCURVE",
"341 150 CURVE SMOOTH",
"341 247 OFFCURVE",
"304 274 OFFCURVE",
"213 310 CURVE SMOOTH",
"154 332 OFFCURVE",
"99 357 OFFCURVE",
"99 444 CURVE SMOOTH",
"99 529 OFFCURVE",
"131 572 OFFCURVE",
"206 572 CURVE SMOOTH",
"274 572 OFFCURVE",
"313 531 OFFCURVE",
"313 463 CURVE SMOOTH",
"313 404 LINE",
"320 404 OFFCURVE",
"327 404 OFFCURVE",
"335 404 CURVE",
"335 465 LINE SMOOTH",
"335 544 OFFCURVE",
"286 591 OFFCURVE",
"206 591 CURVE SMOOTH",
"114 591 OFFCURVE",
"76 539 OFFCURVE",
"76 443 CURVE SMOOTH",
"76 349 OFFCURVE",
"132 318 OFFCURVE",
"194 295 CURVE SMOOTH",
"271 265 OFFCURVE",
"317 247 OFFCURVE",
"317 149 CURVE SMOOTH",
"317 48 OFFCURVE",
"268 13 OFFCURVE",
"202 13 CURVE SMOOTH",
"140 13 OFFCURVE",
"96 48 OFFCURVE",
"96 166 CURVE SMOOTH",
"96 198 LINE",
"88 198 OFFCURVE",
"81 198 OFFCURVE",
"73 198 CURVE",
"73 166 LINE SMOOTH",
"73 36 OFFCURVE",
"124 -6 OFFCURVE",
"202 -6 CURVE SMOOTH"
);
}
);
width = 759;
}
);
unicode = 1E9E;
},
{
color = 4;
glyphname = T;
lastChange = "2021-05-28 00:56:46 +0000";
layers = (
{
anchors = (
{
name = bottom;
position = "{173, 0}";
},
{
name = center;
position = "{173, 296}";
},
{
name = top;
position = "{173, 591}";
}
);
background = {
paths = (
{
closed = 1;
nodes = (
"252 0 LINE",
"252 480 LINE",
"337 480 LINE",
"337 591 LINE",
"8 591 LINE",
"8 480 LINE",
"93 480 LINE",
"93 0 LINE"
);
}
);
};
layerId = "8A3706BD-364F-4FE3-9C2E-7E87DF0DB4CC";
paths = (
{
closed = 1;
nodes = (
"252 0 LINE",
"252 480 LINE",
"337 480 LINE",
"337 591 LINE",
"8 591 LINE",
"8 480 LINE",
"93 480 LINE",
"93 0 LINE"
);
}
);
width = 345;
},
{
anchors = (
{
name = bottom;
position = "{131, 0}";
},
{
name = center;
position = "{131, 296}";
},
{
name = top;
position = "{131, 591}";
}
);
background = {
paths = (
{
closed = 1;
nodes = (
"141 0 LINE",
"141 572 LINE",
"249 572 LINE",
"249 591 LINE",
"12 591 LINE",
"12 572 LINE",
"117 572 LINE",
"117 0 LINE"
);
}
);
};
layerId = "5AAFD18E-AEF5-43C3-A12E-1BAE6B19067F";
paths = (
{
closed = 1;
nodes = (
"141 0 LINE",
"141 572 LINE",
"249 572 LINE",
"249 591 LINE",
"12 591 LINE",
"12 572 LINE",
"117 572 LINE",
"117 0 LINE"
);
}
);
width = 261;
}
);
leftKerningGroup = T;
rightKerningGroup = T;
unicode = 0054;
},
{
glyphname = U;
lastChange = "2021-05-27 03:42:52 +0000";
layers = (
{
anchors = (
{
name = bottom;
position = "{201, 0}";
},
{
name = ogonek;
position = "{270, 0}";
},
{
name = top;
position = "{201, 591}";
},
{
name = topright;
position = "{356, 591}";
}
);
background = {
paths = (
{
closed = 1;
nodes = (
"307 -12 OFFCURVE",
"377 4 OFFCURVE",
"377 164 CURVE SMOOTH",
"377 591 LINE",
"218 591 LINE",
"218 115 LINE SMOOTH",
"218 92 OFFCURVE",
"211 85 OFFCURVE",
"201 85 CURVE SMOOTH",
"191 85 OFFCURVE",
"184 92 OFFCURVE",
"184 115 CURVE SMOOTH",
"184 591 LINE",
"25 591 LINE",
"25 163 LINE SMOOTH",
"25 4 OFFCURVE",
"95 -12 OFFCURVE",
"201 -12 CURVE SMOOTH"
);
}
);
};
layerId = "8A3706BD-364F-4FE3-9C2E-7E87DF0DB4CC";
paths = (
{
closed = 1;
nodes = (
"307 -12 OFFCURVE",
"377 4 OFFCURVE",
"377 164 CURVE SMOOTH",
"377 591 LINE",
"218 591 LINE",
"218 115 LINE SMOOTH",
"218 92 OFFCURVE",
"211 85 OFFCURVE",
"201 85 CURVE SMOOTH",
"191 85 OFFCURVE",
"184 92 OFFCURVE",
"184 115 CURVE SMOOTH",
"184 591 LINE",
"25 591 LINE",
"25 163 LINE SMOOTH",
"25 4 OFFCURVE",
"95 -12 OFFCURVE",
"201 -12 CURVE SMOOTH"
);
}
);
width = 402;
},
{
anchors = (
{
name = bottom;
position = "{209, 0}";
},
{
name = ogonek;
position = "{236, 0}";
},
{
name = top;
position = "{209, 591}";
},
{
name = topright;
position = "{346, 591}";
}
);
background = {
paths = (
{
closed = 1;
nodes = (
"282 -12 OFFCURVE",
"346 5 OFFCURVE",
"346 112 CURVE SMOOTH",
"346 591 LINE",
"323 591 LINE",
"323 113 LINE SMOOTH",
"323 23 OFFCURVE",
"268 6 OFFCURVE",
"209 6 CURVE SMOOTH",
"149 6 OFFCURVE",
"96 23 OFFCURVE",
"96 113 CURVE SMOOTH",
"96 591 LINE",
"72 591 LINE",
"72 112 LINE SMOOTH",
"72 5 OFFCURVE",
"137 -12 OFFCURVE",
"209 -12 CURVE SMOOTH"
);
}
);
};
layerId = "5AAFD18E-AEF5-43C3-A12E-1BAE6B19067F";
paths = (
{
closed = 1;
nodes = (
"282 -12 OFFCURVE",
"346 5 OFFCURVE",
"346 112 CURVE SMOOTH",
"346 591 LINE",
"323 591 LINE",
"323 113 LINE SMOOTH",
"323 23 OFFCURVE",
"268 6 OFFCURVE",
"209 6 CURVE SMOOTH",
"149 6 OFFCURVE",
"96 23 OFFCURVE",
"96 113 CURVE SMOOTH",
"96 591 LINE",
"72 591 LINE",
"72 112 LINE SMOOTH",
"72 5 OFFCURVE",
"137 -12 OFFCURVE",
"209 -12 CURVE SMOOTH"
);
}
);
width = 418;
}
);
leftKerningGroup = U;
leftMetricsKey = "=O+5";
rightKerningGroup = U;
rightMetricsKey = "=O+5";
unicode = 0055;
},
{
color = 4;
glyphname = V;
lastChange = "2021-05-26 04:14:52 +0000";
layers = (
{
background = {
paths = (
{
closed = 1;
nodes = (
"323 0 LINE",
"411 591 LINE",
"252 591 LINE",
"211 157 LINE",
"209 157 LINE",
"173 591 LINE",
"8 591 LINE",
"94 0 LINE"
);
}
);
};
layerId = "8A3706BD-364F-4FE3-9C2E-7E87DF0DB4CC";
paths = (
{
closed = 1;
nodes = (
"323 0 LINE",
"411 591 LINE",
"252 591 LINE",
"211 157 LINE",
"209 157 LINE",
"173 591 LINE",
"8 591 LINE",
"94 0 LINE"
);
}
);
width = 419;
},
{
background = {
paths = (
{
closed = 1;
nodes = (
"165 0 LINE",
"286 591 LINE",
"263 591 LINE",
"154 51 LINE",
"158 51 LINE",
"47 591 LINE",
"25 591 LINE",
"145 0 LINE"
);
}
);
};
layerId = "5AAFD18E-AEF5-43C3-A12E-1BAE6B19067F";
paths = (
{
closed = 1;
nodes = (
"165 0 LINE",
"286 591 LINE",
"263 591 LINE",
"154 51 LINE",
"158 51 LINE",
"47 591 LINE",
"25 591 LINE",
"145 0 LINE"
);
}
);
width = 310;
}
);
leftKerningGroup = V;
rightKerningGroup = V;
unicode = 0056;
},
{
color = 4;
glyphname = W;
lastChange = "2021-05-28 00:57:18 +0000";
layers = (
{
anchors = (
{
name = bottom;
position = "{319, 0}";
},
{
name = top;
position = "{319, 591}";
}
);
background = {
paths = (
{
closed = 1;
nodes = (
"280 0 LINE",
"318 258 LINE",
"357 0 LINE",
"543 0 LINE",
"629 591 LINE",
"464 591 LINE",
"423 200 LINE",
"385 591 LINE",
"252 591 LINE",
"214 200 LINE",
"173 591 LINE",
"8 591 LINE",
"94 0 LINE"
);
}
);
};
layerId = "8A3706BD-364F-4FE3-9C2E-7E87DF0DB4CC";
paths = (
{
closed = 1;
nodes = (
"280 0 LINE",
"318 258 LINE",
"357 0 LINE",
"543 0 LINE",
"629 591 LINE",
"464 591 LINE",
"423 200 LINE",
"385 591 LINE",
"252 591 LINE",
"214 200 LINE",
"173 591 LINE",
"8 591 LINE",
"94 0 LINE"
);
}
);
width = 637;
},
{
anchors = (
{
name = bottom;
position = "{257, 0}";
},
{
name = top;
position = "{257, 591}";
}
);
background = {
paths = (
{
closed = 1;
nodes = (
"150 0 LINE",
"257 526 LINE",
"365 0 LINE",
"392 0 LINE",
"488 591 LINE",
"466 591 LINE",
"375 43 LINE",
"265 591 LINE",
"248 591 LINE",
"136 42 LINE",
"47 591 LINE",
"25 591 LINE",
"121 0 LINE"
);
}
);
};
layerId = "5AAFD18E-AEF5-43C3-A12E-1BAE6B19067F";
paths = (
{
closed = 1;
nodes = (
"150 0 LINE",
"257 526 LINE",
"365 0 LINE",
"392 0 LINE",
"488 591 LINE",
"466 591 LINE",
"375 43 LINE",
"265 591 LINE",
"248 591 LINE",
"136 42 LINE",
"47 591 LINE",
"25 591 LINE",
"121 0 LINE"
);
}
);
width = 513;
}
);
leftKerningGroup = W;
rightKerningGroup = W;
unicode = 0057;
},
{
color = 4;
glyphname = X;
lastChange = "2021-05-28 00:57:41 +0000";
layers = (
{
background = {
paths = (
{
closed = 1;
nodes = (
"174 0 LINE",
"203 154 LINE",
"238 0 LINE",
"397 0 LINE",
"322 307 LINE",
"399 591 LINE",
"230 591 LINE",
"201 436 LINE",
"166 591 LINE",
"7 591 LINE",
"86 307 LINE",
"5 0 LINE"
);
}
);
};
layerId = "8A3706BD-364F-4FE3-9C2E-7E87DF0DB4CC";
paths = (
{
closed = 1;
nodes = (
"174 0 LINE",
"203 154 LINE",
"238 0 LINE",
"397 0 LINE",
"322 307 LINE",
"399 591 LINE",
"230 591 LINE",
"201 436 LINE",
"166 591 LINE",
"7 591 LINE",
"86 307 LINE",
"5 0 LINE"
);
}
);
width = 404;
},
{
background = {
paths = (
{
closed = 1;
nodes = (
"46 0 LINE",
"143 288 LINE",
"238 0 LINE",
"262 0 LINE",
"164 297 LINE",
"264 591 LINE",
"242 591 LINE",
"143 304 LINE",
"55 591 LINE",
"32 591 LINE",
"122 298 LINE",
"22 0 LINE"
);
}
);
};
layerId = "5AAFD18E-AEF5-43C3-A12E-1BAE6B19067F";
paths = (
{
closed = 1;
nodes = (
"46 0 LINE",
"143 288 LINE",
"238 0 LINE",
"262 0 LINE",
"164 297 LINE",
"264 591 LINE",
"242 591 LINE",
"143 304 LINE",
"55 591 LINE",
"32 591 LINE",
"122 298 LINE",
"22 0 LINE"
);
}
);
width = 286;
}
);
unicode = 0058;
},
{
color = 4;
glyphname = Y;
lastChange = "2021-05-28 00:57:28 +0000";
layers = (
{
anchors = (
{
name = bottom;
position = "{196, 0}";
},
{
name = top;
position = "{203, 591}";
},
{
name = topleft;
position = "{20, 591}";
}
);
background = {
paths = (
{
closed = 1;
nodes = (
"274 0 LINE",
"274 236 LINE",
"388 591 LINE",
"244 591 LINE",
"211 467 LINE",
"202 415 LINE",
"193 467 LINE",
"161 591 LINE",
"4 591 LINE",
"115 245 LINE",
"115 0 LINE"
);
}
);
};
layerId = "8A3706BD-364F-4FE3-9C2E-7E87DF0DB4CC";
paths = (
{
closed = 1;
nodes = (
"274 0 LINE",
"274 236 LINE",
"388 591 LINE",
"244 591 LINE",
"211 467 LINE",
"202 415 LINE",
"193 467 LINE",
"161 591 LINE",
"4 591 LINE",
"115 245 LINE",
"115 0 LINE"
);
}
);
width = 392;
},
{
anchors = (
{
name = bottom;
position = "{148, 0}";
},
{
name = top;
position = "{148, 591}";
},
{
name = topleft;
position = "{20, 591}";
}
);
background = {
paths = (
{
closed = 1;
nodes = (
"155 0 LINE",
"155 264 LINE",
"274 591 LINE",
"248 591 LINE",
"146 300 LINE",
"144 293 LINE",
"142 300 LINE",
"48 591 LINE",
"21 591 LINE",
"131 265 LINE",
"131 0 LINE"
);
}
);
};
layerId = "5AAFD18E-AEF5-43C3-A12E-1BAE6B19067F";
paths = (
{
closed = 1;
nodes = (
"155 0 LINE",
"155 264 LINE",
"274 591 LINE",
"248 591 LINE",
"146 300 LINE",
"144 293 LINE",
"142 300 LINE",
"48 591 LINE",
"21 591 LINE",
"131 265 LINE",
"131 0 LINE"
);
}
);
width = 296;
}
);
unicode = 0059;
},
{
color = 4;
glyphname = Z;
lastChange = "2021-05-28 00:57:37 +0000";
layers = (
{
anchors = (
{
name = bottom;
position = "{154, 0}";
},
{
name = center;
position = "{154, 296}";
},
{
name = top;
position = "{163, 591}";
}
);
background = {
paths = (
{
closed = 1;
nodes = (
"298 0 LINE",
"298 111 LINE",
"183 111 LINE",
"298 516 LINE",
"298 591 LINE",
"20 591 LINE",
"20 480 LINE",
"117 480 LINE",
"10 98 LINE",
"10 0 LINE"
);
}
);
};
layerId = "8A3706BD-364F-4FE3-9C2E-7E87DF0DB4CC";
paths = (
{
closed = 1;
nodes = (
"298 0 LINE",
"298 111 LINE",
"183 111 LINE",
"298 516 LINE",
"298 591 LINE",
"20 591 LINE",
"20 480 LINE",
"117 480 LINE",
"10 98 LINE",
"10 0 LINE"
);
}
);
width = 308;
},
{
anchors = (
{
name = bottom;
position = "{133, 0}";
},
{
name = center;
position = "{133, 296}";
},
{
name = top;
position = "{146, 591}";
}
);
background = {
paths = (
{
closed = 1;
nodes = (
"244 0 LINE",
"244 19 LINE",
"46 19 LINE",
"244 569 LINE",
"244 591 LINE",
"34 591 LINE",
"34 572 LINE",
"216 572 LINE",
"22 22 LINE",
"22 0 LINE"
);
}
);
};
layerId = "5AAFD18E-AEF5-43C3-A12E-1BAE6B19067F";
paths = (
{
closed = 1;
nodes = (
"244 0 LINE",
"244 19 LINE",
"46 19 LINE",
"244 569 LINE",
"244 591 LINE",
"34 591 LINE",
"34 572 LINE",
"216 572 LINE",
"22 22 LINE",
"22 0 LINE"
);
}
);
width = 265;
}
);
leftKerningGroup = Z;
rightKerningGroup = Z;
unicode = 005A;
},
{
color = 4;
glyphname = a;
lastChange = "2021-05-28 00:57:53 +0000";
layers = (
{
anchors = (
{
name = bottom;
position = "{189, 0}";
},
{
name = ogonek;
position = "{358, 0}";
},
{
name = top;
position = "{193, 495}";
}
);
background = {
paths = (
{
closed = 1;
nodes = (
"155 -8 OFFCURVE",
"195 16 OFFCURVE",
"202 49 CURVE",
"202 0 LINE",
"358 0 LINE",
"358 386 LINE SMOOTH",
"358 481 OFFCURVE",
"317 505 OFFCURVE",
"182 505 CURVE SMOOTH",
"45 505 OFFCURVE",
"24 452 OFFCURVE",
"24 378 CURVE SMOOTH",
"24 321 LINE",
"165 321 LINE",
"165 363 LINE SMOOTH",
"165 410 OFFCURVE",
"168 423 OFFCURVE",
"182 423 CURVE SMOOTH",
"196 423 OFFCURVE",
"199 412 OFFCURVE",
"199 397 CURVE SMOOTH",
"199 365 LINE SMOOTH",
"199 315 OFFCURVE",
"186 309 OFFCURVE",
"129 290 CURVE SMOOTH",
"44 263 OFFCURVE",
"14 229 OFFCURVE",
"14 170 CURVE SMOOTH",
"14 89 LINE SMOOTH",
"14 8 OFFCURVE",
"56 -8 OFFCURVE",
"112 -8 CURVE SMOOTH"
);
},
{
closed = 1;
nodes = (
"166 93 OFFCURVE",
"165 111 OFFCURVE",
"165 129 CURVE SMOOTH",
"165 190 LINE SMOOTH",
"166 207 OFFCURVE",
"169 214 OFFCURVE",
"178 224 CURVE SMOOTH",
"185 232 OFFCURVE",
"196 236 OFFCURVE",
"199 241 CURVE",
"199 140 LINE SMOOTH",
"199 106 OFFCURVE",
"198 93 OFFCURVE",
"182 93 CURVE SMOOTH"
);
}
);
};
layerId = "8A3706BD-364F-4FE3-9C2E-7E87DF0DB4CC";
paths = (
{
closed = 1;
nodes = (
"155 -8 OFFCURVE",
"195 16 OFFCURVE",
"202 49 CURVE",
"202 0 LINE",
"358 0 LINE",
"358 386 LINE SMOOTH",
"358 481 OFFCURVE",
"317 505 OFFCURVE",
"182 505 CURVE SMOOTH",
"45 505 OFFCURVE",
"24 452 OFFCURVE",
"24 378 CURVE SMOOTH",
"24 321 LINE",
"165 321 LINE",
"165 363 LINE SMOOTH",
"165 410 OFFCURVE",
"168 423 OFFCURVE",
"182 423 CURVE SMOOTH",
"196 423 OFFCURVE",
"199 412 OFFCURVE",
"199 397 CURVE SMOOTH",
"199 365 LINE SMOOTH",
"199 315 OFFCURVE",
"186 309 OFFCURVE",
"129 290 CURVE SMOOTH",
"44 263 OFFCURVE",
"14 229 OFFCURVE",
"14 170 CURVE SMOOTH",
"14 89 LINE SMOOTH",
"14 8 OFFCURVE",
"56 -8 OFFCURVE",
"112 -8 CURVE SMOOTH"
);
},
{
closed = 1;
nodes = (
"166 93 OFFCURVE",
"165 111 OFFCURVE",
"165 129 CURVE SMOOTH",
"165 190 LINE SMOOTH",
"165 207 OFFCURVE",
"169 214 OFFCURVE",
"178 224 CURVE SMOOTH",
"185 232 OFFCURVE",
"196 236 OFFCURVE",
"199 241 CURVE",
"199 140 LINE SMOOTH",
"199 106 OFFCURVE",
"198 93 OFFCURVE",
"182 93 CURVE SMOOTH"
);
}
);
width = 378;
},
{
anchors = (
{
name = bottom;
position = "{176, 0}";
},
{
name = ogonek;
position = "{297, 0}";
},
{
name = top;
position = "{182, 495}";
}
);
background = {
paths = (
{
closed = 1;
nodes = (
"205 -7 OFFCURVE",
"254 16 OFFCURVE",
"274 67 CURVE",
"275 0 LINE",
"298 0 LINE",
"298 403 LINE SMOOTH",
"298 457 OFFCURVE",
"287 505 OFFCURVE",
"182 505 CURVE SMOOTH",
"85 505 OFFCURVE",
"64 452 OFFCURVE",
"64 378 CURVE SMOOTH",
"64 334 LINE",
"86 334 LINE",
"86 376 LINE SMOOTH",
"86 446 OFFCURVE",
"103 487 OFFCURVE",
"182 487 CURVE SMOOTH",
"228 487 OFFCURVE",
"275 475 OFFCURVE",
"275 414 CURVE SMOOTH",
"275 397 LINE SMOOTH",
"275 343 OFFCURVE",
"235 323 OFFCURVE",
"164 285 CURVE SMOOTH",
"98 250 OFFCURVE",
"51 213 OFFCURVE",
"51 143 CURVE SMOOTH",
"51 108 LINE SMOOTH",
"51 -1 OFFCURVE",
"113 -7 OFFCURVE",
"155 -7 CURVE SMOOTH"
);
},
{
closed = 1;
nodes = (
"124 12 OFFCURVE",
"75 15 OFFCURVE",
"75 110 CURVE SMOOTH",
"75 140 LINE SMOOTH",
"75 204 OFFCURVE",
"110 233 OFFCURVE",
"170 267 CURVE SMOOTH",
"211 288 OFFCURVE",
"255 310 OFFCURVE",
"274 338 CURVE",
"274 157 LINE SMOOTH",
"274 70 OFFCURVE",
"238 12 OFFCURVE",
"159 12 CURVE SMOOTH"
);
}
);
};
layerId = "5AAFD18E-AEF5-43C3-A12E-1BAE6B19067F";
paths = (
{
closed = 1;
nodes = (
"205 -7 OFFCURVE",
"254 16 OFFCURVE",
"274 67 CURVE",
"275 0 LINE",
"298 0 LINE",
"298 403 LINE SMOOTH",
"298 457 OFFCURVE",
"287 505 OFFCURVE",
"182 505 CURVE SMOOTH",
"85 505 OFFCURVE",
"64 452 OFFCURVE",
"64 378 CURVE SMOOTH",
"64 334 LINE",
"86 334 LINE",
"86 376 LINE SMOOTH",
"86 446 OFFCURVE",
"103 487 OFFCURVE",
"182 487 CURVE SMOOTH",
"228 487 OFFCURVE",
"275 475 OFFCURVE",
"275 414 CURVE SMOOTH",
"275 397 LINE SMOOTH",
"275 343 OFFCURVE",
"235 323 OFFCURVE",
"164 285 CURVE SMOOTH",
"98 250 OFFCURVE",
"51 213 OFFCURVE",
"51 143 CURVE SMOOTH",
"51 108 LINE SMOOTH",
"51 -1 OFFCURVE",
"113 -7 OFFCURVE",
"155 -7 CURVE SMOOTH"
);
},
{
closed = 1;
nodes = (
"124 12 OFFCURVE",
"75 15 OFFCURVE",
"75 110 CURVE SMOOTH",
"75 140 LINE SMOOTH",
"75 204 OFFCURVE",
"110 233 OFFCURVE",
"170 267 CURVE SMOOTH",
"211 288 OFFCURVE",
"255 310 OFFCURVE",
"274 338 CURVE",
"274 157 LINE SMOOTH",
"274 70 OFFCURVE",
"238 12 OFFCURVE",
"159 12 CURVE SMOOTH"
);
}
);
width = 352;
}
);
leftKerningGroup = a;
rightKerningGroup = n;
rightMetricsKey = n;
unicode = 0061;
},
{
color = 4;
glyphname = ae;
lastChange = "2021-05-28 00:58:20 +0000";
layers = (
{
background = {
paths = (
{
closed = 1;
nodes = (
"158 -7 OFFCURVE",
"210 13 OFFCURVE",
"233 78 CURVE",
"328 0 LINE",
"328 386 LINE SMOOTH",
"328 464 OFFCURVE",
"294 505 OFFCURVE",
"182 505 CURVE SMOOTH",
"45 505 OFFCURVE",
"24 452 OFFCURVE",
"24 378 CURVE SMOOTH",
"24 321 LINE",
"165 321 LINE",
"165 363 LINE SMOOTH",
"165 410 OFFCURVE",
"168 423 OFFCURVE",
"182 423 CURVE SMOOTH",
"196 423 OFFCURVE",
"199 412 OFFCURVE",
"199 397 CURVE SMOOTH",
"199 365 LINE SMOOTH",
"199 311 OFFCURVE",
"183 308 OFFCURVE",
"125 289 CURVE SMOOTH",
"60 267 OFFCURVE",
"14 239 OFFCURVE",
"14 170 CURVE SMOOTH",
"14 89 LINE SMOOTH",
"14 -10 OFFCURVE",
"83 -7 OFFCURVE",
"112 -7 CURVE SMOOTH"
);
},
{
closed = 1;
nodes = (
"166 93 OFFCURVE",
"165 111 OFFCURVE",
"165 129 CURVE SMOOTH",
"165 190 LINE SMOOTH",
"165 207 OFFCURVE",
"169 214 OFFCURVE",
"178 224 CURVE SMOOTH",
"185 232 OFFCURVE",
"196 236 OFFCURVE",
"199 241 CURVE",
"199 140 LINE SMOOTH",
"199 106 OFFCURVE",
"198 93 OFFCURVE",
"182 93 CURVE SMOOTH"
);
},
{
closed = 1;
nodes = (
"481 -2 OFFCURVE",
"548 7 OFFCURVE",
"548 167 CURVE SMOOTH",
"548 188 LINE",
"392 188 LINE",
"392 98 LINE SMOOTH",
"392 75 OFFCURVE",
"385 68 OFFCURVE",
"375 68 CURVE SMOOTH",
"365 68 OFFCURVE",
"358 75 OFFCURVE",
"358 98 CURVE SMOOTH",
"358 233 LINE",
"548 233 LINE",
"548 373 LINE SMOOTH",
"548 472 OFFCURVE",
"486 503 OFFCURVE",
"375 503 CURVE SMOOTH",
"277 503 OFFCURVE",
"222 445 OFFCURVE",
"222 373 CURVE SMOOTH",
"222 166 LINE SMOOTH",
"222 7 OFFCURVE",
"281 -2 OFFCURVE",
"375 -2 CURVE SMOOTH"
);
},
{
closed = 1;
nodes = (
"358 393 LINE SMOOTH",
"358 416 OFFCURVE",
"365 423 OFFCURVE",
"375 423 CURVE SMOOTH",
"385 423 OFFCURVE",
"392 416 OFFCURVE",
"392 393 CURVE SMOOTH",
"392 300 LINE",
"358 300 LINE"
);
}
);
};
layerId = "8A3706BD-364F-4FE3-9C2E-7E87DF0DB4CC";
paths = (
{
closed = 1;
nodes = (
"158 -7 OFFCURVE",
"210 13 OFFCURVE",
"233 78 CURVE",
"328 0 LINE",
"328 386 LINE SMOOTH",
"328 464 OFFCURVE",
"294 505 OFFCURVE",
"182 505 CURVE SMOOTH",
"45 505 OFFCURVE",
"24 452 OFFCURVE",
"24 378 CURVE SMOOTH",
"24 321 LINE",
"165 321 LINE",
"165 363 LINE SMOOTH",
"165 410 OFFCURVE",
"168 423 OFFCURVE",
"182 423 CURVE SMOOTH",
"196 423 OFFCURVE",
"199 412 OFFCURVE",
"199 397 CURVE SMOOTH",
"199 365 LINE SMOOTH",
"199 311 OFFCURVE",
"183 308 OFFCURVE",
"125 289 CURVE SMOOTH",
"60 267 OFFCURVE",
"14 239 OFFCURVE",
"14 170 CURVE SMOOTH",
"14 89 LINE SMOOTH",
"14 -10 OFFCURVE",
"83 -7 OFFCURVE",
"112 -7 CURVE SMOOTH"
);
},
{
closed = 1;
nodes = (
"166 93 OFFCURVE",
"165 111 OFFCURVE",
"165 129 CURVE SMOOTH",
"165 190 LINE SMOOTH",
"165 207 OFFCURVE",
"169 214 OFFCURVE",
"178 224 CURVE SMOOTH",
"185 232 OFFCURVE",
"196 236 OFFCURVE",
"199 241 CURVE",
"199 140 LINE SMOOTH",
"199 106 OFFCURVE",
"198 93 OFFCURVE",
"182 93 CURVE SMOOTH"
);
},
{
closed = 1;
nodes = (
"481 -2 OFFCURVE",
"548 7 OFFCURVE",
"548 167 CURVE SMOOTH",
"548 188 LINE",
"392 188 LINE",
"392 98 LINE SMOOTH",
"392 75 OFFCURVE",
"385 68 OFFCURVE",
"375 68 CURVE SMOOTH",
"365 68 OFFCURVE",
"358 75 OFFCURVE",
"358 98 CURVE SMOOTH",
"358 233 LINE",
"548 233 LINE",
"548 373 LINE SMOOTH",
"548 472 OFFCURVE",
"486 503 OFFCURVE",
"375 503 CURVE SMOOTH",
"277 503 OFFCURVE",
"222 445 OFFCURVE",
"222 373 CURVE SMOOTH",
"222 166 LINE SMOOTH",
"222 7 OFFCURVE",
"281 -2 OFFCURVE",
"375 -2 CURVE SMOOTH"
);
},
{
closed = 1;
nodes = (
"358 393 LINE SMOOTH",
"358 416 OFFCURVE",
"365 423 OFFCURVE",
"375 423 CURVE SMOOTH",
"385 423 OFFCURVE",
"392 416 OFFCURVE",
"392 393 CURVE SMOOTH",
"392 300 LINE",
"358 300 LINE"
);
}
);
width = 563;
},
{
background = {
paths = (
{
closed = 1;
nodes = (
"214 -3 OFFCURVE",
"260 21 OFFCURVE",
"280 86 CURVE",
"293 58 LINE",
"293 403 LINE SMOOTH",
"293 456 OFFCURVE",
"282 505 OFFCURVE",
"182 505 CURVE SMOOTH",
"85 505 OFFCURVE",
"64 452 OFFCURVE",
"64 378 CURVE SMOOTH",
"64 334 LINE",
"86 334 LINE",
"86 376 LINE SMOOTH",
"86 446 OFFCURVE",
"103 487 OFFCURVE",
"182 487 CURVE SMOOTH",
"228 487 OFFCURVE",
"275 475 OFFCURVE",
"275 414 CURVE SMOOTH",
"275 386 LINE SMOOTH",
"275 350 OFFCURVE",
"233 321 OFFCURVE",
"156 280 CURVE SMOOTH",
"95 248 OFFCURVE",
"51 211 OFFCURVE",
"51 148 CURVE SMOOTH",
"51 113 LINE SMOOTH",
"51 3 OFFCURVE",
"114 -3 OFFCURVE",
"155 -3 CURVE SMOOTH"
);
},
{
closed = 1;
nodes = (
"124 16 OFFCURVE",
"75 19 OFFCURVE",
"75 114 CURVE SMOOTH",
"75 144 LINE SMOOTH",
"75 201 OFFCURVE",
"108 231 OFFCURVE",
"165 264 CURVE SMOOTH",
"209 288 OFFCURVE",
"255 309 OFFCURVE",
"274 338 CURVE",
"274 157 LINE SMOOTH",
"274 70 OFFCURVE",
"238 16 OFFCURVE",
"159 16 CURVE SMOOTH"
);
},
{
closed = 1;
nodes = (
"486 -2 OFFCURVE",
"515 25 OFFCURVE",
"515 128 CURVE SMOOTH",
"515 172 LINE",
"491 172 LINE",
"491 126 LINE SMOOTH",
"491 41 OFFCURVE",
"472 18 OFFCURVE",
"394 18 CURVE SMOOTH",
"316 18 OFFCURVE",
"299 39 OFFCURVE",
"299 119 CURVE SMOOTH",
"299 262 LINE",
"515 262 LINE",
"515 385 LINE SMOOTH",
"515 477 OFFCURVE",
"485 505 OFFCURVE",
"395 505 CURVE SMOOTH",
"305 505 OFFCURVE",
"275 476 OFFCURVE",
"275 385 CURVE SMOOTH",
"275 121 LINE SMOOTH",
"275 19 OFFCURVE",
"305 -2 OFFCURVE",
"395 -2 CURVE SMOOTH"
);
},
{
closed = 1;
nodes = (
"299 384 LINE SMOOTH",
"299 456 OFFCURVE",
"317 487 OFFCURVE",
"395 487 CURVE SMOOTH",
"473 487 OFFCURVE",
"491 456 OFFCURVE",
"491 384 CURVE SMOOTH",
"491 281 LINE",
"299 281 LINE"
);
}
);
};
layerId = "5AAFD18E-AEF5-43C3-A12E-1BAE6B19067F";
paths = (
{
closed = 1;
nodes = (
"214 -3 OFFCURVE",
"260 21 OFFCURVE",
"280 86 CURVE",
"293 58 LINE",
"293 403 LINE SMOOTH",
"293 456 OFFCURVE",
"282 505 OFFCURVE",
"182 505 CURVE SMOOTH",
"85 505 OFFCURVE",
"64 452 OFFCURVE",
"64 378 CURVE SMOOTH",
"64 334 LINE",
"86 334 LINE",
"86 376 LINE SMOOTH",
"86 446 OFFCURVE",
"103 487 OFFCURVE",
"182 487 CURVE SMOOTH",
"228 487 OFFCURVE",
"275 475 OFFCURVE",
"275 414 CURVE SMOOTH",
"275 386 LINE SMOOTH",
"275 350 OFFCURVE",
"233 321 OFFCURVE",
"156 280 CURVE SMOOTH",
"95 248 OFFCURVE",
"51 211 OFFCURVE",
"51 148 CURVE SMOOTH",
"51 113 LINE SMOOTH",
"51 3 OFFCURVE",
"114 -3 OFFCURVE",
"155 -3 CURVE SMOOTH"
);
},
{
closed = 1;
nodes = (
"124 16 OFFCURVE",
"75 19 OFFCURVE",
"75 114 CURVE SMOOTH",
"75 144 LINE SMOOTH",
"75 201 OFFCURVE",
"108 231 OFFCURVE",
"165 264 CURVE SMOOTH",
"209 288 OFFCURVE",
"255 309 OFFCURVE",
"274 338 CURVE",
"274 157 LINE SMOOTH",
"274 70 OFFCURVE",
"238 16 OFFCURVE",
"159 16 CURVE SMOOTH"
);
},
{
closed = 1;
nodes = (
"486 -2 OFFCURVE",
"515 25 OFFCURVE",
"515 128 CURVE SMOOTH",
"515 172 LINE",
"491 172 LINE",
"491 126 LINE SMOOTH",
"491 41 OFFCURVE",
"472 18 OFFCURVE",
"394 18 CURVE SMOOTH",
"316 18 OFFCURVE",
"299 39 OFFCURVE",
"299 119 CURVE SMOOTH",
"299 262 LINE",
"515 262 LINE",
"515 385 LINE SMOOTH",
"515 477 OFFCURVE",
"485 505 OFFCURVE",
"395 505 CURVE SMOOTH",
"305 505 OFFCURVE",
"275 476 OFFCURVE",
"275 385 CURVE SMOOTH",
"275 121 LINE SMOOTH",
"275 19 OFFCURVE",
"305 -2 OFFCURVE",
"395 -2 CURVE SMOOTH"
);
},
{
closed = 1;
nodes = (
"299 384 LINE SMOOTH",
"299 456 OFFCURVE",
"317 487 OFFCURVE",
"395 487 CURVE SMOOTH",
"473 487 OFFCURVE",
"491 456 OFFCURVE",
"491 384 CURVE SMOOTH",
"491 281 LINE",
"299 281 LINE"
);
}
);
width = 559;
}
);
leftMetricsKey = a;
rightMetricsKey = e;
unicode = 00E6;
},
{
color = 4;
glyphname = b;
lastChange = "2021-05-28 00:58:22 +0000";
layers = (
{
background = {
paths = (
{
closed = 1;
nodes = (
"311 -7 OFFCURVE",
"371 3 OFFCURVE",
"371 154 CURVE SMOOTH",
"371 389 LINE SMOOTH",
"371 487 OFFCURVE",
"312 503 OFFCURVE",
"263 503 CURVE SMOOTH",
"213 503 OFFCURVE",
"193 477 OFFCURVE",
"181 458 CURVE",
"181 630 LINE",
"25 630 LINE",
"25 0 LINE",
"135 0 LINE",
"138 43 LINE",
"146 26 OFFCURVE",
"177 -7 OFFCURVE",
"235 -7 CURVE SMOOTH"
);
},
{
closed = 1;
nodes = (
"185 98 OFFCURVE",
"181 110 OFFCURVE",
"181 133 CURVE SMOOTH",
"181 376 LINE SMOOTH",
"181 399 OFFCURVE",
"188 406 OFFCURVE",
"198 406 CURVE SMOOTH",
"208 406 OFFCURVE",
"215 399 OFFCURVE",
"215 376 CURVE SMOOTH",
"215 133 LINE SMOOTH",
"215 110 OFFCURVE",
"213 98 OFFCURVE",
"198 98 CURVE SMOOTH"
);
}
);
};
layerId = "8A3706BD-364F-4FE3-9C2E-7E87DF0DB4CC";
paths = (
{
closed = 1;
nodes = (
"311 -7 OFFCURVE",
"371 3 OFFCURVE",
"371 154 CURVE SMOOTH",
"371 389 LINE SMOOTH",
"371 487 OFFCURVE",
"312 503 OFFCURVE",
"263 503 CURVE SMOOTH",
"213 503 OFFCURVE",
"193 477 OFFCURVE",
"181 458 CURVE",
"181 630 LINE",
"25 630 LINE",
"25 0 LINE",
"135 0 LINE",
"138 43 LINE",
"146 26 OFFCURVE",
"177 -7 OFFCURVE",
"235 -7 CURVE SMOOTH"
);
},
{
closed = 1;
nodes = (
"185 98 OFFCURVE",
"181 110 OFFCURVE",
"181 133 CURVE SMOOTH",
"181 376 LINE SMOOTH",
"181 399 OFFCURVE",
"188 406 OFFCURVE",
"198 406 CURVE SMOOTH",
"208 406 OFFCURVE",
"215 399 OFFCURVE",
"215 376 CURVE SMOOTH",
"215 133 LINE SMOOTH",
"215 110 OFFCURVE",
"213 98 OFFCURVE",
"198 98 CURVE SMOOTH"
);
}
);
width = 391;
},
{
background = {
paths = (
{
closed = 1;
nodes = (
"298 -7 OFFCURVE",
"306 60 OFFCURVE",
"306 125 CURVE SMOOTH",
"306 374 LINE SMOOTH",
"306 437 OFFCURVE",
"298 503 OFFCURVE",
"187 503 CURVE SMOOTH",
"139 503 OFFCURVE",
"104 491 OFFCURVE",
"87 453 CURVE",
"87 630 LINE",
"64 630 LINE",
"64 0 LINE",
"82 0 LINE",
"84 47 LINE",
"97 16 OFFCURVE",
"121 -7 OFFCURVE",
"186 -7 CURVE SMOOTH"
);
},
{
closed = 1;
nodes = (
"84 11 OFFCURVE",
"88 95 OFFCURVE",
"88 161 CURVE SMOOTH",
"88 381 LINE SMOOTH",
"88 449 OFFCURVE",
"110 485 OFFCURVE",
"185 485 CURVE SMOOTH",
"286 485 OFFCURVE",
"282 422 OFFCURVE",
"282 365 CURVE SMOOTH",
"282 132 LINE SMOOTH",
"282 74 OFFCURVE",
"286 11 OFFCURVE",
"185 11 CURVE SMOOTH"
);
}
);
};
layerId = "5AAFD18E-AEF5-43C3-A12E-1BAE6B19067F";
paths = (
{
closed = 1;
nodes = (
"298 -7 OFFCURVE",
"306 60 OFFCURVE",
"306 125 CURVE SMOOTH",
"306 374 LINE SMOOTH",
"306 437 OFFCURVE",
"298 503 OFFCURVE",
"187 503 CURVE SMOOTH",
"139 503 OFFCURVE",
"104 491 OFFCURVE",
"87 453 CURVE",
"87 630 LINE",
"64 630 LINE",
"64 0 LINE",
"82 0 LINE",
"84 47 LINE",
"97 16 OFFCURVE",
"121 -7 OFFCURVE",
"186 -7 CURVE SMOOTH"
);
},
{
closed = 1;
nodes = (
"84 11 OFFCURVE",
"88 95 OFFCURVE",
"88 161 CURVE SMOOTH",
"88 381 LINE SMOOTH",
"88 449 OFFCURVE",
"110 485 OFFCURVE",
"185 485 CURVE SMOOTH",
"286 485 OFFCURVE",
"282 422 OFFCURVE",
"282 365 CURVE SMOOTH",
"282 132 LINE SMOOTH",
"282 74 OFFCURVE",
"286 11 OFFCURVE",
"185 11 CURVE SMOOTH"
);
}
);
width = 355;
}
);
leftKerningGroup = b;
leftMetricsKey = n;
rightKerningGroup = o;
rightMetricsKey = o;
unicode = 0062;
},
{
color = 4;
glyphname = c;
lastChange = "2021-05-28 00:58:31 +0000";
layers = (
{
anchors = (
{
name = bottom;
position = "{191, 0}";
},
{
name = top;
position = "{191, 495}";
}
);
background = {
paths = (
{
closed = 1;
nodes = (
"299 -8 OFFCURVE",
"366 11 OFFCURVE",
"366 167 CURVE SMOOTH",
"366 213 LINE",
"210 213 LINE",
"210 112 LINE SMOOTH",
"210 89 OFFCURVE",
"203 82 OFFCURVE",
"193 82 CURVE SMOOTH",
"183 82 OFFCURVE",
"176 89 OFFCURVE",
"176 112 CURVE SMOOTH",
"176 383 LINE SMOOTH",
"176 406 OFFCURVE",
"183 413 OFFCURVE",
"193 413 CURVE SMOOTH",
"203 413 OFFCURVE",
"210 406 OFFCURVE",
"210 383 CURVE SMOOTH",
"210 294 LINE",
"366 294 LINE",
"366 373 LINE SMOOTH",
"366 472 OFFCURVE",
"304 503 OFFCURVE",
"193 503 CURVE SMOOTH",
"82 503 OFFCURVE",
"20 470 OFFCURVE",
"20 363 CURVE SMOOTH",
"20 166 LINE SMOOTH",
"20 11 OFFCURVE",
"87 -8 OFFCURVE",
"193 -8 CURVE SMOOTH"
);
}
);
};
layerId = "8A3706BD-364F-4FE3-9C2E-7E87DF0DB4CC";
paths = (
{
closed = 1;
nodes = (
"299 -8 OFFCURVE",
"366 11 OFFCURVE",
"366 167 CURVE SMOOTH",
"366 213 LINE",
"210 213 LINE",
"210 112 LINE SMOOTH",
"210 89 OFFCURVE",
"203 82 OFFCURVE",
"193 82 CURVE SMOOTH",
"183 82 OFFCURVE",
"176 89 OFFCURVE",
"176 112 CURVE SMOOTH",
"176 383 LINE SMOOTH",
"176 406 OFFCURVE",
"183 413 OFFCURVE",
"193 413 CURVE SMOOTH",
"203 413 OFFCURVE",
"210 406 OFFCURVE",
"210 383 CURVE SMOOTH",
"210 294 LINE",
"366 294 LINE",
"366 373 LINE SMOOTH",
"366 472 OFFCURVE",
"304 503 OFFCURVE",
"193 503 CURVE SMOOTH",
"82 503 OFFCURVE",
"20 470 OFFCURVE",
"20 363 CURVE SMOOTH",
"20 166 LINE SMOOTH",
"20 11 OFFCURVE",
"87 -8 OFFCURVE",
"193 -8 CURVE SMOOTH"
);
}
);
width = 381;
},
{
anchors = (
{
name = bottom;
position = "{167, 0}";
},
{
name = top;
position = "{167, 495}";
}
);
background = {
paths = (
{
closed = 1;
nodes = (
"258 -9 OFFCURVE",
"289 23 OFFCURVE",
"289 121 CURVE SMOOTH",
"289 173 LINE",
"265 173 LINE",
"265 120 LINE SMOOTH",
"265 37 OFFCURVE",
"247 11 OFFCURVE",
"174 11 CURVE SMOOTH",
"91 11 OFFCURVE",
"73 40 OFFCURVE",
"73 120 CURVE SMOOTH",
"73 384 LINE SMOOTH",
"73 456 OFFCURVE",
"92 487 OFFCURVE",
"170 487 CURVE SMOOTH",
"248 487 OFFCURVE",
"265 456 OFFCURVE",
"265 384 CURVE SMOOTH",
"265 327 LINE",
"289 327 LINE",
"289 385 LINE SMOOTH",
"289 477 OFFCURVE",
"259 505 OFFCURVE",
"170 505 CURVE SMOOTH",
"79 505 OFFCURVE",
"49 477 OFFCURVE",
"49 384 CURVE SMOOTH",
"49 121 LINE SMOOTH",
"49 19 OFFCURVE",
"79 -9 OFFCURVE",
"175 -9 CURVE SMOOTH"
);
}
);
};
layerId = "5AAFD18E-AEF5-43C3-A12E-1BAE6B19067F";
paths = (
{
closed = 1;
nodes = (
"258 -9 OFFCURVE",
"289 23 OFFCURVE",
"289 121 CURVE SMOOTH",
"289 173 LINE",
"265 173 LINE",
"265 120 LINE SMOOTH",
"265 37 OFFCURVE",
"247 11 OFFCURVE",
"174 11 CURVE SMOOTH",
"91 11 OFFCURVE",
"73 40 OFFCURVE",
"73 120 CURVE SMOOTH",
"73 384 LINE SMOOTH",
"73 456 OFFCURVE",
"92 487 OFFCURVE",
"170 487 CURVE SMOOTH",
"248 487 OFFCURVE",
"265 456 OFFCURVE",
"265 384 CURVE SMOOTH",
"265 327 LINE",
"289 327 LINE",
"289 385 LINE SMOOTH",
"289 477 OFFCURVE",
"259 505 OFFCURVE",
"170 505 CURVE SMOOTH",
"79 505 OFFCURVE",
"49 477 OFFCURVE",
"49 384 CURVE SMOOTH",
"49 121 LINE SMOOTH",
"49 19 OFFCURVE",
"79 -9 OFFCURVE",
"175 -9 CURVE SMOOTH"
);
}
);
width = 333;
}
);
leftKerningGroup = o;
leftMetricsKey = o;
rightKerningGroup = c;
rightMetricsKey = "=o-5";
unicode = 0063;
},
{
color = 4;
glyphname = d;
lastChange = "2021-05-28 00:58:33 +0000";
layers = (
{
anchors = (
{
name = bottom;
position = "{196, 0}";
},
{
name = center;
position = "{196, 248}";
},
{
name = top;
position = "{196, 630}";
},
{
name = topright;
position = "{369, 477}";
}
);
background = {
paths = (
{
closed = 1;
nodes = (
"214 -7 OFFCURVE",
"237 33 OFFCURVE",
"245 47 CURVE",
"261 0 LINE",
"366 0 LINE",
"366 630 LINE",
"210 630 LINE",
"210 460 LINE",
"198 479 OFFCURVE",
"178 500 OFFCURVE",
"125 500 CURVE SMOOTH",
"91 500 OFFCURVE",
"20 489 OFFCURVE",
"20 391 CURVE SMOOTH",
"20 154 LINE SMOOTH",
"20 3 OFFCURVE",
"81 -7 OFFCURVE",
"156 -7 CURVE SMOOTH"
);
},
{
closed = 1;
nodes = (
"183 80 OFFCURVE",
"176 87 OFFCURVE",
"176 110 CURVE SMOOTH",
"176 378 LINE SMOOTH",
"176 401 OFFCURVE",
"183 408 OFFCURVE",
"193 408 CURVE SMOOTH",
"202 408 OFFCURVE",
"210 405 OFFCURVE",
"210 405 CURVE",
"210 110 LINE SMOOTH",
"210 87 OFFCURVE",
"203 80 OFFCURVE",
"193 80 CURVE SMOOTH"
);
}
);
};
layerId = "8A3706BD-364F-4FE3-9C2E-7E87DF0DB4CC";
paths = (
{
closed = 1;
nodes = (
"214 -7 OFFCURVE",
"237 33 OFFCURVE",
"245 47 CURVE",
"261 0 LINE",
"366 0 LINE",
"366 630 LINE",
"210 630 LINE",
"210 460 LINE",
"198 479 OFFCURVE",
"178 500 OFFCURVE",
"125 500 CURVE SMOOTH",
"91 500 OFFCURVE",
"20 489 OFFCURVE",
"20 391 CURVE SMOOTH",
"20 154 LINE SMOOTH",
"20 3 OFFCURVE",
"81 -7 OFFCURVE",
"156 -7 CURVE SMOOTH"
);
},
{
closed = 1;
nodes = (
"183 80 OFFCURVE",
"176 87 OFFCURVE",
"176 110 CURVE SMOOTH",
"176 378 LINE SMOOTH",
"176 401 OFFCURVE",
"183 408 OFFCURVE",
"193 408 CURVE SMOOTH",
"202 408 OFFCURVE",
"210 405 OFFCURVE",
"210 405 CURVE",
"210 110 LINE SMOOTH",
"210 87 OFFCURVE",
"203 80 OFFCURVE",
"193 80 CURVE SMOOTH"
);
}
);
width = 391;
},
{
anchors = (
{
name = bottom;
position = "{178, 0}";
},
{
name = center;
position = "{178, 248}";
},
{
name = top;
position = "{178, 630}";
},
{
name = topright;
position = "{313, 507}";
}
);
background = {
paths = (
{
closed = 1;
nodes = (
"234 -8 OFFCURVE",
"258 17 OFFCURVE",
"271 47 CURVE",
"274 0 LINE",
"291 0 LINE",
"291 630 LINE",
"268 630 LINE",
"268 464 LINE",
"253 488 OFFCURVE",
"223 505 OFFCURVE",
"168 505 CURVE SMOOTH",
"57 505 OFFCURVE",
"49 438 OFFCURVE",
"49 375 CURVE SMOOTH",
"49 125 LINE SMOOTH",
"49 57 OFFCURVE",
"57 -8 OFFCURVE",
"166 -8 CURVE SMOOTH"
);
},
{
closed = 1;
nodes = (
"71 10 OFFCURVE",
"73 73 OFFCURVE",
"73 131 CURVE SMOOTH",
"73 365 LINE SMOOTH",
"73 423 OFFCURVE",
"69 487 OFFCURVE",
"170 487 CURVE SMOOTH",
"239 487 OFFCURVE",
"261 448 OFFCURVE",
"267 422 CURVE",
"267 160 LINE SMOOTH",
"267 95 OFFCURVE",
"271 10 OFFCURVE",
"167 10 CURVE SMOOTH"
);
}
);
};
layerId = "5AAFD18E-AEF5-43C3-A12E-1BAE6B19067F";
paths = (
{
closed = 1;
nodes = (
"234 -8 OFFCURVE",
"258 17 OFFCURVE",
"271 47 CURVE",
"274 0 LINE",
"291 0 LINE",
"291 630 LINE",
"268 630 LINE",
"268 464 LINE",
"253 488 OFFCURVE",
"223 505 OFFCURVE",
"168 505 CURVE SMOOTH",
"57 505 OFFCURVE",
"49 438 OFFCURVE",
"49 375 CURVE SMOOTH",
"49 125 LINE SMOOTH",
"49 57 OFFCURVE",
"57 -8 OFFCURVE",
"166 -8 CURVE SMOOTH"
);
},
{
closed = 1;
nodes = (
"71 10 OFFCURVE",
"73 73 OFFCURVE",
"73 131 CURVE SMOOTH",
"73 365 LINE SMOOTH",
"73 423 OFFCURVE",
"69 487 OFFCURVE",
"170 487 CURVE SMOOTH",
"239 487 OFFCURVE",
"261 448 OFFCURVE",
"267 422 CURVE",
"267 160 LINE SMOOTH",
"267 95 OFFCURVE",
"271 10 OFFCURVE",
"167 10 CURVE SMOOTH"
);
}
);
width = 355;
}
);
leftKerningGroup = o;
leftMetricsKey = o;
rightKerningGroup = d;
unicode = 0064;
},
{
color = 4;
glyphname = eth;
lastChange = "2021-05-26 04:14:52 +0000";
layers = (
{
background = {
paths = (
{
closed = 1;
nodes = (
"300 -8 OFFCURVE",
"366 11 OFFCURVE",
"366 171 CURVE SMOOTH",
"366 358 LINE SMOOTH",
"366 590 OFFCURVE",
"334 662 OFFCURVE",
"172 662 CURVE SMOOTH",
"114 662 OFFCURVE",
"82 657 OFFCURVE",
"56 651 CURVE",
"56 553 LINE",
"93 559 OFFCURVE",
"115 562 OFFCURVE",
"143 562 CURVE SMOOTH",
"190 562 OFFCURVE",
"208 521 OFFCURVE",
"208 479 CURVE",
"197 479 OFFCURVE",
"187 479 OFFCURVE",
"176 479 CURVE SMOOTH",
"82 479 OFFCURVE",
"20 448 OFFCURVE",
"20 349 CURVE SMOOTH",
"20 170 LINE SMOOTH",
"20 11 OFFCURVE",
"86 -8 OFFCURVE",
"193 -8 CURVE SMOOTH"
);
},
{
closed = 1;
nodes = (
"182 72 OFFCURVE",
"176 79 OFFCURVE",
"176 102 CURVE SMOOTH",
"176 369 LINE SMOOTH",
"176 392 OFFCURVE",
"182 399 OFFCURVE",
"193 399 CURVE SMOOTH",
"204 399 OFFCURVE",
"210 392 OFFCURVE",
"210 369 CURVE SMOOTH",
"210 102 LINE SMOOTH",
"210 79 OFFCURVE",
"204 72 OFFCURVE",
"193 72 CURVE SMOOTH"
);
},
{
closed = 1;
nodes = (
"336 651 LINE",
"301 691 LINE",
"100 528 LINE",
"133 487 LINE"
);
}
);
};
layerId = "8A3706BD-364F-4FE3-9C2E-7E87DF0DB4CC";
paths = (
{
closed = 1;
nodes = (
"300 -8 OFFCURVE",
"366 11 OFFCURVE",
"366 171 CURVE SMOOTH",
"366 358 LINE SMOOTH",
"366 590 OFFCURVE",
"334 662 OFFCURVE",
"172 662 CURVE SMOOTH",
"114 662 OFFCURVE",
"82 657 OFFCURVE",
"56 651 CURVE",
"56 553 LINE",
"93 559 OFFCURVE",
"115 562 OFFCURVE",
"143 562 CURVE SMOOTH",
"190 562 OFFCURVE",
"208 521 OFFCURVE",
"208 479 CURVE",
"197 479 OFFCURVE",
"187 479 OFFCURVE",
"176 479 CURVE SMOOTH",
"82 479 OFFCURVE",
"20 448 OFFCURVE",
"20 349 CURVE SMOOTH",
"20 170 LINE SMOOTH",
"20 11 OFFCURVE",
"86 -8 OFFCURVE",
"193 -8 CURVE SMOOTH"
);
},
{
closed = 1;
nodes = (
"182 72 OFFCURVE",
"176 79 OFFCURVE",
"176 102 CURVE SMOOTH",
"176 369 LINE SMOOTH",
"176 392 OFFCURVE",
"182 399 OFFCURVE",
"193 399 CURVE SMOOTH",
"204 399 OFFCURVE",
"210 392 OFFCURVE",
"210 369 CURVE SMOOTH",
"210 102 LINE SMOOTH",
"210 79 OFFCURVE",
"204 72 OFFCURVE",
"193 72 CURVE SMOOTH"
);
},
{
closed = 1;
nodes = (
"336 651 LINE",
"301 691 LINE",
"100 528 LINE",
"133 487 LINE"
);
}
);
width = 386;
},
{
background = {
paths = (
{
closed = 1;
nodes = (
"276 -8 OFFCURVE",
"289 85 OFFCURVE",
"289 154 CURVE SMOOTH",
"289 410 LINE SMOOTH",
"289 577 OFFCURVE",
"286 663 OFFCURVE",
"156 663 CURVE SMOOTH",
"116 663 OFFCURVE",
"84 651 OFFCURVE",
"64 647 CURVE",
"64 629 LINE",
"83 634 OFFCURVE",
"116 643 OFFCURVE",
"155 643 CURVE SMOOTH",
"257 643 OFFCURVE",
"259 577 OFFCURVE",
"264 451 CURVE",
"248 485 OFFCURVE",
"202 495 OFFCURVE",
"162 495 CURVE SMOOTH",
"101 495 OFFCURVE",
"49 487 OFFCURVE",
"49 373 CURVE SMOOTH",
"49 109 LINE SMOOTH",
"49 -6 OFFCURVE",
"119 -8 OFFCURVE",
"164 -8 CURVE SMOOTH"
);
},
{
closed = 1;
nodes = (
"136 10 OFFCURVE",
"73 14 OFFCURVE",
"73 105 CURVE SMOOTH",
"73 368 LINE SMOOTH",
"73 431 OFFCURVE",
"80 478 OFFCURVE",
"163 478 CURVE SMOOTH",
"244 478 OFFCURVE",
"265 422 OFFCURVE",
"265 412 CURVE SMOOTH",
"265 152 LINE SMOOTH",
"265 89 OFFCURVE",
"251 10 OFFCURVE",
"164 10 CURVE SMOOTH"
);
},
{
closed = 1;
nodes = (
"296 676 LINE",
"284 692 LINE",
"131 561 LINE",
"144 546 LINE"
);
}
);
};
hints = (
{
horizontal = 1;
place = "{-8.735, 17.471}";
type = Stem;
},
{
horizontal = 1;
place = "{448.412, 16.5}";
type = Stem;
},
{
horizontal = 1;
place = "{625.059, 17.471}";
type = Stem;
},
{
place = "{48.529, 18.441}";
type = Stem;
},
{
place = "{308.647, 18.441}";
type = Stem;
},
{
place = "{305.735, 20.382}";
type = Stem;
},
{
horizontal = 1;
place = "{-7.765, 15.529}";
type = Stem;
},
{
horizontal = 1;
place = "{475.588, 14.559}";
type = Stem;
},
{
horizontal = 1;
place = "{627, 15.529}";
type = Stem;
},
{
place = "{48.529, 19.412}";
type = Stem;
},
{
place = "{259.147, 19.412}";
type = Stem;
},
{
horizontal = 1;
place = "{518.161, 15.016}";
type = Stem;
},
{
place = "{285.074, 157.27}";
type = Stem;
}
);
layerId = "5AAFD18E-AEF5-43C3-A12E-1BAE6B19067F";
paths = (
{
closed = 1;
nodes = (
"276 -8 OFFCURVE",
"289 85 OFFCURVE",
"289 154 CURVE SMOOTH",
"289 410 LINE SMOOTH",
"289 577 OFFCURVE",
"286 663 OFFCURVE",
"156 663 CURVE SMOOTH",
"116 663 OFFCURVE",
"84 651 OFFCURVE",
"64 647 CURVE",
"64 629 LINE",
"83 634 OFFCURVE",
"116 643 OFFCURVE",
"155 643 CURVE SMOOTH",
"257 643 OFFCURVE",
"259 577 OFFCURVE",
"264 451 CURVE",
"248 485 OFFCURVE",
"202 495 OFFCURVE",
"162 495 CURVE SMOOTH",
"101 495 OFFCURVE",
"49 487 OFFCURVE",
"49 373 CURVE SMOOTH",
"49 109 LINE SMOOTH",
"49 -6 OFFCURVE",
"119 -8 OFFCURVE",
"164 -8 CURVE SMOOTH"
);
},
{
closed = 1;
nodes = (
"136 10 OFFCURVE",
"73 14 OFFCURVE",
"73 105 CURVE SMOOTH",
"73 368 LINE SMOOTH",
"73 431 OFFCURVE",
"80 478 OFFCURVE",
"163 478 CURVE SMOOTH",
"244 478 OFFCURVE",
"265 422 OFFCURVE",
"265 412 CURVE SMOOTH",
"265 152 LINE SMOOTH",
"265 89 OFFCURVE",
"251 10 OFFCURVE",
"164 10 CURVE SMOOTH"
);
},
{
closed = 1;
nodes = (
"296 676 LINE",
"284 692 LINE",
"131 561 LINE",
"144 546 LINE"
);
}
);
width = 345;
}
);
leftMetricsKey = o;
note = eth;
rightKerningGroup = a;
rightMetricsKey = o;
unicode = 00F0;
},
{
color = 4;
glyphname = e;
lastChange = "2021-05-28 00:59:43 +0000";
layers = (
{
anchors = (
{
name = bottom;
position = "{191, 0}";
},
{
name = ogonek;
position = "{264, 0}";
},
{
name = top;
position = "{191, 495}";
}
);
background = {
paths = (
{
closed = 1;
nodes = (
"299 -8 OFFCURVE",
"366 11 OFFCURVE",
"366 171 CURVE SMOOTH",
"366 192 LINE",
"210 192 LINE",
"210 102 LINE SMOOTH",
"210 79 OFFCURVE",
"203 72 OFFCURVE",
"193 72 CURVE SMOOTH",
"183 72 OFFCURVE",
"176 79 OFFCURVE",
"176 102 CURVE SMOOTH",
"176 233 LINE",
"366 233 LINE",
"366 373 LINE SMOOTH",
"366 472 OFFCURVE",
"304 503 OFFCURVE",
"193 503 CURVE SMOOTH",
"82 503 OFFCURVE",
"20 472 OFFCURVE",
"20 373 CURVE SMOOTH",
"20 170 LINE SMOOTH",
"20 11 OFFCURVE",
"87 -8 OFFCURVE",
"193 -8 CURVE SMOOTH"
);
},
{
closed = 1;
nodes = (
"176 393 LINE SMOOTH",
"176 416 OFFCURVE",
"183 423 OFFCURVE",
"193 423 CURVE SMOOTH",
"203 423 OFFCURVE",
"210 416 OFFCURVE",
"210 393 CURVE SMOOTH",
"210 300 LINE",
"176 300 LINE"
);
}
);
};
layerId = "8A3706BD-364F-4FE3-9C2E-7E87DF0DB4CC";
paths = (
{
closed = 1;
nodes = (
"299 -8 OFFCURVE",
"366 11 OFFCURVE",
"366 171 CURVE SMOOTH",
"366 192 LINE",
"210 192 LINE",
"210 102 LINE SMOOTH",
"210 79 OFFCURVE",
"203 72 OFFCURVE",
"193 72 CURVE SMOOTH",
"183 72 OFFCURVE",
"176 79 OFFCURVE",
"176 102 CURVE SMOOTH",
"176 233 LINE",
"366 233 LINE",
"366 373 LINE SMOOTH",
"366 472 OFFCURVE",
"304 503 OFFCURVE",
"193 503 CURVE SMOOTH",
"82 503 OFFCURVE",
"20 472 OFFCURVE",
"20 373 CURVE SMOOTH",
"20 170 LINE SMOOTH",
"20 11 OFFCURVE",
"87 -8 OFFCURVE",
"193 -8 CURVE SMOOTH"
);
},
{
closed = 1;
nodes = (
"176 393 LINE SMOOTH",
"176 416 OFFCURVE",
"183 423 OFFCURVE",
"193 423 CURVE SMOOTH",
"203 423 OFFCURVE",
"210 416 OFFCURVE",
"210 393 CURVE SMOOTH",
"210 300 LINE",
"176 300 LINE"
);
}
);
width = 381;
},
{
anchors = (
{
name = bottom;
position = "{167, 0}";
},
{
name = ogonek;
position = "{201, 0}";
},
{
name = top;
position = "{167, 495}";
}
);
background = {
paths = (
{
closed = 1;
nodes = (
"259 -9 OFFCURVE",
"289 23 OFFCURVE",
"289 122 CURVE SMOOTH",
"289 173 LINE",
"265 173 LINE",
"265 119 LINE SMOOTH",
"265 36 OFFCURVE",
"247 11 OFFCURVE",
"174 11 CURVE SMOOTH",
"91 11 OFFCURVE",
"73 39 OFFCURVE",
"73 119 CURVE SMOOTH",
"73 262 LINE",
"289 262 LINE",
"289 385 LINE SMOOTH",
"289 475 OFFCURVE",
"259 503 OFFCURVE",
"170 503 CURVE SMOOTH",
"79 503 OFFCURVE",
"49 475 OFFCURVE",
"49 385 CURVE SMOOTH",
"49 121 LINE SMOOTH",
"49 19 OFFCURVE",
"79 -9 OFFCURVE",
"176 -9 CURVE SMOOTH"
);
},
{
closed = 1;
nodes = (
"73 384 LINE SMOOTH",
"73 455 OFFCURVE",
"92 485 OFFCURVE",
"170 485 CURVE SMOOTH",
"248 485 OFFCURVE",
"265 455 OFFCURVE",
"265 384 CURVE SMOOTH",
"265 281 LINE",
"73 281 LINE"
);
}
);
};
layerId = "5AAFD18E-AEF5-43C3-A12E-1BAE6B19067F";
paths = (
{
closed = 1;
nodes = (
"259 -9 OFFCURVE",
"289 23 OFFCURVE",
"289 122 CURVE SMOOTH",
"289 173 LINE",
"265 173 LINE",
"265 119 LINE SMOOTH",
"265 36 OFFCURVE",
"247 11 OFFCURVE",
"174 11 CURVE SMOOTH",
"91 11 OFFCURVE",
"73 39 OFFCURVE",
"73 119 CURVE SMOOTH",
"73 262 LINE",
"289 262 LINE",
"289 385 LINE SMOOTH",
"289 475 OFFCURVE",
"259 503 OFFCURVE",
"170 503 CURVE SMOOTH",
"79 503 OFFCURVE",
"49 475 OFFCURVE",
"49 385 CURVE SMOOTH",
"49 121 LINE SMOOTH",
"49 19 OFFCURVE",
"79 -9 OFFCURVE",
"176 -9 CURVE SMOOTH"
);
},
{
closed = 1;
nodes = (
"73 384 LINE SMOOTH",
"73 455 OFFCURVE",
"92 485 OFFCURVE",
"170 485 CURVE SMOOTH",
"248 485 OFFCURVE",
"265 455 OFFCURVE",
"265 384 CURVE SMOOTH",
"265 281 LINE",
"73 281 LINE"
);
}
);
width = 333;
}
);
leftKerningGroup = o;
leftMetricsKey = o;
rightKerningGroup = e;
rightMetricsKey = "=o-5";
unicode = 0065;
},
{
color = 4;
glyphname = f;
lastChange = "2021-05-28 01:00:07 +0000";
layers = (
{
background = {
paths = (
{
closed = 1;
nodes = (
"198 0 LINE",
"198 389 LINE",
"278 389 LINE",
"278 476 LINE",
"198 476 LINE",
"198 513 LINE SMOOTH",
"198 533 OFFCURVE",
"203 557 OFFCURVE",
"225 557 CURVE SMOOTH",
"251 557 OFFCURVE",
"278 554 OFFCURVE",
"278 554 CURVE",
"278 624 LINE",
"269 624 OFFCURVE",
"211 630 OFFCURVE",
"166 630 CURVE SMOOTH",
"111 630 OFFCURVE",
"42 624 OFFCURVE",
"42 512 CURVE SMOOTH",
"42 476 LINE",
"10 476 LINE",
"10 389 LINE",
"42 389 LINE",
"42 0 LINE"
);
}
);
};
layerId = "8A3706BD-364F-4FE3-9C2E-7E87DF0DB4CC";
paths = (
{
closed = 1;
nodes = (
"198 0 LINE",
"198 389 LINE",
"278 389 LINE",
"278 476 LINE",
"198 476 LINE",
"198 513 LINE SMOOTH",
"198 533 OFFCURVE",
"203 557 OFFCURVE",
"225 557 CURVE SMOOTH",
"251 557 OFFCURVE",
"278 554 OFFCURVE",
"278 554 CURVE",
"278 624 LINE",
"269 624 OFFCURVE",
"211 630 OFFCURVE",
"166 630 CURVE SMOOTH",
"111 630 OFFCURVE",
"42 624 OFFCURVE",
"42 512 CURVE SMOOTH",
"42 476 LINE",
"10 476 LINE",
"10 389 LINE",
"42 389 LINE",
"42 0 LINE"
);
}
);
width = 288;
},
{
background = {
paths = (
{
closed = 1;
nodes = (
"93 0 LINE",
"93 457 LINE",
"218 457 LINE",
"218 476 LINE",
"93 476 LINE",
"93 543 LINE SMOOTH",
"93 578 OFFCURVE",
"106 617 OFFCURVE",
"146 617 CURVE SMOOTH",
"180 617 OFFCURVE",
"218 612 OFFCURVE",
"218 612 CURVE",
"218 632 LINE",
"203 634 OFFCURVE",
"171 636 OFFCURVE",
"146 636 CURVE SMOOTH",
"94 636 OFFCURVE",
"70 603 OFFCURVE",
"70 546 CURVE SMOOTH",
"70 476 LINE",
"39 476 LINE",
"39 457 LINE",
"70 457 LINE",
"70 0 LINE"
);
}
);
};
layerId = "5AAFD18E-AEF5-43C3-A12E-1BAE6B19067F";
paths = (
{
closed = 1;
nodes = (
"93 0 LINE",
"93 457 LINE",
"218 457 LINE",
"218 476 LINE",
"93 476 LINE",
"93 543 LINE SMOOTH",
"93 578 OFFCURVE",
"106 617 OFFCURVE",
"146 617 CURVE SMOOTH",
"180 617 OFFCURVE",
"218 612 OFFCURVE",
"218 612 CURVE",
"218 632 LINE",
"203 634 OFFCURVE",
"171 636 OFFCURVE",
"146 636 CURVE SMOOTH",
"94 636 OFFCURVE",
"70 603 OFFCURVE",
"70 546 CURVE SMOOTH",
"70 476 LINE",
"39 476 LINE",
"39 457 LINE",
"70 457 LINE",
"70 0 LINE"
);
}
);
width = 218;
}
);
leftKerningGroup = f;
rightKerningGroup = f;
unicode = 0066;
},
{
color = 4;
glyphname = g;
lastChange = "2021-05-28 01:00:07 +0000";
layers = (
{
anchors = (
{
name = bottom;
position = "{196, -116}";
},
{
name = top;
position = "{196, 495}";
}
);
background = {
paths = (
{
closed = 1;
nodes = (
"364 -121 OFFCURVE",
"366 11 OFFCURVE",
"366 99 CURVE SMOOTH",
"366 495 LINE",
"226 495 LINE",
"210 460 LINE",
"197 499 OFFCURVE",
"166 500 OFFCURVE",
"125 500 CURVE SMOOTH",
"91 500 OFFCURVE",
"20 489 OFFCURVE",
"20 391 CURVE SMOOTH",
"20 196 LINE SMOOTH",
"20 45 OFFCURVE",
"62 31 OFFCURVE",
"122 31 CURVE SMOOTH",
"195 31 OFFCURVE",
"202 75 OFFCURVE",
"210 89 CURVE",
"210 16 LINE SMOOTH",
"210 -26 OFFCURVE",
"175 -35 OFFCURVE",
"144 -35 CURVE SMOOTH",
"120 -35 OFFCURVE",
"74 -32 OFFCURVE",
"54 -28 CURVE",
"54 -109 LINE",
"62 -112 OFFCURVE",
"156 -121 OFFCURVE",
"202 -121 CURVE SMOOTH"
);
},
{
closed = 1;
nodes = (
"183 122 OFFCURVE",
"176 129 OFFCURVE",
"176 153 CURVE SMOOTH",
"176 378 LINE SMOOTH",
"176 401 OFFCURVE",
"183 408 OFFCURVE",
"193 408 CURVE SMOOTH",
"202 408 OFFCURVE",
"206 406 OFFCURVE",
"210 405 CURVE",
"210 152 LINE SMOOTH",
"210 129 OFFCURVE",
"203 122 OFFCURVE",
"193 122 CURVE SMOOTH"
);
}
);
};
layerId = "8A3706BD-364F-4FE3-9C2E-7E87DF0DB4CC";
paths = (
{
closed = 1;
nodes = (
"364 -121 OFFCURVE",
"366 11 OFFCURVE",
"366 99 CURVE SMOOTH",
"366 495 LINE",
"226 495 LINE",
"210 460 LINE",
"197 499 OFFCURVE",
"166 500 OFFCURVE",
"125 500 CURVE SMOOTH",
"91 500 OFFCURVE",
"20 489 OFFCURVE",
"20 391 CURVE SMOOTH",
"20 196 LINE SMOOTH",
"20 45 OFFCURVE",
"62 31 OFFCURVE",
"122 31 CURVE SMOOTH",
"195 31 OFFCURVE",
"202 75 OFFCURVE",
"210 89 CURVE",
"210 16 LINE SMOOTH",
"210 -26 OFFCURVE",
"175 -35 OFFCURVE",
"144 -35 CURVE SMOOTH",
"120 -35 OFFCURVE",
"74 -32 OFFCURVE",
"54 -28 CURVE",
"54 -109 LINE",
"62 -112 OFFCURVE",
"156 -121 OFFCURVE",
"202 -121 CURVE SMOOTH"
);
},
{
closed = 1;
nodes = (
"183 122 OFFCURVE",
"176 129 OFFCURVE",
"176 153 CURVE SMOOTH",
"176 378 LINE SMOOTH",
"176 401 OFFCURVE",
"183 408 OFFCURVE",
"193 408 CURVE SMOOTH",
"202 408 OFFCURVE",
"206 406 OFFCURVE",
"210 405 CURVE",
"210 152 LINE SMOOTH",
"210 129 OFFCURVE",
"203 122 OFFCURVE",
"193 122 CURVE SMOOTH"
);
}
);
width = 391;
},
{
anchors = (
{
name = bottom;
position = "{172, -116}";
},
{
name = top;
position = "{176, 495}";
}
);
background = {
paths = (
{
closed = 1;
nodes = (
"218 -116 OFFCURVE",
"289 -91 OFFCURVE",
"289 19 CURVE SMOOTH",
"289 492 LINE",
"270 492 LINE",
"266 452 LINE",
"253 491 OFFCURVE",
"202 502 OFFCURVE",
"161 502 CURVE SMOOTH",
"92 502 OFFCURVE",
"49 486 OFFCURVE",
"49 381 CURVE SMOOTH",
"49 137 LINE SMOOTH",
"49 22 OFFCURVE",
"119 20 OFFCURVE",
"162 20 CURVE SMOOTH",
"212 20 OFFCURVE",
"252 40 OFFCURVE",
"266 89 CURVE",
"266 23 LINE SMOOTH",
"266 -102 OFFCURVE",
"181 -98 OFFCURVE",
"150 -98 CURVE SMOOTH",
"126 -98 OFFCURVE",
"95 -93 OFFCURVE",
"81 -91 CURVE",
"81 -109 LINE",
"89 -111 OFFCURVE",
"128 -116 OFFCURVE",
"153 -116 CURVE SMOOTH"
);
},
{
closed = 1;
nodes = (
"137 39 OFFCURVE",
"73 43 OFFCURVE",
"73 134 CURVE SMOOTH",
"73 380 LINE SMOOTH",
"73 460 OFFCURVE",
"98 485 OFFCURVE",
"163 485 CURVE SMOOTH",
"233 485 OFFCURVE",
"256 446 OFFCURVE",
"265 420 CURVE",
"265 181 LINE SMOOTH",
"265 117 OFFCURVE",
"251 39 OFFCURVE",
"164 39 CURVE SMOOTH"
);
}
);
};
layerId = "5AAFD18E-AEF5-43C3-A12E-1BAE6B19067F";
paths = (
{
closed = 1;
nodes = (
"218 -116 OFFCURVE",
"289 -91 OFFCURVE",
"289 19 CURVE SMOOTH",
"289 492 LINE",
"270 492 LINE",
"266 452 LINE",
"253 491 OFFCURVE",
"202 502 OFFCURVE",
"161 502 CURVE SMOOTH",
"92 502 OFFCURVE",
"49 486 OFFCURVE",
"49 381 CURVE SMOOTH",
"49 137 LINE SMOOTH",
"49 22 OFFCURVE",
"119 20 OFFCURVE",
"162 20 CURVE SMOOTH",
"212 20 OFFCURVE",
"252 40 OFFCURVE",
"266 89 CURVE",
"266 23 LINE SMOOTH",
"266 -102 OFFCURVE",
"181 -98 OFFCURVE",
"150 -98 CURVE SMOOTH",
"126 -98 OFFCURVE",
"95 -93 OFFCURVE",
"81 -91 CURVE",
"81 -109 LINE",
"89 -111 OFFCURVE",
"128 -116 OFFCURVE",
"153 -116 CURVE SMOOTH"
);
},
{
closed = 1;
nodes = (
"137 39 OFFCURVE",
"73 43 OFFCURVE",
"73 134 CURVE SMOOTH",
"73 380 LINE SMOOTH",
"73 460 OFFCURVE",
"98 485 OFFCURVE",
"163 485 CURVE SMOOTH",
"233 485 OFFCURVE",
"256 446 OFFCURVE",
"265 420 CURVE",
"265 181 LINE SMOOTH",
"265 117 OFFCURVE",
"251 39 OFFCURVE",
"164 39 CURVE SMOOTH"
);
}
);
width = 343;
}
);
leftKerningGroup = o;
leftMetricsKey = o;
rightKerningGroup = d;
rightMetricsKey = "=o+5";
unicode = 0067;
},
{
color = 4;
glyphname = h;
lastChange = "2021-05-28 01:00:37 +0000";
layers = (
{
background = {
paths = (
{
closed = 1;
nodes = (
"181 0 LINE",
"181 370 LINE SMOOTH",
"181 375 OFFCURVE",
"187 378 OFFCURVE",
"196 378 CURVE SMOOTH",
"209 378 OFFCURVE",
"215 368 OFFCURVE",
"215 350 CURVE SMOOTH",
"215 0 LINE",
"371 0 LINE",
"371 371 LINE SMOOTH",
"371 457 OFFCURVE",
"349 502 OFFCURVE",
"261 502 CURVE SMOOTH",
"218 502 OFFCURVE",
"177 477 OFFCURVE",
"170 430 CURVE",
"170 630 LINE",
"25 630 LINE",
"25 0 LINE"
);
}
);
};
layerId = "8A3706BD-364F-4FE3-9C2E-7E87DF0DB4CC";
paths = (
{
closed = 1;
nodes = (
"181 0 LINE",
"181 370 LINE SMOOTH",
"181 375 OFFCURVE",
"187 378 OFFCURVE",
"196 378 CURVE SMOOTH",
"209 378 OFFCURVE",
"215 368 OFFCURVE",
"215 350 CURVE SMOOTH",
"215 0 LINE",
"371 0 LINE",
"371 371 LINE SMOOTH",
"371 457 OFFCURVE",
"349 502 OFFCURVE",
"261 502 CURVE SMOOTH",
"218 502 OFFCURVE",
"177 477 OFFCURVE",
"170 430 CURVE",
"170 630 LINE",
"25 630 LINE",
"25 0 LINE"
);
}
);
width = 391;
},
{
background = {
paths = (
{
closed = 1;
nodes = (
"88 0 LINE",
"88 420 LINE SMOOTH",
"91 441 OFFCURVE",
"115 484 OFFCURVE",
"186 484 CURVE SMOOTH",
"287 484 OFFCURVE",
"283 411 OFFCURVE",
"283 363 CURVE SMOOTH",
"283 0 LINE",
"307 0 LINE",
"307 372 LINE SMOOTH",
"307 435 OFFCURVE",
"300 503 OFFCURVE",
"188 503 CURVE SMOOTH",
"136 503 OFFCURVE",
"105 487 OFFCURVE",
"88 462 CURVE",
"88 630 LINE",
"64 630 LINE",
"64 0 LINE"
);
}
);
};
layerId = "5AAFD18E-AEF5-43C3-A12E-1BAE6B19067F";
paths = (
{
closed = 1;
nodes = (
"88 0 LINE",
"88 420 LINE SMOOTH",
"91 441 OFFCURVE",
"115 484 OFFCURVE",
"186 484 CURVE SMOOTH",
"287 484 OFFCURVE",
"283 411 OFFCURVE",
"283 363 CURVE SMOOTH",
"283 0 LINE",
"307 0 LINE",
"307 372 LINE SMOOTH",
"307 435 OFFCURVE",
"300 503 OFFCURVE",
"188 503 CURVE SMOOTH",
"136 503 OFFCURVE",
"105 487 OFFCURVE",
"88 462 CURVE",
"88 630 LINE",
"64 630 LINE",
"64 0 LINE"
);
}
);
width = 361;
}
);
leftKerningGroup = b;
leftMetricsKey = n;
rightKerningGroup = n;
rightMetricsKey = n;
unicode = 0068;
},
{
color = 4;
glyphname = i;
lastChange = "2021-05-28 01:00:18 +0000";
layers = (
{
anchors = (
{
name = bottom;
position = "{103, 0}";
}
);
background = {
paths = (
{
closed = 1;
nodes = (
"181 0 LINE",
"181 495 LINE",
"25 495 LINE",
"25 0 LINE"
);
},
{
closed = 1;
nodes = (
"145 548 OFFCURVE",
"180 581 OFFCURVE",
"180 621 CURVE SMOOTH",
"180 662 OFFCURVE",
"145 695 OFFCURVE",
"102 695 CURVE SMOOTH",
"60 695 OFFCURVE",
"26 662 OFFCURVE",
"26 621 CURVE SMOOTH",
"26 581 OFFCURVE",
"60 548 OFFCURVE",
"102 548 CURVE SMOOTH"
);
}
);
};
components = (
{
name = idotless;
},
{
name = dotaccentcomb;
transform = "{1, 0, 0, 1, 26, 0}";
}
);
layerId = "8A3706BD-364F-4FE3-9C2E-7E87DF0DB4CC";
width = 206;
},
{
anchors = (
{
name = bottom;
position = "{85, 0}";
}
);
background = {
paths = (
{
closed = 1;
nodes = (
"93 0 LINE",
"93 495 LINE",
"70 495 LINE",
"70 0 LINE"
);
},
{
closed = 1;
nodes = (
"96 617 OFFCURVE",
"105 626 OFFCURVE",
"105 637 CURVE SMOOTH",
"105 646 OFFCURVE",
"96 655 OFFCURVE",
"85 655 CURVE SMOOTH",
"73 655 OFFCURVE",
"64 646 OFFCURVE",
"64 637 CURVE SMOOTH",
"64 626 OFFCURVE",
"73 617 OFFCURVE",
"85 617 CURVE SMOOTH"
);
}
);
};
components = (
{
name = idotless;
},
{
name = dotaccentcomb;
transform = "{1, 0, 0, 1, 54, 0}";
}
);
layerId = "5AAFD18E-AEF5-43C3-A12E-1BAE6B19067F";
width = 151;
}
);
leftMetricsKey = n;
rightMetricsKey = d;
unicode = 0069;
},
{
color = 4;
glyphname = idotless;
lastChange = "2021-05-28 01:00:18 +0000";
layers = (
{
anchors = (
{
name = bottom;
position = "{103, 0}";
},
{
name = ogonek;
position = "{181, 0}";
},
{
name = top;
position = "{103, 495}";
}
);
background = {
paths = (
{
closed = 1;
nodes = (
"181 0 LINE",
"181 495 LINE",
"25 495 LINE",
"25 0 LINE"
);
}
);
};
layerId = "8A3706BD-364F-4FE3-9C2E-7E87DF0DB4CC";
paths = (
{
closed = 1;
nodes = (
"181 0 LINE",
"181 495 LINE",
"25 495 LINE",
"25 0 LINE"
);
}
);
width = 206;
},
{
anchors = (
{
name = bottom;
position = "{76, 0}";
},
{
name = ogonek;
position = "{87, 0}";
},
{
name = top;
position = "{76, 495}";
}
);
background = {
paths = (
{
closed = 1;
nodes = (
"87 0 LINE",
"87 495 LINE",
"64 495 LINE",
"64 0 LINE"
);
}
);
};
layerId = "5AAFD18E-AEF5-43C3-A12E-1BAE6B19067F";
paths = (
{
closed = 1;
nodes = (
"87 0 LINE",
"87 495 LINE",
"64 495 LINE",
"64 0 LINE"
);
}
);
width = 151;
}
);
leftMetricsKey = n;
unicode = 0131;
},
{
color = 4;
glyphname = j;
lastChange = "2021-05-28 01:00:35 +0000";
layers = (
{
background = {
paths = (
{
closed = 1;
nodes = (
"87 -123 OFFCURVE",
"185 -90 OFFCURVE",
"185 69 CURVE SMOOTH",
"185 495 LINE",
"29 495 LINE",
"29 20 LINE SMOOTH",
"29 0 OFFCURVE",
"15 -23 OFFCURVE",
"-15 -26 CURVE SMOOTH",
"-25 -27 OFFCURVE",
"-48 -28 OFFCURVE",
"-62 -28 CURVE",
"-62 -109 LINE",
"-55 -110 OFFCURVE",
"-27 -112 OFFCURVE",
"-16 -113 CURVE SMOOTH"
);
},
{
closed = 1;
nodes = (
"149 548 OFFCURVE",
"184 581 OFFCURVE",
"184 621 CURVE SMOOTH",
"184 662 OFFCURVE",
"149 695 OFFCURVE",
"106 695 CURVE SMOOTH",
"64 695 OFFCURVE",
"30 662 OFFCURVE",
"30 621 CURVE SMOOTH",
"30 581 OFFCURVE",
"64 548 OFFCURVE",
"106 548 CURVE SMOOTH"
);
}
);
};
components = (
{
name = jdotless;
},
{
name = dotaccentcomb;
transform = "{1, 0, 0, 1, 24, 0}";
}
);
layerId = "8A3706BD-364F-4FE3-9C2E-7E87DF0DB4CC";
width = 202;
},
{
background = {
paths = (
{
closed = 1;
nodes = (
"41 -110 OFFCURVE",
"92 -101 OFFCURVE",
"92 -23 CURVE SMOOTH",
"92 495 LINE",
"69 495 LINE",
"69 -22 LINE SMOOTH",
"69 -83 OFFCURVE",
"34 -94 OFFCURVE",
"-21 -94 CURVE SMOOTH",
"-30 -94 OFFCURVE",
"-41 -93 OFFCURVE",
"-43 -92 CURVE",
"-43 -108 LINE",
"-40 -109 OFFCURVE",
"-29 -110 OFFCURVE",
"-23 -110 CURVE SMOOTH"
);
},
{
closed = 1;
nodes = (
"95 617 OFFCURVE",
"104 626 OFFCURVE",
"104 637 CURVE SMOOTH",
"104 646 OFFCURVE",
"95 655 OFFCURVE",
"84 655 CURVE SMOOTH",
"72 655 OFFCURVE",
"63 646 OFFCURVE",
"63 637 CURVE SMOOTH",
"63 626 OFFCURVE",
"72 617 OFFCURVE",
"84 617 CURVE SMOOTH"
);
}
);
};
components = (
{
name = jdotless;
},
{
name = dotaccentcomb;
transform = "{1, 0, 0, 1, 54, 0}";
}
);
layerId = "5AAFD18E-AEF5-43C3-A12E-1BAE6B19067F";
width = 151;
}
);
leftKerningGroup = j;
rightKerningGroup = j;
rightMetricsKey = "=o+5";
unicode = 006A;
},
{
color = 4;
glyphname = jdotless;
lastChange = "2021-05-28 01:00:35 +0000";
layers = (
{
anchors = (
{
name = bottom;
position = "{101, -116}";
},
{
name = top;
position = "{101, 495}";
}
);
background = {
paths = (
{
closed = 1;
nodes = (
"83 -123 OFFCURVE",
"181 -90 OFFCURVE",
"181 69 CURVE SMOOTH",
"181 495 LINE",
"25 495 LINE",
"25 20 LINE SMOOTH",
"25 0 OFFCURVE",
"11 -23 OFFCURVE",
"-19 -26 CURVE SMOOTH",
"-29 -27 OFFCURVE",
"-52 -28 OFFCURVE",
"-66 -28 CURVE",
"-66 -109 LINE",
"-59 -110 OFFCURVE",
"-31 -112 OFFCURVE",
"-20 -113 CURVE SMOOTH"
);
},
{
closed = 1;
nodes = (
"145 548 OFFCURVE",
"180 581 OFFCURVE",
"180 621 CURVE SMOOTH",
"180 662 OFFCURVE",
"145 695 OFFCURVE",
"102 695 CURVE SMOOTH",
"60 695 OFFCURVE",
"26 662 OFFCURVE",
"26 621 CURVE SMOOTH",
"26 581 OFFCURVE",
"60 548 OFFCURVE",
"102 548 CURVE SMOOTH"
);
}
);
};
layerId = "8A3706BD-364F-4FE3-9C2E-7E87DF0DB4CC";
paths = (
{
closed = 1;
nodes = (
"83 -123 OFFCURVE",
"181 -90 OFFCURVE",
"181 69 CURVE SMOOTH",
"181 495 LINE",
"25 495 LINE",
"25 20 LINE SMOOTH",
"25 0 OFFCURVE",
"11 -23 OFFCURVE",
"-19 -26 CURVE SMOOTH",
"-29 -27 OFFCURVE",
"-52 -28 OFFCURVE",
"-66 -28 CURVE",
"-66 -109 LINE",
"-59 -110 OFFCURVE",
"-31 -112 OFFCURVE",
"-20 -113 CURVE SMOOTH"
);
}
);
width = 202;
},
{
anchors = (
{
name = bottom;
position = "{76, -116}";
},
{
name = top;
position = "{76, 495}";
}
);
background = {
paths = (
{
closed = 1;
nodes = (
"36 -110 OFFCURVE",
"87 -101 OFFCURVE",
"87 -23 CURVE SMOOTH",
"87 495 LINE",
"64 495 LINE",
"64 -22 LINE SMOOTH",
"64 -83 OFFCURVE",
"29 -94 OFFCURVE",
"-26 -94 CURVE SMOOTH",
"-35 -94 OFFCURVE",
"-46 -93 OFFCURVE",
"-48 -92 CURVE",
"-48 -108 LINE",
"-45 -109 OFFCURVE",
"-34 -110 OFFCURVE",
"-28 -110 CURVE SMOOTH"
);
},
{
closed = 1;
nodes = (
"90 617 OFFCURVE",
"99 626 OFFCURVE",
"99 637 CURVE SMOOTH",
"99 646 OFFCURVE",
"90 655 OFFCURVE",
"79 655 CURVE SMOOTH",
"67 655 OFFCURVE",
"58 646 OFFCURVE",
"58 637 CURVE SMOOTH",
"58 626 OFFCURVE",
"67 617 OFFCURVE",
"79 617 CURVE SMOOTH"
);
}
);
};
layerId = "5AAFD18E-AEF5-43C3-A12E-1BAE6B19067F";
paths = (
{
closed = 1;
nodes = (
"36 -110 OFFCURVE",
"87 -101 OFFCURVE",
"87 -23 CURVE SMOOTH",
"87 495 LINE",
"64 495 LINE",
"64 -22 LINE SMOOTH",
"64 -83 OFFCURVE",
"29 -94 OFFCURVE",
"-26 -94 CURVE SMOOTH",
"-35 -94 OFFCURVE",
"-46 -93 OFFCURVE",
"-48 -92 CURVE",
"-48 -108 LINE",
"-45 -109 OFFCURVE",
"-34 -110 OFFCURVE",
"-28 -110 CURVE SMOOTH"
);
}
);
width = 151;
}
);
leftKerningGroup = j;
rightKerningGroup = j;
unicode = 0237;
},
{
color = 4;
glyphname = k;
lastChange = "2021-05-28 01:00:35 +0000";
layers = (
{
anchors = (
{
name = bottom;
position = "{208, 0}";
},
{
name = top;
position = "{208, 630}";
}
);
background = {
paths = (
{
closed = 1;
nodes = (
"411 0 LINE",
"327 283 LINE",
"414 495 LINE",
"260 495 LINE",
"180 286 LINE",
"242 0 LINE"
);
},
{
closed = 1;
nodes = (
"181 0 LINE",
"181 630 LINE",
"25 630 LINE",
"25 0 LINE"
);
}
);
};
layerId = "8A3706BD-364F-4FE3-9C2E-7E87DF0DB4CC";
paths = (
{
closed = 1;
nodes = (
"411 0 LINE",
"327 283 LINE",
"414 495 LINE",
"260 495 LINE",
"180 286 LINE",
"242 0 LINE"
);
},
{
closed = 1;
nodes = (
"181 0 LINE",
"181 630 LINE",
"25 630 LINE",
"25 0 LINE"
);
}
);
width = 416;
},
{
anchors = (
{
name = bottom;
position = "{152, 0}";
},
{
name = top;
position = "{152, 630}";
}
);
background = {
paths = (
{
closed = 1;
nodes = (
"285 0 LINE",
"137 289 LINE",
"282 495 LINE",
"257 495 LINE",
"111 288 LINE",
"260 0 LINE"
);
},
{
closed = 1;
nodes = (
"87 0 LINE",
"87 636 LINE",
"64 636 LINE",
"64 0 LINE"
);
}
);
};
layerId = "5AAFD18E-AEF5-43C3-A12E-1BAE6B19067F";
paths = (
{
closed = 1;
nodes = (
"285 0 LINE",
"137 289 LINE",
"282 495 LINE",
"257 495 LINE",
"111 288 LINE",
"260 0 LINE"
);
},
{
closed = 1;
nodes = (
"87 0 LINE",
"87 636 LINE",
"64 636 LINE",
"64 0 LINE"
);
}
);
width = 304;
}
);
leftKerningGroup = b;
leftMetricsKey = n;
rightKerningGroup = k;
unicode = 006B;
},
{
color = 4;
glyphname = l;
lastChange = "2021-05-28 01:00:53 +0000";
layers = (
{
anchors = (
{
name = bottom;
position = "{103, 0}";
},
{
name = center;
position = "{103, 315}";
},
{
name = top;
position = "{103, 630}";
},
{
name = topright;
position = "{176, 495}";
}
);
background = {
paths = (
{
closed = 1;
nodes = (
"181 0 LINE",
"181 630 LINE",
"25 630 LINE",
"25 0 LINE"
);
}
);
};
layerId = "8A3706BD-364F-4FE3-9C2E-7E87DF0DB4CC";
paths = (
{
closed = 1;
nodes = (
"181 0 LINE",
"181 630 LINE",
"25 630 LINE",
"25 0 LINE"
);
}
);
width = 206;
},
{
anchors = (
{
name = bottom;
position = "{76, 0}";
},
{
name = center;
position = "{76, 315}";
},
{
name = top;
position = "{76, 630}";
},
{
name = topright;
position = "{120, 525}";
}
);
background = {
paths = (
{
closed = 1;
nodes = (
"87 0 LINE",
"87 636 LINE",
"64 636 LINE",
"64 0 LINE"
);
}
);
};
layerId = "5AAFD18E-AEF5-43C3-A12E-1BAE6B19067F";
paths = (
{
closed = 1;
nodes = (
"87 0 LINE",
"87 636 LINE",
"64 636 LINE",
"64 0 LINE"
);
}
);
width = 151;
}
);
leftKerningGroup = b;
leftMetricsKey = n;
rightKerningGroup = d;
rightMetricsKey = d;
unicode = 006C;
},
{
color = 4;
glyphname = lslash;
lastChange = "2021-05-28 01:00:53 +0000";
layers = (
{
background = {
paths = (
{
closed = 1;
nodes = (
"227 0 LINE",
"227 227 LINE",
"285 253 LINE",
"285 316 LINE",
"227 290 LINE",
"227 630 LINE",
"71 630 LINE",
"71 221 LINE",
"15 196 LINE",
"15 132 LINE",
"71 157 LINE",
"71 0 LINE"
);
}
);
};
layerId = "8A3706BD-364F-4FE3-9C2E-7E87DF0DB4CC";
paths = (
{
closed = 1;
nodes = (
"227 0 LINE",
"227 227 LINE",
"285 253 LINE",
"285 316 LINE",
"227 290 LINE",
"227 630 LINE",
"71 630 LINE",
"71 221 LINE",
"15 196 LINE",
"15 132 LINE",
"71 157 LINE",
"71 0 LINE"
);
}
);
width = 300;
},
{
background = {
paths = (
{
closed = 1;
nodes = (
"145 0 LINE",
"145 194 LINE",
"222 229 LINE",
"222 250 LINE",
"145 216 LINE",
"145 636 LINE",
"123 636 LINE",
"123 205 LINE",
"49 172 LINE",
"49 150 LINE",
"123 183 LINE",
"123 0 LINE"
);
}
);
};
hints = (
{
horizontal = 1;
place = "{0, 21}";
target = up;
type = BottomGhost;
},
{
place = "{121.324, 17.471}";
type = Stem;
}
);
layerId = "5AAFD18E-AEF5-43C3-A12E-1BAE6B19067F";
paths = (
{
closed = 1;
nodes = (
"145 0 LINE",
"145 194 LINE",
"222 229 LINE",
"222 250 LINE",
"145 216 LINE",
"145 636 LINE",
"123 636 LINE",
"123 205 LINE",
"49 172 LINE",
"49 150 LINE",
"123 183 LINE",
"123 0 LINE"
);
}
);
width = 271;
}
);
note = lslash;
rightKerningGroup = a;
unicode = 0142;
},
{
color = 4;
glyphname = m;
lastChange = "2021-05-28 01:00:56 +0000";
layers = (
{
background = {
paths = (
{
closed = 1;
nodes = (
"181 0 LINE",
"181 390 LINE",
"185 392 OFFCURVE",
"193 393 OFFCURVE",
"198 393 CURVE SMOOTH",
"209 393 OFFCURVE",
"215 383 OFFCURVE",
"215 365 CURVE SMOOTH",
"215 0 LINE",
"371 0 LINE",
"371 390 LINE",
"375 392 OFFCURVE",
"383 393 OFFCURVE",
"388 393 CURVE SMOOTH",
"399 393 OFFCURVE",
"405 383 OFFCURVE",
"405 365 CURVE SMOOTH",
"405 0 LINE",
"561 0 LINE",
"561 371 LINE SMOOTH",
"561 457 OFFCURVE",
"539 502 OFFCURVE",
"451 502 CURVE SMOOTH",
"401 502 OFFCURVE",
"360 459 OFFCURVE",
"356 409 CURVE",
"370 408 LINE",
"362 469 OFFCURVE",
"335 502 OFFCURVE",
"261 502 CURVE SMOOTH",
"218 502 OFFCURVE",
"182 471 OFFCURVE",
"170 430 CURVE",
"158 495 LINE",
"25 495 LINE",
"25 0 LINE"
);
}
);
};
layerId = "8A3706BD-364F-4FE3-9C2E-7E87DF0DB4CC";
paths = (
{
closed = 1;
nodes = (
"181 0 LINE",
"181 390 LINE",
"185 392 OFFCURVE",
"193 393 OFFCURVE",
"198 393 CURVE SMOOTH",
"209 393 OFFCURVE",
"215 383 OFFCURVE",
"215 365 CURVE SMOOTH",
"215 0 LINE",
"371 0 LINE",
"371 390 LINE",
"375 392 OFFCURVE",
"383 393 OFFCURVE",
"388 393 CURVE SMOOTH",
"399 393 OFFCURVE",
"405 383 OFFCURVE",
"405 365 CURVE SMOOTH",
"405 0 LINE",
"561 0 LINE",
"561 371 LINE SMOOTH",
"561 457 OFFCURVE",
"539 502 OFFCURVE",
"451 502 CURVE SMOOTH",
"401 502 OFFCURVE",
"360 459 OFFCURVE",
"356 409 CURVE",
"370 408 LINE",
"362 469 OFFCURVE",
"335 502 OFFCURVE",
"261 502 CURVE SMOOTH",
"218 502 OFFCURVE",
"182 471 OFFCURVE",
"170 430 CURVE",
"158 495 LINE",
"25 495 LINE",
"25 0 LINE"
);
}
);
width = 581;
},
{
background = {
paths = (
{
closed = 1;
nodes = (
"88 0 LINE",
"88 407 LINE",
"101 447 OFFCURVE",
"129 482 OFFCURVE",
"189 482 CURVE SMOOTH",
"255 482 OFFCURVE",
"275 456 OFFCURVE",
"275 387 CURVE SMOOTH",
"275 0 LINE",
"299 0 LINE",
"299 388 LINE",
"302 441 OFFCURVE",
"344 482 OFFCURVE",
"403 482 CURVE SMOOTH",
"466 482 OFFCURVE",
"487 458 OFFCURVE",
"487 377 CURVE SMOOTH",
"487 0 LINE",
"511 0 LINE",
"511 390 LINE SMOOTH",
"511 466 OFFCURVE",
"485 502 OFFCURVE",
"404 502 CURVE SMOOTH",
"341 502 OFFCURVE",
"302 466 OFFCURVE",
"286 407 CURVE",
"296 408 LINE",
"297 469 OFFCURVE",
"268 502 OFFCURVE",
"191 502 CURVE SMOOTH",
"139 502 OFFCURVE",
"104 480 OFFCURVE",
"88 443 CURVE",
"83 495 LINE",
"64 495 LINE",
"64 0 LINE"
);
}
);
};
layerId = "5AAFD18E-AEF5-43C3-A12E-1BAE6B19067F";
paths = (
{
closed = 1;
nodes = (
"88 0 LINE",
"88 407 LINE",
"101 447 OFFCURVE",
"129 482 OFFCURVE",
"189 482 CURVE SMOOTH",
"255 482 OFFCURVE",
"275 456 OFFCURVE",
"275 387 CURVE SMOOTH",
"275 0 LINE",
"299 0 LINE",
"299 388 LINE",
"302 441 OFFCURVE",
"344 482 OFFCURVE",
"403 482 CURVE SMOOTH",
"466 482 OFFCURVE",
"487 458 OFFCURVE",
"487 377 CURVE SMOOTH",
"487 0 LINE",
"511 0 LINE",
"511 390 LINE SMOOTH",
"511 466 OFFCURVE",
"485 502 OFFCURVE",
"404 502 CURVE SMOOTH",
"341 502 OFFCURVE",
"302 466 OFFCURVE",
"286 407 CURVE",
"296 408 LINE",
"297 469 OFFCURVE",
"268 502 OFFCURVE",
"191 502 CURVE SMOOTH",
"139 502 OFFCURVE",
"104 480 OFFCURVE",
"88 443 CURVE",
"83 495 LINE",
"64 495 LINE",
"64 0 LINE"
);
}
);
width = 565;
}
);
leftKerningGroup = n;
leftMetricsKey = n;
rightKerningGroup = n;
rightMetricsKey = n;
unicode = 006D;
},
{
color = 4;
glyphname = n;
lastChange = "2021-05-28 01:01:05 +0000";
layers = (
{
anchors = (
{
name = bottom;
position = "{196, 0}";
},
{
name = top;
position = "{196, 495}";
}
);
background = {
paths = (
{
closed = 1;
nodes = (
"181 0 LINE",
"181 390 LINE",
"185 392 OFFCURVE",
"193 393 OFFCURVE",
"198 393 CURVE SMOOTH",
"210 393 OFFCURVE",
"215 383 OFFCURVE",
"215 365 CURVE SMOOTH",
"215 0 LINE",
"371 0 LINE",
"371 371 LINE SMOOTH",
"371 457 OFFCURVE",
"349 502 OFFCURVE",
"261 502 CURVE SMOOTH",
"218 502 OFFCURVE",
"182 471 OFFCURVE",
"170 430 CURVE",
"158 495 LINE",
"25 495 LINE",
"25 0 LINE"
);
}
);
};
layerId = "8A3706BD-364F-4FE3-9C2E-7E87DF0DB4CC";
paths = (
{
closed = 1;
nodes = (
"181 0 LINE",
"181 390 LINE",
"185 392 OFFCURVE",
"193 393 OFFCURVE",
"198 393 CURVE SMOOTH",
"210 393 OFFCURVE",
"215 383 OFFCURVE",
"215 365 CURVE SMOOTH",
"215 0 LINE",
"371 0 LINE",
"371 371 LINE SMOOTH",
"371 457 OFFCURVE",
"349 502 OFFCURVE",
"261 502 CURVE SMOOTH",
"218 502 OFFCURVE",
"182 471 OFFCURVE",
"170 430 CURVE",
"158 495 LINE",
"25 495 LINE",
"25 0 LINE"
);
}
);
width = 391;
},
{
anchors = (
{
name = bottom;
position = "{181, 0}";
},
{
name = top;
position = "{181, 495}";
}
);
background = {
paths = (
{
closed = 1;
nodes = (
"88 0 LINE",
"88 408 LINE",
"95 438 OFFCURVE",
"115 484 OFFCURVE",
"186 484 CURVE SMOOTH",
"287 484 OFFCURVE",
"283 421 OFFCURVE",
"283 363 CURVE SMOOTH",
"283 0 LINE",
"307 0 LINE",
"307 372 LINE SMOOTH",
"307 435 OFFCURVE",
"300 503 OFFCURVE",
"188 503 CURVE SMOOTH",
"147 503 OFFCURVE",
"102 490 OFFCURVE",
"88 446 CURVE",
"82 495 LINE",
"64 495 LINE",
"64 0 LINE"
);
}
);
};
layerId = "5AAFD18E-AEF5-43C3-A12E-1BAE6B19067F";
paths = (
{
closed = 1;
nodes = (
"88 0 LINE",
"88 408 LINE",
"95 438 OFFCURVE",
"115 484 OFFCURVE",
"186 484 CURVE SMOOTH",
"287 484 OFFCURVE",
"283 421 OFFCURVE",
"283 363 CURVE SMOOTH",
"283 0 LINE",
"307 0 LINE",
"307 372 LINE SMOOTH",
"307 435 OFFCURVE",
"300 503 OFFCURVE",
"188 503 CURVE SMOOTH",
"147 503 OFFCURVE",
"102 490 OFFCURVE",
"88 446 CURVE",
"82 495 LINE",
"64 495 LINE",
"64 0 LINE"
);
}
);
width = 361;
}
);
leftKerningGroup = n;
rightKerningGroup = n;
unicode = 006E;
},
{
color = 4;
glyphname = eng;
lastChange = "2021-05-28 01:01:05 +0000";
layers = (
{
background = {
paths = (
{
closed = 1;
nodes = (
"287 -119 OFFCURVE",
"371 -77 OFFCURVE",
"371 66 CURVE SMOOTH",
"371 371 LINE SMOOTH",
"371 458 OFFCURVE",
"349 502 OFFCURVE",
"261 502 CURVE SMOOTH",
"218 502 OFFCURVE",
"182 471 OFFCURVE",
"170 430 CURVE",
"158 495 LINE",
"25 495 LINE",
"25 0 LINE",
"181 0 LINE",
"181 390 LINE",
"185 393 OFFCURVE",
"193 393 OFFCURVE",
"198 393 CURVE SMOOTH",
"209 393 OFFCURVE",
"215 384 OFFCURVE",
"215 365 CURVE SMOOTH",
"215 6 LINE SMOOTH",
"215 -15 OFFCURVE",
"202 -32 OFFCURVE",
"171 -32 CURVE SMOOTH",
"170 -32 OFFCURVE",
"137 -32 OFFCURVE",
"135 -32 CURVE",
"135 -109 LINE",
"155 -113 OFFCURVE",
"174 -116 OFFCURVE",
"194 -116 CURVE SMOOTH"
);
}
);
};
layerId = "8A3706BD-364F-4FE3-9C2E-7E87DF0DB4CC";
paths = (
{
closed = 1;
nodes = (
"287 -119 OFFCURVE",
"371 -77 OFFCURVE",
"371 66 CURVE SMOOTH",
"371 371 LINE SMOOTH",
"371 458 OFFCURVE",
"349 502 OFFCURVE",
"261 502 CURVE SMOOTH",
"218 502 OFFCURVE",
"182 471 OFFCURVE",
"170 430 CURVE",
"158 495 LINE",
"25 495 LINE",
"25 0 LINE",
"181 0 LINE",
"181 390 LINE",
"185 393 OFFCURVE",
"193 393 OFFCURVE",
"198 393 CURVE SMOOTH",
"209 393 OFFCURVE",
"215 384 OFFCURVE",
"215 365 CURVE SMOOTH",
"215 6 LINE SMOOTH",
"215 -15 OFFCURVE",
"202 -32 OFFCURVE",
"171 -32 CURVE SMOOTH",
"170 -32 OFFCURVE",
"137 -32 OFFCURVE",
"135 -32 CURVE",
"135 -109 LINE",
"155 -113 OFFCURVE",
"174 -116 OFFCURVE",
"194 -116 CURVE SMOOTH"
);
}
);
width = 396;
},
{
background = {
paths = (
{
closed = 1;
nodes = (
"243 -110 OFFCURVE",
"292 -100 OFFCURVE",
"292 -23 CURVE SMOOTH",
"292 372 LINE SMOOTH",
"292 434 OFFCURVE",
"286 503 OFFCURVE",
"174 503 CURVE SMOOTH",
"132 503 OFFCURVE",
"89 490 OFFCURVE",
"73 446 CURVE",
"68 495 LINE",
"49 495 LINE",
"49 0 LINE",
"73 0 LINE",
"73 408 LINE",
"81 437 OFFCURVE",
"100 484 OFFCURVE",
"172 484 CURVE SMOOTH",
"272 484 OFFCURVE",
"268 421 OFFCURVE",
"268 363 CURVE SMOOTH",
"268 -22 LINE SMOOTH",
"268 -84 OFFCURVE",
"235 -94 OFFCURVE",
"180 -94 CURVE SMOOTH",
"171 -94 OFFCURVE",
"159 -93 OFFCURVE",
"158 -92 CURVE",
"158 -108 LINE",
"162 -109 OFFCURVE",
"171 -110 OFFCURVE",
"178 -110 CURVE SMOOTH"
);
}
);
};
layerId = "5AAFD18E-AEF5-43C3-A12E-1BAE6B19067F";
paths = (
{
closed = 1;
nodes = (
"243 -110 OFFCURVE",
"292 -100 OFFCURVE",
"292 -23 CURVE SMOOTH",
"292 372 LINE SMOOTH",
"292 434 OFFCURVE",
"286 503 OFFCURVE",
"174 503 CURVE SMOOTH",
"132 503 OFFCURVE",
"89 490 OFFCURVE",
"73 446 CURVE",
"68 495 LINE",
"49 495 LINE",
"49 0 LINE",
"73 0 LINE",
"73 408 LINE",
"81 437 OFFCURVE",
"100 484 OFFCURVE",
"172 484 CURVE SMOOTH",
"272 484 OFFCURVE",
"268 421 OFFCURVE",
"268 363 CURVE SMOOTH",
"268 -22 LINE SMOOTH",
"268 -84 OFFCURVE",
"235 -94 OFFCURVE",
"180 -94 CURVE SMOOTH",
"171 -94 OFFCURVE",
"159 -93 OFFCURVE",
"158 -92 CURVE",
"158 -108 LINE",
"162 -109 OFFCURVE",
"171 -110 OFFCURVE",
"178 -110 CURVE SMOOTH"
);
}
);
width = 342;
}
);
unicode = 014B;
},
{
color = 4;
glyphname = o;
lastChange = "2021-05-28 01:01:16 +0000";
layers = (
{
anchors = (
{
name = bottom;
position = "{193, 0}";
},
{
name = center;
position = "{193, 248}";
},
{
name = ogonek;
position = "{347, 10}";
},
{
name = top;
position = "{193, 495}";
},
{
name = topright;
position = "{281, 487}";
}
);
background = {
paths = (
{
closed = 1;
nodes = (
"299 -8 OFFCURVE",
"366 11 OFFCURVE",
"366 171 CURVE SMOOTH",
"366 363 LINE SMOOTH",
"366 470 OFFCURVE",
"304 503 OFFCURVE",
"193 503 CURVE SMOOTH",
"82 503 OFFCURVE",
"20 470 OFFCURVE",
"20 363 CURVE SMOOTH",
"20 170 LINE SMOOTH",
"20 11 OFFCURVE",
"87 -8 OFFCURVE",
"193 -8 CURVE SMOOTH"
);
},
{
closed = 1;
nodes = (
"183 82 OFFCURVE",
"176 89 OFFCURVE",
"176 112 CURVE SMOOTH",
"176 383 LINE SMOOTH",
"176 406 OFFCURVE",
"183 413 OFFCURVE",
"193 413 CURVE SMOOTH",
"203 413 OFFCURVE",
"210 406 OFFCURVE",
"210 383 CURVE SMOOTH",
"210 112 LINE SMOOTH",
"210 89 OFFCURVE",
"203 82 OFFCURVE",
"193 82 CURVE SMOOTH"
);
}
);
};
layerId = "8A3706BD-364F-4FE3-9C2E-7E87DF0DB4CC";
paths = (
{
closed = 1;
nodes = (
"299 -8 OFFCURVE",
"366 11 OFFCURVE",
"366 171 CURVE SMOOTH",
"366 363 LINE SMOOTH",
"366 470 OFFCURVE",
"304 503 OFFCURVE",
"193 503 CURVE SMOOTH",
"82 503 OFFCURVE",
"20 470 OFFCURVE",
"20 363 CURVE SMOOTH",
"20 170 LINE SMOOTH",
"20 11 OFFCURVE",
"87 -8 OFFCURVE",
"193 -8 CURVE SMOOTH"
);
},
{
closed = 1;
nodes = (
"183 82 OFFCURVE",
"176 89 OFFCURVE",
"176 112 CURVE SMOOTH",
"176 383 LINE SMOOTH",
"176 406 OFFCURVE",
"183 413 OFFCURVE",
"193 413 CURVE SMOOTH",
"203 413 OFFCURVE",
"210 406 OFFCURVE",
"210 383 CURVE SMOOTH",
"210 112 LINE SMOOTH",
"210 89 OFFCURVE",
"203 82 OFFCURVE",
"193 82 CURVE SMOOTH"
);
}
);
width = 386;
},
{
anchors = (
{
name = bottom;
position = "{170, 0}";
},
{
name = center;
position = "{170, 248}";
},
{
name = ogonek;
position = "{306, 10}";
},
{
name = top;
position = "{170, 495}";
},
{
name = topright;
position = "{251, 480}";
}
);
background = {
paths = (
{
closed = 1;
nodes = (
"283 -7 OFFCURVE",
"291 61 OFFCURVE",
"291 125 CURVE SMOOTH",
"291 372 LINE SMOOTH",
"291 435 OFFCURVE",
"284 503 OFFCURVE",
"171 503 CURVE SMOOTH",
"57 503 OFFCURVE",
"49 435 OFFCURVE",
"49 372 CURVE SMOOTH",
"49 125 LINE SMOOTH",
"49 61 OFFCURVE",
"57 -7 OFFCURVE",
"171 -7 CURVE SMOOTH"
);
},
{
closed = 1;
nodes = (
"78 11 OFFCURVE",
"73 73 OFFCURVE",
"73 130 CURVE SMOOTH",
"73 367 LINE SMOOTH",
"73 423 OFFCURVE",
"78 485 OFFCURVE",
"171 485 CURVE SMOOTH",
"262 485 OFFCURVE",
"267 423 OFFCURVE",
"267 367 CURVE SMOOTH",
"267 130 LINE SMOOTH",
"267 73 OFFCURVE",
"262 11 OFFCURVE",
"171 11 CURVE SMOOTH"
);
}
);
};
layerId = "5AAFD18E-AEF5-43C3-A12E-1BAE6B19067F";
paths = (
{
closed = 1;
nodes = (
"283 -7 OFFCURVE",
"291 61 OFFCURVE",
"291 125 CURVE SMOOTH",
"291 372 LINE SMOOTH",
"291 435 OFFCURVE",
"284 503 OFFCURVE",
"171 503 CURVE SMOOTH",
"57 503 OFFCURVE",
"49 435 OFFCURVE",
"49 372 CURVE SMOOTH",
"49 125 LINE SMOOTH",
"49 61 OFFCURVE",
"57 -7 OFFCURVE",
"171 -7 CURVE SMOOTH"
);
},
{
closed = 1;
nodes = (
"78 11 OFFCURVE",
"73 73 OFFCURVE",
"73 130 CURVE SMOOTH",
"73 367 LINE SMOOTH",
"73 423 OFFCURVE",
"78 485 OFFCURVE",
"171 485 CURVE SMOOTH",
"262 485 OFFCURVE",
"267 423 OFFCURVE",
"267 367 CURVE SMOOTH",
"267 130 LINE SMOOTH",
"267 73 OFFCURVE",
"262 11 OFFCURVE",
"171 11 CURVE SMOOTH"
);
}
);
width = 340;
}
);
leftKerningGroup = o;
rightKerningGroup = o;
unicode = 006F;
},
{
color = 4;
glyphname = oslash;
lastChange = "2021-05-28 01:01:14 +0000";
layers = (
{
background = {
components = (
{
name = o;
}
);
paths = (
{
closed = 1;
nodes = (
"83 -44 LINE",
"359 523 LINE",
"305 523 LINE",
"30 -44 LINE"
);
}
);
};
components = (
{
name = o;
}
);
layerId = "8A3706BD-364F-4FE3-9C2E-7E87DF0DB4CC";
paths = (
{
closed = 1;
nodes = (
"83 -44 LINE",
"359 523 LINE",
"305 523 LINE",
"30 -44 LINE"
);
}
);
width = 396;
},
{
background = {
components = (
{
alignment = -1;
name = o;
}
);
paths = (
{
closed = 1;
nodes = (
"36 -26 LINE",
"319 516 LINE",
"298 516 LINE",
"16 -26 LINE"
);
}
);
};
components = (
{
alignment = -1;
name = o;
}
);
hints = (
{
horizontal = 1;
place = "{-44.647, 657.088}";
type = Stem;
},
{
place = "{48.529, 349.412}";
type = Stem;
}
);
layerId = "5AAFD18E-AEF5-43C3-A12E-1BAE6B19067F";
paths = (
{
closed = 1;
nodes = (
"36 -26 LINE",
"319 516 LINE",
"298 516 LINE",
"16 -26 LINE"
);
}
);
width = 341;
}
);
unicode = 00F8;
},
{
glyphname = oe;
lastChange = "2021-05-26 04:14:52 +0000";
layers = (
{
background = {
paths = (
{
closed = 1;
nodes = (
"284 -8 OFFCURVE",
"336 48 OFFCURVE",
"336 171 CURVE SMOOTH",
"336 363 LINE SMOOTH",
"336 451 OFFCURVE",
"266 503 OFFCURVE",
"186 503 CURVE SMOOTH",
"82 503 OFFCURVE",
"20 470 OFFCURVE",
"20 363 CURVE SMOOTH",
"20 170 LINE SMOOTH",
"20 11 OFFCURVE",
"87 -8 OFFCURVE",
"185 -8 CURVE SMOOTH"
);
},
{
closed = 1;
nodes = (
"183 82 OFFCURVE",
"176 89 OFFCURVE",
"176 112 CURVE SMOOTH",
"176 383 LINE SMOOTH",
"176 406 OFFCURVE",
"183 413 OFFCURVE",
"193 413 CURVE SMOOTH",
"203 413 OFFCURVE",
"210 406 OFFCURVE",
"210 383 CURVE SMOOTH",
"210 112 LINE SMOOTH",
"210 89 OFFCURVE",
"203 82 OFFCURVE",
"193 82 CURVE SMOOTH"
);
},
{
closed = 1;
nodes = (
"497 -8 OFFCURVE",
"556 34 OFFCURVE",
"556 171 CURVE SMOOTH",
"556 192 LINE",
"400 192 LINE",
"400 108 LINE SMOOTH",
"400 85 OFFCURVE",
"393 78 OFFCURVE",
"383 78 CURVE SMOOTH",
"373 78 OFFCURVE",
"366 85 OFFCURVE",
"366 108 CURVE SMOOTH",
"366 233 LINE",
"556 233 LINE",
"556 373 LINE SMOOTH",
"556 472 OFFCURVE",
"494 503 OFFCURVE",
"393 503 CURVE SMOOTH",
"306 503 OFFCURVE",
"240 454 OFFCURVE",
"240 351 CURVE SMOOTH",
"240 170 LINE SMOOTH",
"240 47 OFFCURVE",
"288 -8 OFFCURVE",
"393 -8 CURVE SMOOTH"
);
},
{
closed = 1;
nodes = (
"366 383 LINE SMOOTH",
"366 406 OFFCURVE",
"373 413 OFFCURVE",
"383 413 CURVE SMOOTH",
"393 413 OFFCURVE",
"400 406 OFFCURVE",
"400 383 CURVE SMOOTH",
"400 300 LINE",
"366 300 LINE"
);
}
);
};
layerId = "8A3706BD-364F-4FE3-9C2E-7E87DF0DB4CC";
paths = (
{
closed = 1;
nodes = (
"284 -8 OFFCURVE",
"336 48 OFFCURVE",
"336 171 CURVE SMOOTH",
"336 363 LINE SMOOTH",
"336 451 OFFCURVE",
"266 503 OFFCURVE",
"186 503 CURVE SMOOTH",
"82 503 OFFCURVE",
"20 470 OFFCURVE",
"20 363 CURVE SMOOTH",
"20 170 LINE SMOOTH",
"20 11 OFFCURVE",
"87 -8 OFFCURVE",
"185 -8 CURVE SMOOTH"
);
},
{
closed = 1;
nodes = (
"183 82 OFFCURVE",
"176 89 OFFCURVE",
"176 112 CURVE SMOOTH",
"176 383 LINE SMOOTH",
"176 406 OFFCURVE",
"183 413 OFFCURVE",
"193 413 CURVE SMOOTH",
"203 413 OFFCURVE",
"210 406 OFFCURVE",
"210 383 CURVE SMOOTH",
"210 112 LINE SMOOTH",
"210 89 OFFCURVE",
"203 82 OFFCURVE",
"193 82 CURVE SMOOTH"
);
},
{
closed = 1;
nodes = (
"497 -8 OFFCURVE",
"556 34 OFFCURVE",
"556 171 CURVE SMOOTH",
"556 192 LINE",
"400 192 LINE",
"400 108 LINE SMOOTH",
"400 85 OFFCURVE",
"393 78 OFFCURVE",
"383 78 CURVE SMOOTH",
"373 78 OFFCURVE",
"366 85 OFFCURVE",
"366 108 CURVE SMOOTH",
"366 233 LINE",
"556 233 LINE",
"556 373 LINE SMOOTH",
"556 472 OFFCURVE",
"494 503 OFFCURVE",
"393 503 CURVE SMOOTH",
"306 503 OFFCURVE",
"240 454 OFFCURVE",
"240 351 CURVE SMOOTH",
"240 170 LINE SMOOTH",
"240 47 OFFCURVE",
"288 -8 OFFCURVE",
"393 -8 CURVE SMOOTH"
);
},
{
closed = 1;
nodes = (
"366 383 LINE SMOOTH",
"366 406 OFFCURVE",
"373 413 OFFCURVE",
"383 413 CURVE SMOOTH",
"393 413 OFFCURVE",
"400 406 OFFCURVE",
"400 383 CURVE SMOOTH",
"400 300 LINE",
"366 300 LINE"
);
}
);
width = 571;
},
{
background = {
paths = (
{
closed = 1;
nodes = (
"280 -7 OFFCURVE",
"287 62 OFFCURVE",
"287 125 CURVE SMOOTH",
"287 372 LINE SMOOTH",
"287 435 OFFCURVE",
"280 503 OFFCURVE",
"170 503 CURVE SMOOTH",
"57 503 OFFCURVE",
"49 435 OFFCURVE",
"49 372 CURVE SMOOTH",
"49 125 LINE SMOOTH",
"49 61 OFFCURVE",
"57 -7 OFFCURVE",
"170 -7 CURVE SMOOTH"
);
},
{
closed = 1;
nodes = (
"78 11 OFFCURVE",
"73 73 OFFCURVE",
"73 130 CURVE SMOOTH",
"73 367 LINE SMOOTH",
"73 423 OFFCURVE",
"78 485 OFFCURVE",
"171 485 CURVE SMOOTH",
"262 485 OFFCURVE",
"267 423 OFFCURVE",
"267 367 CURVE SMOOTH",
"267 130 LINE SMOOTH",
"267 73 OFFCURVE",
"262 11 OFFCURVE",
"171 11 CURVE SMOOTH"
);
},
{
closed = 1;
nodes = (
"479 -9 OFFCURVE",
"507 19 OFFCURVE",
"507 122 CURVE SMOOTH",
"507 173 LINE",
"483 173 LINE",
"483 120 LINE SMOOTH",
"483 39 OFFCURVE",
"465 11 OFFCURVE",
"387 11 CURVE SMOOTH",
"309 11 OFFCURVE",
"291 39 OFFCURVE",
"291 120 CURVE SMOOTH",
"291 262 LINE",
"507 262 LINE",
"507 385 LINE SMOOTH",
"507 477 OFFCURVE",
"477 505 OFFCURVE",
"388 505 CURVE SMOOTH",
"298 505 OFFCURVE",
"268 476 OFFCURVE",
"268 384 CURVE SMOOTH",
"268 121 LINE SMOOTH",
"268 20 OFFCURVE",
"298 -9 OFFCURVE",
"388 -9 CURVE SMOOTH"
);
},
{
closed = 1;
nodes = (
"291 384 LINE SMOOTH",
"291 456 OFFCURVE",
"310 487 OFFCURVE",
"388 487 CURVE SMOOTH",
"466 487 OFFCURVE",
"483 456 OFFCURVE",
"483 384 CURVE SMOOTH",
"483 281 LINE",
"291 281 LINE"
);
}
);
};
layerId = "5AAFD18E-AEF5-43C3-A12E-1BAE6B19067F";
paths = (
{
closed = 1;
nodes = (
"280 -7 OFFCURVE",
"287 62 OFFCURVE",
"287 125 CURVE SMOOTH",
"287 372 LINE SMOOTH",
"287 435 OFFCURVE",
"280 503 OFFCURVE",
"170 503 CURVE SMOOTH",
"57 503 OFFCURVE",
"49 435 OFFCURVE",
"49 372 CURVE SMOOTH",
"49 125 LINE SMOOTH",
"49 61 OFFCURVE",
"57 -7 OFFCURVE",
"170 -7 CURVE SMOOTH"
);
},
{
closed = 1;
nodes = (
"78 11 OFFCURVE",
"73 73 OFFCURVE",
"73 130 CURVE SMOOTH",
"73 367 LINE SMOOTH",
"73 423 OFFCURVE",
"78 485 OFFCURVE",
"171 485 CURVE SMOOTH",
"262 485 OFFCURVE",
"267 423 OFFCURVE",
"267 367 CURVE SMOOTH",
"267 130 LINE SMOOTH",
"267 73 OFFCURVE",
"262 11 OFFCURVE",
"171 11 CURVE SMOOTH"
);
},
{
closed = 1;
nodes = (
"479 -9 OFFCURVE",
"507 19 OFFCURVE",
"507 122 CURVE SMOOTH",
"507 173 LINE",
"483 173 LINE",
"483 120 LINE SMOOTH",
"483 39 OFFCURVE",
"465 11 OFFCURVE",
"387 11 CURVE SMOOTH",
"309 11 OFFCURVE",
"291 39 OFFCURVE",
"291 120 CURVE SMOOTH",
"291 262 LINE",
"507 262 LINE",
"507 385 LINE SMOOTH",
"507 477 OFFCURVE",
"477 505 OFFCURVE",
"388 505 CURVE SMOOTH",
"298 505 OFFCURVE",
"268 476 OFFCURVE",
"268 384 CURVE SMOOTH",
"268 121 LINE SMOOTH",
"268 20 OFFCURVE",
"298 -9 OFFCURVE",
"388 -9 CURVE SMOOTH"
);
},
{
closed = 1;
nodes = (
"291 384 LINE SMOOTH",
"291 456 OFFCURVE",
"310 487 OFFCURVE",
"388 487 CURVE SMOOTH",
"466 487 OFFCURVE",
"483 456 OFFCURVE",
"483 384 CURVE SMOOTH",
"483 281 LINE",
"291 281 LINE"
);
}
);
width = 551;
}
);
leftMetricsKey = o;
rightMetricsKey = e;
unicode = 0153;
},
{
glyphname = p;
lastChange = "2021-05-26 04:14:52 +0000";
layers = (
{
background = {
paths = (
{
closed = 1;
nodes = (
"181 -116 LINE",
"181 36 LINE",
"194 14 OFFCURVE",
"216 -6 OFFCURVE",
"261 -6 CURVE SMOOTH",
"320 -6 OFFCURVE",
"371 21 OFFCURVE",
"371 154 CURVE SMOOTH",
"371 391 LINE SMOOTH",
"371 489 OFFCURVE",
"309 503 OFFCURVE",
"260 503 CURVE SMOOTH",
"210 503 OFFCURVE",
"193 479 OFFCURVE",
"181 460 CURVE",
"181 495 LINE",
"25 495 LINE",
"25 -116 LINE"
);
},
{
closed = 1;
nodes = (
"188 80 OFFCURVE",
"181 87 OFFCURVE",
"181 110 CURVE SMOOTH",
"181 405 LINE",
"181 405 OFFCURVE",
"189 408 OFFCURVE",
"198 408 CURVE SMOOTH",
"208 408 OFFCURVE",
"215 401 OFFCURVE",
"215 378 CURVE SMOOTH",
"215 110 LINE SMOOTH",
"215 87 OFFCURVE",
"208 80 OFFCURVE",
"198 80 CURVE SMOOTH"
);
}
);
};
layerId = "8A3706BD-364F-4FE3-9C2E-7E87DF0DB4CC";
paths = (
{
closed = 1;
nodes = (
"181 -116 LINE",
"181 36 LINE",
"194 14 OFFCURVE",
"216 -6 OFFCURVE",
"261 -6 CURVE SMOOTH",
"320 -6 OFFCURVE",
"371 21 OFFCURVE",
"371 154 CURVE SMOOTH",
"371 391 LINE SMOOTH",
"371 489 OFFCURVE",
"309 503 OFFCURVE",
"260 503 CURVE SMOOTH",
"210 503 OFFCURVE",
"193 479 OFFCURVE",
"181 460 CURVE",
"181 495 LINE",
"25 495 LINE",
"25 -116 LINE"
);
},
{
closed = 1;
nodes = (
"188 80 OFFCURVE",
"181 87 OFFCURVE",
"181 110 CURVE SMOOTH",
"181 405 LINE",
"181 405 OFFCURVE",
"189 408 OFFCURVE",
"198 408 CURVE SMOOTH",
"208 408 OFFCURVE",
"215 401 OFFCURVE",
"215 378 CURVE SMOOTH",
"215 110 LINE SMOOTH",
"215 87 OFFCURVE",
"208 80 OFFCURVE",
"198 80 CURVE SMOOTH"
);
}
);
width = 391;
},
{
background = {
paths = (
{
closed = 1;
nodes = (
"87 -116 LINE",
"87 34 LINE",
"102 10 OFFCURVE",
"133 -7 OFFCURVE",
"187 -7 CURVE SMOOTH",
"299 -7 OFFCURVE",
"306 61 OFFCURVE",
"306 125 CURVE SMOOTH",
"306 372 LINE SMOOTH",
"306 435 OFFCURVE",
"298 502 OFFCURVE",
"187 502 CURVE SMOOTH",
"122 502 OFFCURVE",
"98 479 OFFCURVE",
"85 448 CURVE",
"82 495 LINE",
"64 495 LINE",
"64 -116 LINE"
);
},
{
closed = 1;
nodes = (
"94 11 OFFCURVE",
"88 63 OFFCURVE",
"88 123 CURVE SMOOTH",
"88 335 LINE",
"88 400 OFFCURVE",
"84 485 OFFCURVE",
"185 485 CURVE SMOOTH",
"286 485 OFFCURVE",
"282 421 OFFCURVE",
"282 363 CURVE SMOOTH",
"282 132 LINE SMOOTH",
"282 74 OFFCURVE",
"286 11 OFFCURVE",
"185 11 CURVE SMOOTH"
);
}
);
};
layerId = "5AAFD18E-AEF5-43C3-A12E-1BAE6B19067F";
paths = (
{
closed = 1;
nodes = (
"87 -116 LINE",
"87 34 LINE",
"102 10 OFFCURVE",
"133 -7 OFFCURVE",
"187 -7 CURVE SMOOTH",
"299 -7 OFFCURVE",
"306 61 OFFCURVE",
"306 125 CURVE SMOOTH",
"306 372 LINE SMOOTH",
"306 435 OFFCURVE",
"298 502 OFFCURVE",
"187 502 CURVE SMOOTH",
"122 502 OFFCURVE",
"98 479 OFFCURVE",
"85 448 CURVE",
"82 495 LINE",
"64 495 LINE",
"64 -116 LINE"
);
},
{
closed = 1;
nodes = (
"94 11 OFFCURVE",
"88 63 OFFCURVE",
"88 123 CURVE SMOOTH",
"88 335 LINE",
"88 400 OFFCURVE",
"84 485 OFFCURVE",
"185 485 CURVE SMOOTH",
"286 485 OFFCURVE",
"282 421 OFFCURVE",
"282 363 CURVE SMOOTH",
"282 132 LINE SMOOTH",
"282 74 OFFCURVE",
"286 11 OFFCURVE",
"185 11 CURVE SMOOTH"
);
}
);
width = 355;
}
);
leftKerningGroup = n;
leftMetricsKey = n;
rightKerningGroup = o;
rightMetricsKey = o;
unicode = 0070;
},
{
color = 4;
glyphname = thorn;
lastChange = "2021-05-26 04:14:52 +0000";
layers = (
{
background = {
paths = (
{
closed = 1;
nodes = (
"181 -116 LINE",
"181 36 LINE",
"197 6 OFFCURVE",
"225 -6 OFFCURVE",
"261 -6 CURVE SMOOTH",
"320 -6 OFFCURVE",
"371 22 OFFCURVE",
"371 154 CURVE SMOOTH",
"371 391 LINE SMOOTH",
"371 490 OFFCURVE",
"309 503 OFFCURVE",
"260 503 CURVE SMOOTH",
"217 503 OFFCURVE",
"199 488 OFFCURVE",
"181 460 CURVE",
"181 630 LINE",
"25 630 LINE",
"25 -116 LINE"
);
},
{
closed = 1;
nodes = (
"187 80 OFFCURVE",
"181 87 OFFCURVE",
"181 110 CURVE SMOOTH",
"181 379 LINE SMOOTH",
"181 397 OFFCURVE",
"187 406 OFFCURVE",
"197 406 CURVE SMOOTH",
"207 406 OFFCURVE",
"215 401 OFFCURVE",
"215 378 CURVE SMOOTH",
"215 110 LINE SMOOTH",
"215 87 OFFCURVE",
"209 80 OFFCURVE",
"198 80 CURVE SMOOTH"
);
}
);
};
layerId = "8A3706BD-364F-4FE3-9C2E-7E87DF0DB4CC";
paths = (
{
closed = 1;
nodes = (
"181 -116 LINE",
"181 36 LINE",
"197 6 OFFCURVE",
"225 -6 OFFCURVE",
"261 -6 CURVE SMOOTH",
"320 -6 OFFCURVE",
"371 22 OFFCURVE",
"371 154 CURVE SMOOTH",
"371 391 LINE SMOOTH",
"371 490 OFFCURVE",
"309 503 OFFCURVE",
"260 503 CURVE SMOOTH",
"217 503 OFFCURVE",
"199 488 OFFCURVE",
"181 460 CURVE",
"181 630 LINE",
"25 630 LINE",
"25 -116 LINE"
);
},
{
closed = 1;
nodes = (
"187 80 OFFCURVE",
"181 87 OFFCURVE",
"181 110 CURVE SMOOTH",
"181 379 LINE SMOOTH",
"181 397 OFFCURVE",
"187 406 OFFCURVE",
"197 406 CURVE SMOOTH",
"207 406 OFFCURVE",
"215 401 OFFCURVE",
"215 378 CURVE SMOOTH",
"215 110 LINE SMOOTH",
"215 87 OFFCURVE",
"209 80 OFFCURVE",
"198 80 CURVE SMOOTH"
);
}
);
width = 391;
},
{
background = {
paths = (
{
closed = 1;
nodes = (
"87 -116 LINE",
"85 47 LINE",
"98 16 OFFCURVE",
"122 -7 OFFCURVE",
"187 -7 CURVE SMOOTH",
"299 -7 OFFCURVE",
"306 61 OFFCURVE",
"306 125 CURVE SMOOTH",
"306 375 LINE SMOOTH",
"306 437 OFFCURVE",
"298 503 OFFCURVE",
"187 503 CURVE SMOOTH",
"133 503 OFFCURVE",
"105 483 OFFCURVE",
"87 450 CURVE",
"87 630 LINE",
"64 630 LINE",
"64 -116 LINE"
);
},
{
closed = 1;
nodes = (
"84 10 OFFCURVE",
"88 95 OFFCURVE",
"88 160 CURVE SMOOTH",
"88 369 LINE SMOOTH",
"88 428 OFFCURVE",
"109 485 OFFCURVE",
"185 485 CURVE SMOOTH",
"286 485 OFFCURVE",
"282 422 OFFCURVE",
"282 365 CURVE SMOOTH",
"282 131 LINE SMOOTH",
"282 73 OFFCURVE",
"286 10 OFFCURVE",
"185 10 CURVE SMOOTH"
);
}
);
};
hints = (
{
horizontal = 1;
place = "{-112.588, 21}";
target = up;
type = BottomGhost;
},
{
horizontal = 1;
place = "{-6.794, 15.529}";
type = Stem;
},
{
horizontal = 1;
place = "{475.588, 14.559}";
type = Stem;
},
{
place = "{48.529, 18.441}";
type = Stem;
},
{
place = "{310.588, 18.441}";
type = Stem;
}
);
layerId = "5AAFD18E-AEF5-43C3-A12E-1BAE6B19067F";
paths = (
{
closed = 1;
nodes = (
"87 -116 LINE",
"85 47 LINE",
"98 16 OFFCURVE",
"122 -7 OFFCURVE",
"187 -7 CURVE SMOOTH",
"299 -7 OFFCURVE",
"306 61 OFFCURVE",
"306 125 CURVE SMOOTH",
"306 375 LINE SMOOTH",
"306 437 OFFCURVE",
"298 503 OFFCURVE",
"187 503 CURVE SMOOTH",
"133 503 OFFCURVE",
"105 483 OFFCURVE",
"87 450 CURVE",
"87 630 LINE",
"64 630 LINE",
"64 -116 LINE"
);
},
{
closed = 1;
nodes = (
"84 10 OFFCURVE",
"88 95 OFFCURVE",
"88 160 CURVE SMOOTH",
"88 369 LINE SMOOTH",
"88 428 OFFCURVE",
"109 485 OFFCURVE",
"185 485 CURVE SMOOTH",
"286 485 OFFCURVE",
"282 422 OFFCURVE",
"282 365 CURVE SMOOTH",
"282 131 LINE SMOOTH",
"282 73 OFFCURVE",
"286 10 OFFCURVE",
"185 10 CURVE SMOOTH"
);
}
);
width = 355;
}
);
leftMetricsKey = n;
note = thorn;
rightKerningGroup = a;
rightMetricsKey = o;
unicode = 00FE;
},
{
color = 4;
glyphname = q;
lastChange = "2021-05-28 01:02:22 +0000";
layers = (
{
background = {
paths = (
{
closed = 1;
nodes = (
"366 -116 LINE",
"366 495 LINE",
"210 495 LINE",
"210 460 LINE",
"198 479 OFFCURVE",
"178 500 OFFCURVE",
"125 500 CURVE SMOOTH",
"91 500 OFFCURVE",
"20 489 OFFCURVE",
"20 391 CURVE SMOOTH",
"20 154 LINE SMOOTH",
"20 3 OFFCURVE",
"81 -7 OFFCURVE",
"127 -7 CURVE SMOOTH",
"177 -7 OFFCURVE",
"199 16 OFFCURVE",
"210 41 CURVE",
"210 -116 LINE"
);
},
{
closed = 1;
nodes = (
"183 80 OFFCURVE",
"176 87 OFFCURVE",
"176 110 CURVE SMOOTH",
"176 378 LINE SMOOTH",
"176 401 OFFCURVE",
"183 408 OFFCURVE",
"193 408 CURVE SMOOTH",
"202 408 OFFCURVE",
"210 405 OFFCURVE",
"210 405 CURVE",
"210 110 LINE SMOOTH",
"210 87 OFFCURVE",
"203 80 OFFCURVE",
"193 80 CURVE SMOOTH"
);
}
);
};
layerId = "8A3706BD-364F-4FE3-9C2E-7E87DF0DB4CC";
paths = (
{
closed = 1;
nodes = (
"366 -116 LINE",
"366 495 LINE",
"210 495 LINE",
"210 460 LINE",
"198 479 OFFCURVE",
"178 500 OFFCURVE",
"125 500 CURVE SMOOTH",
"91 500 OFFCURVE",
"20 489 OFFCURVE",
"20 391 CURVE SMOOTH",
"20 154 LINE SMOOTH",
"20 3 OFFCURVE",
"81 -7 OFFCURVE",
"127 -7 CURVE SMOOTH",
"177 -7 OFFCURVE",
"199 16 OFFCURVE",
"210 41 CURVE",
"210 -116 LINE"
);
},
{
closed = 1;
nodes = (
"183 80 OFFCURVE",
"176 87 OFFCURVE",
"176 110 CURVE SMOOTH",
"176 378 LINE SMOOTH",
"176 401 OFFCURVE",
"183 408 OFFCURVE",
"193 408 CURVE SMOOTH",
"202 408 OFFCURVE",
"210 405 OFFCURVE",
"210 405 CURVE",
"210 110 LINE SMOOTH",
"210 87 OFFCURVE",
"203 80 OFFCURVE",
"193 80 CURVE SMOOTH"
);
}
);
width = 391;
},
{
background = {
paths = (
{
closed = 1;
nodes = (
"291 -116 LINE",
"291 495 LINE",
"273 495 LINE",
"267 452 LINE",
"257 477 OFFCURVE",
"233 502 OFFCURVE",
"168 502 CURVE SMOOTH",
"57 502 OFFCURVE",
"49 435 OFFCURVE",
"49 372 CURVE SMOOTH",
"49 122 LINE SMOOTH",
"49 57 OFFCURVE",
"57 -10 OFFCURVE",
"168 -10 CURVE SMOOTH",
"223 -10 OFFCURVE",
"257 23 OFFCURVE",
"268 59 CURVE",
"268 -116 LINE"
);
},
{
closed = 1;
nodes = (
"69 8 OFFCURVE",
"73 71 OFFCURVE",
"73 129 CURVE SMOOTH",
"73 363 LINE SMOOTH",
"73 421 OFFCURVE",
"69 485 OFFCURVE",
"170 485 CURVE SMOOTH",
"271 485 OFFCURVE",
"268 400 OFFCURVE",
"268 335 CURVE",
"268 136 LINE SMOOTH",
"268 106 OFFCURVE",
"261 8 OFFCURVE",
"170 8 CURVE SMOOTH"
);
}
);
};
layerId = "5AAFD18E-AEF5-43C3-A12E-1BAE6B19067F";
paths = (
{
closed = 1;
nodes = (
"291 -116 LINE",
"291 495 LINE",
"273 495 LINE",
"267 452 LINE",
"257 477 OFFCURVE",
"233 502 OFFCURVE",
"168 502 CURVE SMOOTH",
"57 502 OFFCURVE",
"49 435 OFFCURVE",
"49 372 CURVE SMOOTH",
"49 122 LINE SMOOTH",
"49 57 OFFCURVE",
"57 -10 OFFCURVE",
"168 -10 CURVE SMOOTH",
"223 -10 OFFCURVE",
"257 23 OFFCURVE",
"268 59 CURVE",
"268 -116 LINE"
);
},
{
closed = 1;
nodes = (
"69 8 OFFCURVE",
"73 71 OFFCURVE",
"73 129 CURVE SMOOTH",
"73 363 LINE SMOOTH",
"73 421 OFFCURVE",
"69 485 OFFCURVE",
"170 485 CURVE SMOOTH",
"271 485 OFFCURVE",
"268 400 OFFCURVE",
"268 335 CURVE",
"268 136 LINE SMOOTH",
"268 106 OFFCURVE",
"261 8 OFFCURVE",
"170 8 CURVE SMOOTH"
);
}
);
width = 355;
}
);
leftKerningGroup = o;
leftMetricsKey = o;
rightKerningGroup = n;
rightMetricsKey = d;
unicode = 0071;
},
{
color = 4;
glyphname = r;
lastChange = "2021-05-28 01:02:47 +0000";
layers = (
{
anchors = (
{
name = bottom;
position = "{103, 0}";
},
{
name = top;
position = "{169, 495}";
}
);
background = {
paths = (
{
closed = 1;
nodes = (
"181 0 LINE",
"181 279 LINE SMOOTH",
"181 318 OFFCURVE",
"186 349 OFFCURVE",
"209 366 CURVE SMOOTH",
"237 388 OFFCURVE",
"299 377 OFFCURVE",
"299 377 CURVE",
"299 496 LINE",
"270 502 OFFCURVE",
"241 498 OFFCURVE",
"218 485 CURVE SMOOTH",
"197 474 OFFCURVE",
"179 455 OFFCURVE",
"170 431 CURVE",
"158 495 LINE",
"25 495 LINE",
"25 0 LINE"
);
}
);
};
layerId = "8A3706BD-364F-4FE3-9C2E-7E87DF0DB4CC";
paths = (
{
closed = 1;
nodes = (
"181 0 LINE",
"181 279 LINE SMOOTH",
"181 318 OFFCURVE",
"186 349 OFFCURVE",
"209 366 CURVE SMOOTH",
"237 388 OFFCURVE",
"299 377 OFFCURVE",
"299 377 CURVE",
"299 496 LINE",
"270 502 OFFCURVE",
"241 498 OFFCURVE",
"218 485 CURVE SMOOTH",
"197 474 OFFCURVE",
"179 455 OFFCURVE",
"170 431 CURVE",
"158 495 LINE",
"25 495 LINE",
"25 0 LINE"
);
}
);
width = 304;
},
{
anchors = (
{
name = bottom;
position = "{76, 0}";
},
{
name = top;
position = "{152, 495}";
}
);
background = {
paths = (
{
closed = 1;
nodes = (
"88 0 LINE",
"88 404 LINE SMOOTH",
"100 453 OFFCURVE",
"134 483 OFFCURVE",
"190 483 CURVE SMOOTH",
"205 484 OFFCURVE",
"221 483 OFFCURVE",
"233 480 CURVE",
"233 499 LINE",
"221 501 OFFCURVE",
"206 502 OFFCURVE",
"190 502 CURVE SMOOTH",
"151 501 OFFCURVE",
"105 488 OFFCURVE",
"88 446 CURVE",
"83 495 LINE",
"64 495 LINE",
"64 0 LINE"
);
}
);
};
layerId = "5AAFD18E-AEF5-43C3-A12E-1BAE6B19067F";
paths = (
{
closed = 1;
nodes = (
"88 0 LINE",
"88 404 LINE SMOOTH",
"88 454 OFFCURVE",
"134 483 OFFCURVE",
"190 483 CURVE SMOOTH",
"205 484 OFFCURVE",
"221 483 OFFCURVE",
"233 480 CURVE",
"233 499 LINE",
"221 501 OFFCURVE",
"206 502 OFFCURVE",
"190 502 CURVE SMOOTH",
"151 501 OFFCURVE",
"105 488 OFFCURVE",
"88 446 CURVE",
"83 495 LINE",
"64 495 LINE",
"64 0 LINE"
);
}
);
width = 233;
}
);
leftKerningGroup = n;
leftMetricsKey = n;
rightKerningGroup = r;
unicode = 0072;
},
{
color = 4;
glyphname = s;
lastChange = "2021-05-28 01:03:40 +0000";
layers = (
{
anchors = (
{
name = bottom;
position = "{193, 0}";
},
{
name = top;
position = "{193, 495}";
}
);
background = {
paths = (
{
closed = 1;
nodes = (
"330 -14 OFFCURVE",
"372 35 OFFCURVE",
"372 134 CURVE SMOOTH",
"372 170 LINE SMOOTH",
"372 240 OFFCURVE",
"323 267 OFFCURVE",
"276 284 CURVE SMOOTH",
"239 297 OFFCURVE",
"187 303 OFFCURVE",
"187 350 CURVE SMOOTH",
"187 397 LINE SMOOTH",
"187 412 OFFCURVE",
"190 423 OFFCURVE",
"204 423 CURVE SMOOTH",
"218 423 OFFCURVE",
"221 410 OFFCURVE",
"221 384 CURVE SMOOTH",
"221 321 LINE",
"372 321 LINE",
"372 353 LINE SMOOTH",
"372 454 OFFCURVE",
"338 505 OFFCURVE",
"203 505 CURVE SMOOTH",
"68 505 OFFCURVE",
"27 458 OFFCURVE",
"27 363 CURVE SMOOTH",
"27 335 LINE SMOOTH",
"27 260 OFFCURVE",
"77 232 OFFCURVE",
"122 215 CURVE SMOOTH",
"170 195 OFFCURVE",
"205 191 OFFCURVE",
"205 141 CURVE SMOOTH",
"205 95 LINE SMOOTH",
"205 80 OFFCURVE",
"201 68 OFFCURVE",
"188 68 CURVE SMOOTH",
"173 68 OFFCURVE",
"171 82 OFFCURVE",
"171 109 CURVE SMOOTH",
"171 178 LINE",
"14 178 LINE",
"14 144 LINE SMOOTH",
"14 39 OFFCURVE",
"50 -14 OFFCURVE",
"190 -14 CURVE SMOOTH"
);
}
);
};
layerId = "8A3706BD-364F-4FE3-9C2E-7E87DF0DB4CC";
paths = (
{
closed = 1;
nodes = (
"330 -14 OFFCURVE",
"372 35 OFFCURVE",
"372 134 CURVE SMOOTH",
"372 170 LINE SMOOTH",
"372 240 OFFCURVE",
"323 267 OFFCURVE",
"276 284 CURVE SMOOTH",
"239 297 OFFCURVE",
"187 303 OFFCURVE",
"187 350 CURVE SMOOTH",
"187 397 LINE SMOOTH",
"187 412 OFFCURVE",
"190 423 OFFCURVE",
"204 423 CURVE SMOOTH",
"218 423 OFFCURVE",
"221 410 OFFCURVE",
"221 384 CURVE SMOOTH",
"221 321 LINE",
"372 321 LINE",
"372 353 LINE SMOOTH",
"372 454 OFFCURVE",
"338 505 OFFCURVE",
"203 505 CURVE SMOOTH",
"68 505 OFFCURVE",
"27 458 OFFCURVE",
"27 363 CURVE SMOOTH",
"27 335 LINE SMOOTH",
"27 260 OFFCURVE",
"77 232 OFFCURVE",
"122 215 CURVE SMOOTH",
"170 195 OFFCURVE",
"205 191 OFFCURVE",
"205 141 CURVE SMOOTH",
"205 95 LINE SMOOTH",
"205 80 OFFCURVE",
"201 68 OFFCURVE",
"188 68 CURVE SMOOTH",
"173 68 OFFCURVE",
"171 82 OFFCURVE",
"171 109 CURVE SMOOTH",
"171 178 LINE",
"14 178 LINE",
"14 144 LINE SMOOTH",
"14 39 OFFCURVE",
"50 -14 OFFCURVE",
"190 -14 CURVE SMOOTH"
);
}
);
width = 386;
},
{
anchors = (
{
name = bottom;
position = "{166, 0}";
},
{
name = top;
position = "{166, 495}";
}
);
background = {
paths = (
{
closed = 1;
nodes = (
"273 -6 OFFCURVE",
"285 58 OFFCURVE",
"285 112 CURVE SMOOTH",
"285 129 LINE SMOOTH",
"285 215 OFFCURVE",
"245 235 OFFCURVE",
"184 261 CURVE SMOOTH",
"108 292 OFFCURVE",
"75 316 OFFCURVE",
"75 379 CURVE SMOOTH",
"75 399 LINE SMOOTH",
"75 448 OFFCURVE",
"95 486 OFFCURVE",
"168 486 CURVE SMOOTH",
"230 486 OFFCURVE",
"261 462 OFFCURVE",
"261 380 CURVE SMOOTH",
"261 337 LINE",
"285 337 LINE",
"285 383 LINE SMOOTH",
"285 473 OFFCURVE",
"247 505 OFFCURVE",
"168 505 CURVE SMOOTH",
"85 505 OFFCURVE",
"51 465 OFFCURVE",
"51 405 CURVE SMOOTH",
"51 374 LINE SMOOTH",
"51 302 OFFCURVE",
"96 273 OFFCURVE",
"170 244 CURVE SMOOTH",
"237 218 OFFCURVE",
"260 183 OFFCURVE",
"260 134 CURVE SMOOTH",
"260 113 LINE SMOOTH",
"260 72 OFFCURVE",
"256 13 OFFCURVE",
"166 13 CURVE SMOOTH",
"65 13 OFFCURVE",
"68 67 OFFCURVE",
"68 128 CURVE SMOOTH",
"68 166 LINE",
"44 166 LINE",
"44 127 LINE SMOOTH",
"44 65 OFFCURVE",
"42 -6 OFFCURVE",
"166 -6 CURVE SMOOTH"
);
}
);
};
layerId = "5AAFD18E-AEF5-43C3-A12E-1BAE6B19067F";
paths = (
{
closed = 1;
nodes = (
"273 -6 OFFCURVE",
"285 58 OFFCURVE",
"285 112 CURVE SMOOTH",
"285 129 LINE SMOOTH",
"285 215 OFFCURVE",
"245 235 OFFCURVE",
"184 261 CURVE SMOOTH",
"108 292 OFFCURVE",
"75 316 OFFCURVE",
"75 379 CURVE SMOOTH",
"75 399 LINE SMOOTH",
"75 448 OFFCURVE",
"95 486 OFFCURVE",
"168 486 CURVE SMOOTH",
"230 486 OFFCURVE",
"261 462 OFFCURVE",
"261 380 CURVE SMOOTH",
"261 337 LINE",
"285 337 LINE",
"285 383 LINE SMOOTH",
"285 473 OFFCURVE",
"247 505 OFFCURVE",
"168 505 CURVE SMOOTH",
"85 505 OFFCURVE",
"51 465 OFFCURVE",
"51 405 CURVE SMOOTH",
"51 374 LINE SMOOTH",
"51 302 OFFCURVE",
"96 273 OFFCURVE",
"170 244 CURVE SMOOTH",
"237 218 OFFCURVE",
"260 183 OFFCURVE",
"260 134 CURVE SMOOTH",
"260 113 LINE SMOOTH",
"260 72 OFFCURVE",
"256 13 OFFCURVE",
"166 13 CURVE SMOOTH",
"65 13 OFFCURVE",
"68 67 OFFCURVE",
"68 128 CURVE SMOOTH",
"68 166 LINE",
"44 166 LINE",
"44 127 LINE SMOOTH",
"44 65 OFFCURVE",
"42 -6 OFFCURVE",
"166 -6 CURVE SMOOTH"
);
}
);
width = 331;
}
);
leftKerningGroup = s;
rightKerningGroup = s;
unicode = 0073;
},
{
glyphname = germandbls;
lastChange = "2021-05-26 04:14:52 +0000";
layers = (
{
background = {
paths = (
{
closed = 1;
nodes = (
"101 -147 OFFCURVE",
"215 -125 OFFCURVE",
"215 38 CURVE SMOOTH",
"214 498 LINE SMOOTH",
"214 536 OFFCURVE",
"221 558 OFFCURVE",
"258 558 CURVE SMOOTH",
"302 558 OFFCURVE",
"302 538 OFFCURVE",
"302 483 CURVE SMOOTH",
"302 435 LINE SMOOTH",
"302 396 OFFCURVE",
"298 373 OFFCURVE",
"276 373 CURVE SMOOTH",
"239 373 LINE",
"238 293 LINE",
"256 293 LINE SMOOTH",
"301 293 OFFCURVE",
"301 270 OFFCURVE",
"301 239 CURVE SMOOTH",
"301 186 LINE SMOOTH",
"301 94 OFFCURVE",
"298 78 OFFCURVE",
"261 78 CURVE SMOOTH",
"241 78 LINE",
"241 0 LINE",
"285 0 LINE SMOOTH",
"398 0 OFFCURVE",
"474 16 OFFCURVE",
"474 121 CURVE SMOOTH",
"474 244 LINE SMOOTH",
"474 303 OFFCURVE",
"419 334 OFFCURVE",
"371 338 CURVE",
"371 342 LINE",
"413 345 OFFCURVE",
"456 382 OFFCURVE",
"456 438 CURVE SMOOTH",
"456 533 LINE SMOOTH",
"456 606 OFFCURVE",
"385 631 OFFCURVE",
"256 631 CURVE SMOOTH",
"89 631 OFFCURVE",
"58 597 OFFCURVE",
"58 522 CURVE SMOOTH",
"58 495 LINE",
"15 495 LINE",
"15 389 LINE",
"58 389 LINE",
"58 12 LINE SMOOTH",
"58 -27 OFFCURVE",
"46 -59 OFFCURVE",
"-3 -59 CURVE SMOOTH",
"-16 -59 OFFCURVE",
"-26 -58 OFFCURVE",
"-33 -57 CURVE SMOOTH",
"-38 -56 OFFCURVE",
"-42 -56 OFFCURVE",
"-47 -55 CURVE",
"-47 -143 LINE",
"-37 -145 OFFCURVE",
"0 -147 OFFCURVE",
"15 -147 CURVE SMOOTH"
);
}
);
};
layerId = "8A3706BD-364F-4FE3-9C2E-7E87DF0DB4CC";
paths = (
{
closed = 1;
nodes = (
"101 -147 OFFCURVE",
"215 -125 OFFCURVE",
"215 38 CURVE SMOOTH",
"214 498 LINE SMOOTH",
"214 536 OFFCURVE",
"221 558 OFFCURVE",
"258 558 CURVE SMOOTH",
"302 558 OFFCURVE",
"302 538 OFFCURVE",
"302 483 CURVE SMOOTH",
"302 435 LINE SMOOTH",
"302 396 OFFCURVE",
"298 373 OFFCURVE",
"276 373 CURVE SMOOTH",
"239 373 LINE",
"238 293 LINE",
"256 293 LINE SMOOTH",
"301 293 OFFCURVE",
"301 270 OFFCURVE",
"301 239 CURVE SMOOTH",
"301 186 LINE SMOOTH",
"301 94 OFFCURVE",
"298 78 OFFCURVE",
"261 78 CURVE SMOOTH",
"241 78 LINE",
"241 0 LINE",
"285 0 LINE SMOOTH",
"398 0 OFFCURVE",
"474 16 OFFCURVE",
"474 121 CURVE SMOOTH",
"474 244 LINE SMOOTH",
"474 303 OFFCURVE",
"419 334 OFFCURVE",
"371 338 CURVE",
"371 342 LINE",
"413 345 OFFCURVE",
"456 382 OFFCURVE",
"456 438 CURVE SMOOTH",
"456 533 LINE SMOOTH",
"456 606 OFFCURVE",
"385 631 OFFCURVE",
"256 631 CURVE SMOOTH",
"89 631 OFFCURVE",
"58 597 OFFCURVE",
"58 522 CURVE SMOOTH",
"58 495 LINE",
"15 495 LINE",
"15 389 LINE",
"58 389 LINE",
"58 12 LINE SMOOTH",
"58 -27 OFFCURVE",
"46 -59 OFFCURVE",
"-3 -59 CURVE SMOOTH",
"-16 -59 OFFCURVE",
"-26 -58 OFFCURVE",
"-33 -57 CURVE SMOOTH",
"-38 -56 OFFCURVE",
"-42 -56 OFFCURVE",
"-47 -55 CURVE",
"-47 -143 LINE",
"-37 -145 OFFCURVE",
"0 -147 OFFCURVE",
"15 -147 CURVE SMOOTH"
);
}
);
width = 499;
},
{
background = {
paths = (
{
closed = 1;
nodes = (
"72 -147 OFFCURVE",
"94 -114 OFFCURVE",
"94 -55 CURVE SMOOTH",
"94 528 LINE SMOOTH",
"94 566 OFFCURVE",
"104 613 OFFCURVE",
"190 613 CURVE SMOOTH",
"255 613 OFFCURVE",
"287 586 OFFCURVE",
"287 531 CURVE SMOOTH",
"287 445 LINE SMOOTH",
"287 386 OFFCURVE",
"270 349 OFFCURVE",
"204 349 CURVE SMOOTH",
"148 349 LINE",
"148 330 LINE",
"193 330 LINE SMOOTH",
"249 330 OFFCURVE",
"299 311 OFFCURVE",
"299 239 CURVE SMOOTH",
"299 127 LINE SMOOTH",
"299 35 OFFCURVE",
"262 19 OFFCURVE",
"207 19 CURVE SMOOTH",
"128 19 LINE",
"128 0 LINE",
"207 0 LINE SMOOTH",
"276 0 OFFCURVE",
"322 16 OFFCURVE",
"322 121 CURVE SMOOTH",
"322 244 LINE SMOOTH",
"322 303 OFFCURVE",
"288 334 OFFCURVE",
"259 338 CURVE",
"259 342 LINE",
"285 345 OFFCURVE",
"310 382 OFFCURVE",
"310 438 CURVE SMOOTH",
"310 533 LINE SMOOTH",
"310 606 OFFCURVE",
"268 631 OFFCURVE",
"190 631 CURVE SMOOTH",
"89 631 OFFCURVE",
"70 597 OFFCURVE",
"70 522 CURVE SMOOTH",
"70 495 LINE",
"38 495 LINE",
"38 474 LINE",
"70 474 LINE",
"70 -59 LINE SMOOTH",
"70 -98 OFFCURVE",
"58 -130 OFFCURVE",
"9 -130 CURVE SMOOTH",
"-4 -130 OFFCURVE",
"-14 -129 OFFCURVE",
"-21 -128 CURVE SMOOTH",
"-26 -127 OFFCURVE",
"-30 -127 OFFCURVE",
"-35 -126 CURVE",
"-35 -143 LINE",
"-25 -145 OFFCURVE",
"0 -147 OFFCURVE",
"15 -147 CURVE SMOOTH"
);
}
);
};
layerId = "5AAFD18E-AEF5-43C3-A12E-1BAE6B19067F";
paths = (
{
closed = 1;
nodes = (
"72 -147 OFFCURVE",
"94 -114 OFFCURVE",
"94 -55 CURVE SMOOTH",
"94 528 LINE SMOOTH",
"94 566 OFFCURVE",
"104 613 OFFCURVE",
"190 613 CURVE SMOOTH",
"255 613 OFFCURVE",
"287 586 OFFCURVE",
"287 531 CURVE SMOOTH",
"287 445 LINE SMOOTH",
"287 386 OFFCURVE",
"270 349 OFFCURVE",
"204 349 CURVE SMOOTH",
"148 349 LINE",
"148 330 LINE",
"193 330 LINE SMOOTH",
"249 330 OFFCURVE",
"299 311 OFFCURVE",
"299 239 CURVE SMOOTH",
"299 127 LINE SMOOTH",
"299 35 OFFCURVE",
"262 19 OFFCURVE",
"207 19 CURVE SMOOTH",
"128 19 LINE",
"128 0 LINE",
"207 0 LINE SMOOTH",
"276 0 OFFCURVE",
"322 16 OFFCURVE",
"322 121 CURVE SMOOTH",
"322 244 LINE SMOOTH",
"322 303 OFFCURVE",
"288 334 OFFCURVE",
"259 338 CURVE",
"259 342 LINE",
"285 345 OFFCURVE",
"310 382 OFFCURVE",
"310 438 CURVE SMOOTH",
"310 533 LINE SMOOTH",
"310 606 OFFCURVE",
"268 631 OFFCURVE",
"190 631 CURVE SMOOTH",
"89 631 OFFCURVE",
"70 597 OFFCURVE",
"70 522 CURVE SMOOTH",
"70 495 LINE",
"38 495 LINE",
"38 474 LINE",
"70 474 LINE",
"70 -59 LINE SMOOTH",
"70 -98 OFFCURVE",
"58 -130 OFFCURVE",
"9 -130 CURVE SMOOTH",
"-4 -130 OFFCURVE",
"-14 -129 OFFCURVE",
"-21 -128 CURVE SMOOTH",
"-26 -127 OFFCURVE",
"-30 -127 OFFCURVE",
"-35 -126 CURVE",
"-35 -143 LINE",
"-25 -145 OFFCURVE",
"0 -147 OFFCURVE",
"15 -147 CURVE SMOOTH"
);
}
);
width = 347;
}
);
unicode = 00DF;
},
{
glyphname = longs;
lastChange = "2021-05-26 04:14:52 +0000";
layers = (
{
background = {
paths = (
{
closed = 1;
nodes = (
"175 -135 OFFCURVE",
"241 -89 OFFCURVE",
"241 39 CURVE SMOOTH",
"241 490 LINE SMOOTH",
"241 510 OFFCURVE",
"245 540 OFFCURVE",
"268 540 CURVE SMOOTH",
"293 540 OFFCURVE",
"314 538 OFFCURVE",
"342 528 CURVE",
"355 616 LINE",
"326 623 OFFCURVE",
"290 630 OFFCURVE",
"256 630 CURVE SMOOTH",
"165 630 OFFCURVE",
"84 624 OFFCURVE",
"84 512 CURVE SMOOTH",
"84 440 LINE",
"41 440 LINE",
"41 350 LINE",
"84 350 LINE",
"84 -25 LINE",
"82 -34 OFFCURVE",
"76 -42 OFFCURVE",
"69 -48 CURVE SMOOTH",
"61 -55 OFFCURVE",
"51 -59 OFFCURVE",
"41 -59 CURVE SMOOTH",
"5 -59 LINE",
"5 -136 LINE",
"35 -142 OFFCURVE",
"66 -144 OFFCURVE",
"94 -142 CURVE SMOOTH"
);
}
);
};
layerId = "8A3706BD-364F-4FE3-9C2E-7E87DF0DB4CC";
paths = (
{
closed = 1;
nodes = (
"175 -135 OFFCURVE",
"241 -89 OFFCURVE",
"241 39 CURVE SMOOTH",
"241 490 LINE SMOOTH",
"241 510 OFFCURVE",
"245 540 OFFCURVE",
"268 540 CURVE SMOOTH",
"293 540 OFFCURVE",
"314 538 OFFCURVE",
"342 528 CURVE",
"355 616 LINE",
"326 623 OFFCURVE",
"290 630 OFFCURVE",
"256 630 CURVE SMOOTH",
"165 630 OFFCURVE",
"84 624 OFFCURVE",
"84 512 CURVE SMOOTH",
"84 440 LINE",
"41 440 LINE",
"41 350 LINE",
"84 350 LINE",
"84 -25 LINE",
"82 -34 OFFCURVE",
"76 -42 OFFCURVE",
"69 -48 CURVE SMOOTH",
"61 -55 OFFCURVE",
"51 -59 OFFCURVE",
"41 -59 CURVE SMOOTH",
"5 -59 LINE",
"5 -136 LINE",
"35 -142 OFFCURVE",
"66 -144 OFFCURVE",
"94 -142 CURVE SMOOTH"
);
}
);
width = 398;
},
{
background = {
paths = (
{
closed = 1;
nodes = (
"134 -147 OFFCURVE",
"158 -113 OFFCURVE",
"158 -55 CURVE SMOOTH",
"158 542 LINE SMOOTH",
"158 577 OFFCURVE",
"170 617 OFFCURVE",
"211 617 CURVE SMOOTH",
"247 617 OFFCURVE",
"273 612 OFFCURVE",
"301 607 CURVE",
"306 625 LINE",
"276 632 OFFCURVE",
"247 636 OFFCURVE",
"211 636 CURVE SMOOTH",
"158 636 OFFCURVE",
"134 604 OFFCURVE",
"134 546 CURVE SMOOTH",
"134 440 LINE",
"103 440 LINE",
"103 420 LINE",
"134 420 LINE",
"134 -54 LINE",
"134 -88 OFFCURVE",
"122 -127 OFFCURVE",
"82 -128 CURVE SMOOTH",
"65 -128 OFFCURVE",
"48 -127 OFFCURVE",
"33 -126 CURVE SMOOTH",
"10 -123 LINE",
"10 -143 LINE",
"25 -146 OFFCURVE",
"56 -147 OFFCURVE",
"81 -147 CURVE SMOOTH"
);
}
);
};
layerId = "5AAFD18E-AEF5-43C3-A12E-1BAE6B19067F";
paths = (
{
closed = 1;
nodes = (
"134 -147 OFFCURVE",
"158 -113 OFFCURVE",
"158 -55 CURVE SMOOTH",
"158 542 LINE SMOOTH",
"158 577 OFFCURVE",
"170 617 OFFCURVE",
"211 617 CURVE SMOOTH",
"247 617 OFFCURVE",
"273 612 OFFCURVE",
"301 607 CURVE",
"306 625 LINE",
"276 632 OFFCURVE",
"247 636 OFFCURVE",
"211 636 CURVE SMOOTH",
"158 636 OFFCURVE",
"134 604 OFFCURVE",
"134 546 CURVE SMOOTH",
"134 440 LINE",
"103 440 LINE",
"103 420 LINE",
"134 420 LINE",
"134 -54 LINE",
"134 -88 OFFCURVE",
"122 -127 OFFCURVE",
"82 -128 CURVE SMOOTH",
"65 -128 OFFCURVE",
"48 -127 OFFCURVE",
"33 -126 CURVE SMOOTH",
"10 -123 LINE",
"10 -143 LINE",
"25 -146 OFFCURVE",
"56 -147 OFFCURVE",
"81 -147 CURVE SMOOTH"
);
}
);
width = 316;
}
);
unicode = 017F;
},
{
glyphname = t;
lastChange = "2021-05-27 04:20:59 +0000";
layers = (
{
anchors = (
{
name = bottom;
position = "{153, 0}";
},
{
name = center;
position = "{153, 248}";
},
{
name = top;
position = "{153, 495}";
},
{
name = topright;
position = "{214, 550}";
}
);
background = {
paths = (
{
closed = 1;
nodes = (
"248 -5 OFFCURVE",
"293 9 OFFCURVE",
"293 9 CURVE",
"293 101 LINE",
"293 101 OFFCURVE",
"262 98 OFFCURVE",
"246 98 CURVE SMOOTH",
"214 98 OFFCURVE",
"209 122 OFFCURVE",
"209 142 CURVE SMOOTH",
"209 405 LINE",
"293 405 LINE",
"293 495 LINE",
"209 495 LINE",
"209 585 LINE",
"88 585 LINE",
"67 495 LINE",
"4 482 LINE",
"4 405 LINE",
"53 405 LINE",
"53 115 LINE SMOOTH",
"53 3 OFFCURVE",
"138 -5 OFFCURVE",
"203 -5 CURVE SMOOTH"
);
}
);
};
layerId = "8A3706BD-364F-4FE3-9C2E-7E87DF0DB4CC";
paths = (
{
closed = 1;
nodes = (
"248 -5 OFFCURVE",
"293 9 OFFCURVE",
"293 9 CURVE",
"293 101 LINE",
"293 101 OFFCURVE",
"262 98 OFFCURVE",
"246 98 CURVE SMOOTH",
"214 98 OFFCURVE",
"209 122 OFFCURVE",
"209 142 CURVE SMOOTH",
"209 405 LINE",
"293 405 LINE",
"293 495 LINE",
"209 495 LINE",
"209 585 LINE",
"88 585 LINE",
"67 495 LINE",
"4 482 LINE",
"4 405 LINE",
"53 405 LINE",
"53 115 LINE SMOOTH",
"53 3 OFFCURVE",
"138 -5 OFFCURVE",
"203 -5 CURVE SMOOTH"
);
}
);
width = 305;
},
{
anchors = (
{
name = bottom;
position = "{108, 0}";
},
{
name = center;
position = "{108, 248}";
},
{
name = top;
position = "{108, 495}";
},
{
name = topright;
position = "{131, 548}";
}
);
background = {
paths = (
{
closed = 1;
nodes = (
"167 0 OFFCURVE",
"191 2 OFFCURVE",
"206 4 CURVE",
"206 23 LINE",
"192 22 OFFCURVE",
"170 20 OFFCURVE",
"150 20 CURVE SMOOTH",
"101 20 OFFCURVE",
"89 50 OFFCURVE",
"89 94 CURVE SMOOTH",
"89 476 LINE",
"206 476 LINE",
"206 495 LINE",
"89 495 LINE",
"89 589 LINE",
"73 589 LINE",
"66 495 LINE",
"24 491 LINE",
"24 476 LINE",
"66 476 LINE",
"66 90 LINE SMOOTH",
"66 32 OFFCURVE",
"87 0 OFFCURVE",
"142 0 CURVE SMOOTH"
);
}
);
};
layerId = "5AAFD18E-AEF5-43C3-A12E-1BAE6B19067F";
paths = (
{
closed = 1;
nodes = (
"167 0 OFFCURVE",
"191 2 OFFCURVE",
"206 4 CURVE",
"206 23 LINE",
"192 22 OFFCURVE",
"170 20 OFFCURVE",
"150 20 CURVE SMOOTH",
"101 20 OFFCURVE",
"89 50 OFFCURVE",
"89 94 CURVE SMOOTH",
"89 476 LINE",
"206 476 LINE",
"206 495 LINE",
"89 495 LINE",
"89 589 LINE",
"73 589 LINE",
"66 495 LINE",
"24 491 LINE",
"24 476 LINE",
"66 476 LINE",
"66 90 LINE SMOOTH",
"66 32 OFFCURVE",
"87 0 OFFCURVE",
"142 0 CURVE SMOOTH"
);
}
);
width = 216;
}
);
leftKerningGroup = t;
rightKerningGroup = t;
unicode = 0074;
},
{
color = 4;
glyphname = u;
lastChange = "2021-05-28 01:04:31 +0000";
layers = (
{
anchors = (
{
name = bottom;
position = "{198, 0}";
},
{
name = ogonek;
position = "{356, 10}";
},
{
name = top;
position = "{198, 495}";
},
{
name = topright;
position = "{347, 495}";
}
);
background = {
paths = (
{
closed = 1;
nodes = (
"178 -7 OFFCURVE",
"214 24 OFFCURVE",
"226 65 CURVE",
"238 0 LINE",
"371 0 LINE",
"371 495 LINE",
"215 495 LINE",
"215 105 LINE",
"211 103 OFFCURVE",
"203 102 OFFCURVE",
"198 102 CURVE SMOOTH",
"187 102 OFFCURVE",
"181 112 OFFCURVE",
"181 130 CURVE SMOOTH",
"181 495 LINE",
"25 495 LINE",
"25 124 LINE SMOOTH",
"25 38 OFFCURVE",
"47 -7 OFFCURVE",
"135 -7 CURVE SMOOTH"
);
}
);
};
layerId = "8A3706BD-364F-4FE3-9C2E-7E87DF0DB4CC";
paths = (
{
closed = 1;
nodes = (
"178 -7 OFFCURVE",
"214 24 OFFCURVE",
"226 65 CURVE",
"238 0 LINE",
"371 0 LINE",
"371 495 LINE",
"215 495 LINE",
"215 105 LINE",
"211 103 OFFCURVE",
"203 102 OFFCURVE",
"198 102 CURVE SMOOTH",
"187 102 OFFCURVE",
"181 112 OFFCURVE",
"181 130 CURVE SMOOTH",
"181 495 LINE",
"25 495 LINE",
"25 124 LINE SMOOTH",
"25 38 OFFCURVE",
"47 -7 OFFCURVE",
"135 -7 CURVE SMOOTH"
);
}
);
width = 396;
},
{
anchors = (
{
name = bottom;
position = "{181, 0}";
},
{
name = ogonek;
position = "{325, 10}";
},
{
name = top;
position = "{181, 495}";
},
{
name = topright;
position = "{287, 495}";
}
);
background = {
paths = (
{
closed = 1;
nodes = (
"233 -8 OFFCURVE",
"263 21 OFFCURVE",
"274 49 CURVE",
"276 0 LINE",
"297 0 LINE",
"297 495 LINE",
"273 495 LINE",
"273 87 LINE",
"266 58 OFFCURVE",
"246 13 OFFCURVE",
"175 13 CURVE SMOOTH",
"74 13 OFFCURVE",
"78 75 OFFCURVE",
"78 132 CURVE SMOOTH",
"78 495 LINE",
"54 495 LINE",
"54 123 LINE SMOOTH",
"54 60 OFFCURVE",
"61 -8 OFFCURVE",
"173 -8 CURVE SMOOTH"
);
}
);
};
layerId = "5AAFD18E-AEF5-43C3-A12E-1BAE6B19067F";
paths = (
{
closed = 1;
nodes = (
"233 -8 OFFCURVE",
"263 21 OFFCURVE",
"274 49 CURVE",
"276 0 LINE",
"297 0 LINE",
"297 495 LINE",
"273 495 LINE",
"273 87 LINE",
"266 58 OFFCURVE",
"246 13 OFFCURVE",
"175 13 CURVE SMOOTH",
"74 13 OFFCURVE",
"78 75 OFFCURVE",
"78 132 CURVE SMOOTH",
"78 495 LINE",
"54 495 LINE",
"54 123 LINE SMOOTH",
"54 60 OFFCURVE",
"61 -8 OFFCURVE",
"173 -8 CURVE SMOOTH"
);
}
);
width = 361;
}
);
leftKerningGroup = u;
leftMetricsKey = "=o+5";
rightKerningGroup = u;
rightMetricsKey = d;
unicode = 0075;
},
{
color = 4;
glyphname = v;
lastChange = "2021-05-26 04:14:52 +0000";
layers = (
{
background = {
paths = (
{
closed = 1;
nodes = (
"291 0 LINE",
"389 495 LINE",
"241 495 LINE",
"208 174 LINE",
"206 174 LINE",
"166 495 LINE",
"5 495 LINE",
"104 0 LINE"
);
}
);
};
layerId = "8A3706BD-364F-4FE3-9C2E-7E87DF0DB4CC";
paths = (
{
closed = 1;
nodes = (
"291 0 LINE",
"389 495 LINE",
"241 495 LINE",
"208 174 LINE",
"206 174 LINE",
"166 495 LINE",
"5 495 LINE",
"104 0 LINE"
);
}
);
width = 394;
},
{
background = {
paths = (
{
closed = 1;
nodes = (
"168 0 LINE",
"285 495 LINE",
"262 495 LINE",
"153 29 LINE",
"157 29 LINE",
"43 495 LINE",
"18 495 LINE",
"141 0 LINE"
);
}
);
};
layerId = "5AAFD18E-AEF5-43C3-A12E-1BAE6B19067F";
paths = (
{
closed = 1;
nodes = (
"168 0 LINE",
"285 495 LINE",
"262 495 LINE",
"153 29 LINE",
"157 29 LINE",
"43 495 LINE",
"18 495 LINE",
"141 0 LINE"
);
}
);
width = 303;
}
);
leftKerningGroup = v;
rightKerningGroup = v;
unicode = 0076;
},
{
glyphname = w;
lastChange = "2021-05-27 03:34:41 +0000";
layers = (
{
anchors = (
{
name = bottom;
position = "{309, 0}";
},
{
name = top;
position = "{309, 495}";
}
);
background = {
paths = (
{
closed = 1;
nodes = (
"278 0 LINE",
"308 198 LINE",
"339 0 LINE",
"519 0 LINE",
"617 495 LINE",
"469 495 LINE",
"435 184 LINE",
"384 495 LINE",
"233 495 LINE",
"190 184 LINE",
"148 495 LINE",
"0 495 LINE",
"98 0 LINE"
);
}
);
};
layerId = "8A3706BD-364F-4FE3-9C2E-7E87DF0DB4CC";
paths = (
{
closed = 1;
nodes = (
"278 0 LINE",
"308 198 LINE",
"339 0 LINE",
"519 0 LINE",
"617 495 LINE",
"469 495 LINE",
"435 184 LINE",
"384 495 LINE",
"233 495 LINE",
"190 184 LINE",
"148 495 LINE",
"0 495 LINE",
"98 0 LINE"
);
}
);
width = 617;
},
{
anchors = (
{
name = bottom;
position = "{258, 0}";
},
{
name = top;
position = "{258, 495}";
}
);
background = {
paths = (
{
closed = 1;
nodes = (
"159 0 LINE",
"258 443 LINE",
"360 0 LINE",
"387 0 LINE",
"498 495 LINE",
"475 495 LINE",
"374 37 LINE",
"269 495 LINE",
"247 495 LINE",
"145 37 LINE",
"40 495 LINE",
"16 495 LINE",
"132 0 LINE"
);
}
);
};
layerId = "5AAFD18E-AEF5-43C3-A12E-1BAE6B19067F";
paths = (
{
closed = 1;
nodes = (
"159 0 LINE",
"258 443 LINE",
"360 0 LINE",
"387 0 LINE",
"498 495 LINE",
"475 495 LINE",
"374 37 LINE",
"269 495 LINE",
"247 495 LINE",
"145 37 LINE",
"40 495 LINE",
"16 495 LINE",
"132 0 LINE"
);
}
);
width = 515;
}
);
leftKerningGroup = w;
rightKerningGroup = w;
unicode = 0077;
},
{
glyphname = x;
lastChange = "2021-05-26 04:14:52 +0000";
layers = (
{
background = {
paths = (
{
closed = 1;
nodes = (
"148 0 LINE",
"188 126 LINE",
"217 0 LINE",
"365 0 LINE",
"289 254 LINE",
"373 495 LINE",
"230 495 LINE",
"189 369 LINE",
"161 495 LINE",
"13 495 LINE",
"84 254 LINE",
"-5 0 LINE"
);
}
);
};
layerId = "8A3706BD-364F-4FE3-9C2E-7E87DF0DB4CC";
paths = (
{
closed = 1;
nodes = (
"148 0 LINE",
"188 126 LINE",
"217 0 LINE",
"365 0 LINE",
"289 254 LINE",
"373 495 LINE",
"230 495 LINE",
"189 369 LINE",
"161 495 LINE",
"13 495 LINE",
"84 254 LINE",
"-5 0 LINE"
);
}
);
width = 368;
},
{
background = {
paths = (
{
closed = 1;
nodes = (
"37 0 LINE",
"147 238 LINE",
"258 0 LINE",
"282 0 LINE",
"161 264 LINE",
"267 495 LINE",
"243 495 LINE",
"147 288 LINE",
"53 495 LINE",
"29 495 LINE",
"134 264 LINE",
"13 0 LINE"
);
}
);
};
layerId = "5AAFD18E-AEF5-43C3-A12E-1BAE6B19067F";
paths = (
{
closed = 1;
nodes = (
"37 0 LINE",
"147 238 LINE",
"258 0 LINE",
"282 0 LINE",
"161 264 LINE",
"267 495 LINE",
"243 495 LINE",
"147 288 LINE",
"53 495 LINE",
"29 495 LINE",
"134 264 LINE",
"13 0 LINE"
);
}
);
width = 295;
}
);
leftKerningGroup = x;
rightKerningGroup = x;
unicode = 0078;
},
{
color = 4;
glyphname = y;
lastChange = "2021-05-26 05:14:56 +0000";
layers = (
{
anchors = (
{
name = bottom;
position = "{187, 0}";
},
{
name = top;
position = "{187, 495}";
}
);
background = {
paths = (
{
closed = 1;
nodes = (
"216 -116 OFFCURVE",
"267 -67 OFFCURVE",
"293 62 CURVE SMOOTH",
"379 495 LINE",
"231 495 LINE",
"194 146 LINE",
"192 146 LINE",
"156 495 LINE",
"-5 495 LINE",
"86 34 LINE SMOOTH",
"89 20 OFFCURVE",
"91 10 OFFCURVE",
"91 1 CURVE SMOOTH",
"90 -27 OFFCURVE",
"65 -27 OFFCURVE",
"50 -27 CURVE SMOOTH",
"33 -27 OFFCURVE",
"16 -24 OFFCURVE",
"5 -21 CURVE",
"5 -101 LINE",
"30 -108 OFFCURVE",
"79 -116 OFFCURVE",
"125 -116 CURVE SMOOTH"
);
}
);
};
layerId = "8A3706BD-364F-4FE3-9C2E-7E87DF0DB4CC";
paths = (
{
closed = 1;
nodes = (
"216 -116 OFFCURVE",
"267 -67 OFFCURVE",
"293 62 CURVE SMOOTH",
"379 495 LINE",
"231 495 LINE",
"194 146 LINE",
"192 146 LINE",
"156 495 LINE",
"-5 495 LINE",
"86 34 LINE SMOOTH",
"89 20 OFFCURVE",
"91 10 OFFCURVE",
"91 1 CURVE SMOOTH",
"90 -27 OFFCURVE",
"65 -27 OFFCURVE",
"50 -27 CURVE SMOOTH",
"33 -27 OFFCURVE",
"16 -24 OFFCURVE",
"5 -21 CURVE",
"5 -101 LINE",
"30 -108 OFFCURVE",
"79 -116 OFFCURVE",
"125 -116 CURVE SMOOTH"
);
}
);
width = 374;
},
{
anchors = (
{
name = bottom;
position = "{148, 0}";
},
{
name = top;
position = "{148, 495}";
}
);
background = {
paths = (
{
closed = 1;
nodes = (
"114 -118 OFFCURVE",
"150 -75 OFFCURVE",
"168 2 CURVE SMOOTH",
"285 495 LINE",
"262 495 LINE",
"153 30 LINE",
"155 30 LINE",
"42 495 LINE",
"17 495 LINE",
"141 -2 LINE SMOOTH",
"135 -30 OFFCURVE",
"126 -50 OFFCURVE",
"115 -64 CURVE SMOOTH",
"92 -96 OFFCURVE",
"63 -99 OFFCURVE",
"42 -99 CURVE SMOOTH",
"22 -99 OFFCURVE",
"9 -94 OFFCURVE",
"6 -93 CURVE",
"6 -112 LINE",
"14 -114 OFFCURVE",
"25 -118 OFFCURVE",
"46 -118 CURVE SMOOTH"
);
}
);
};
layerId = "5AAFD18E-AEF5-43C3-A12E-1BAE6B19067F";
paths = (
{
closed = 1;
nodes = (
"114 -118 OFFCURVE",
"150 -75 OFFCURVE",
"168 2 CURVE SMOOTH",
"285 495 LINE",
"262 495 LINE",
"153 30 LINE",
"155 30 LINE",
"42 495 LINE",
"17 495 LINE",
"141 -2 LINE SMOOTH",
"135 -30 OFFCURVE",
"126 -50 OFFCURVE",
"115 -64 CURVE SMOOTH",
"92 -96 OFFCURVE",
"63 -99 OFFCURVE",
"42 -99 CURVE SMOOTH",
"22 -99 OFFCURVE",
"9 -94 OFFCURVE",
"6 -93 CURVE",
"6 -112 LINE",
"14 -114 OFFCURVE",
"25 -118 OFFCURVE",
"46 -118 CURVE SMOOTH"
);
}
);
width = 296;
}
);
leftKerningGroup = y;
rightKerningGroup = y;
unicode = 0079;
},
{
color = 4;
glyphname = z;
lastChange = "2021-05-28 01:05:11 +0000";
layers = (
{
anchors = (
{
name = bottom;
position = "{154, 0}";
},
{
name = center;
position = "{154, 248}";
},
{
name = top;
position = "{154, 495}";
}
);
background = {
paths = (
{
closed = 1;
nodes = (
"301 0 LINE",
"301 105 LINE",
"189 105 LINE",
"301 429 LINE",
"301 495 LINE",
"22 495 LINE",
"22 396 LINE",
"125 396 LINE",
"7 60 LINE",
"7 0 LINE"
);
}
);
};
layerId = "8A3706BD-364F-4FE3-9C2E-7E87DF0DB4CC";
paths = (
{
closed = 1;
nodes = (
"301 0 LINE",
"301 105 LINE",
"189 105 LINE",
"301 429 LINE",
"301 495 LINE",
"22 495 LINE",
"22 396 LINE",
"125 396 LINE",
"7 60 LINE",
"7 0 LINE"
);
}
);
width = 308;
},
{
anchors = (
{
name = bottom;
position = "{122, 0}";
},
{
name = center;
position = "{122, 248}";
},
{
name = top;
position = "{122, 495}";
}
);
background = {
paths = (
{
closed = 1;
nodes = (
"225 0 LINE",
"225 21 LINE",
"43 21 LINE",
"225 483 LINE",
"225 495 LINE",
"24 495 LINE",
"24 475 LINE",
"196 475 LINE",
"16 11 LINE",
"16 0 LINE"
);
}
);
};
layerId = "5AAFD18E-AEF5-43C3-A12E-1BAE6B19067F";
paths = (
{
closed = 1;
nodes = (
"225 0 LINE",
"225 21 LINE",
"43 21 LINE",
"225 483 LINE",
"225 495 LINE",
"24 495 LINE",
"24 475 LINE",
"196 475 LINE",
"16 11 LINE",
"16 0 LINE"
);
}
);
width = 243;
}
);
leftKerningGroup = z;
rightKerningGroup = z;
unicode = 007A;
},
{
glyphname = f_f;
lastChange = "2021-05-26 04:14:52 +0000";
layers = (
{
anchors = (
{
name = caret_1;
position = "{266, 0}";
}
);
background = {
anchors = (
{
name = caret_1;
position = "{266, 0}";
}
);
paths = (
{
closed = 1;
nodes = (
"198 0 LINE",
"198 389 LINE",
"340 389 LINE",
"340 0 LINE",
"496 0 LINE",
"496 389 LINE",
"576 389 LINE",
"576 476 LINE",
"496 476 LINE",
"496 513 LINE SMOOTH",
"496 533 OFFCURVE",
"501 557 OFFCURVE",
"523 557 CURVE SMOOTH",
"549 557 OFFCURVE",
"576 554 OFFCURVE",
"576 554 CURVE",
"576 624 LINE",
"567 624 OFFCURVE",
"509 630 OFFCURVE",
"464 630 CURVE SMOOTH",
"409 630 OFFCURVE",
"340 624 OFFCURVE",
"340 512 CURVE SMOOTH",
"340 476 LINE",
"198 476 LINE",
"198 513 LINE SMOOTH",
"198 533 OFFCURVE",
"203 557 OFFCURVE",
"225 557 CURVE SMOOTH",
"251 557 OFFCURVE",
"278 554 OFFCURVE",
"278 554 CURVE",
"278 624 LINE",
"269 624 OFFCURVE",
"211 630 OFFCURVE",
"166 630 CURVE SMOOTH",
"111 630 OFFCURVE",
"42 624 OFFCURVE",
"42 512 CURVE SMOOTH",
"42 476 LINE",
"10 476 LINE",
"10 389 LINE",
"42 389 LINE",
"42 0 LINE"
);
}
);
};
layerId = "8A3706BD-364F-4FE3-9C2E-7E87DF0DB4CC";
paths = (
{
closed = 1;
nodes = (
"198 0 LINE",
"198 389 LINE",
"340 389 LINE",
"340 0 LINE",
"496 0 LINE",
"496 389 LINE",
"576 389 LINE",
"576 476 LINE",
"496 476 LINE",
"496 513 LINE SMOOTH",
"496 533 OFFCURVE",
"501 557 OFFCURVE",
"523 557 CURVE SMOOTH",
"549 557 OFFCURVE",
"576 554 OFFCURVE",
"576 554 CURVE",
"576 624 LINE",
"567 624 OFFCURVE",
"509 630 OFFCURVE",
"464 630 CURVE SMOOTH",
"409 630 OFFCURVE",
"340 624 OFFCURVE",
"340 512 CURVE SMOOTH",
"340 476 LINE",
"198 476 LINE",
"198 513 LINE SMOOTH",
"198 533 OFFCURVE",
"203 557 OFFCURVE",
"225 557 CURVE SMOOTH",
"251 557 OFFCURVE",
"278 554 OFFCURVE",
"278 554 CURVE",
"278 624 LINE",
"269 624 OFFCURVE",
"211 630 OFFCURVE",
"166 630 CURVE SMOOTH",
"111 630 OFFCURVE",
"42 624 OFFCURVE",
"42 512 CURVE SMOOTH",
"42 476 LINE",
"10 476 LINE",
"10 389 LINE",
"42 389 LINE",
"42 0 LINE"
);
}
);
width = 586;
},
{
anchors = (
{
name = caret_1;
position = "{197, 0}";
}
);
background = {
anchors = (
{
name = caret_1;
position = "{197, 0}";
}
);
paths = (
{
closed = 1;
nodes = (
"93 0 LINE",
"93 457 LINE",
"308 457 LINE",
"308 0 LINE",
"331 0 LINE",
"331 457 LINE",
"456 457 LINE",
"456 476 LINE",
"331 476 LINE",
"331 543 LINE SMOOTH",
"331 578 OFFCURVE",
"344 617 OFFCURVE",
"384 617 CURVE SMOOTH",
"418 617 OFFCURVE",
"456 612 OFFCURVE",
"456 612 CURVE",
"456 632 LINE",
"441 634 OFFCURVE",
"409 636 OFFCURVE",
"383 636 CURVE SMOOTH",
"331 636 OFFCURVE",
"308 603 OFFCURVE",
"308 546 CURVE SMOOTH",
"308 476 LINE",
"93 476 LINE",
"93 543 LINE SMOOTH",
"93 578 OFFCURVE",
"106 617 OFFCURVE",
"146 617 CURVE SMOOTH",
"180 617 OFFCURVE",
"218 612 OFFCURVE",
"218 612 CURVE",
"218 632 LINE",
"203 634 OFFCURVE",
"171 636 OFFCURVE",
"146 636 CURVE SMOOTH",
"94 636 OFFCURVE",
"70 603 OFFCURVE",
"70 546 CURVE SMOOTH",
"70 476 LINE",
"39 476 LINE",
"39 457 LINE",
"70 457 LINE",
"70 0 LINE"
);
}
);
};
layerId = "5AAFD18E-AEF5-43C3-A12E-1BAE6B19067F";
paths = (
{
closed = 1;
nodes = (
"93 0 LINE",
"93 457 LINE",
"308 457 LINE",
"308 0 LINE",
"331 0 LINE",
"331 457 LINE",
"456 457 LINE",
"456 476 LINE",
"331 476 LINE",
"331 543 LINE SMOOTH",
"331 578 OFFCURVE",
"344 617 OFFCURVE",
"384 617 CURVE SMOOTH",
"418 617 OFFCURVE",
"456 612 OFFCURVE",
"456 612 CURVE",
"456 632 LINE",
"441 634 OFFCURVE",
"409 636 OFFCURVE",
"383 636 CURVE SMOOTH",
"331 636 OFFCURVE",
"308 603 OFFCURVE",
"308 546 CURVE SMOOTH",
"308 476 LINE",
"93 476 LINE",
"93 543 LINE SMOOTH",
"93 578 OFFCURVE",
"106 617 OFFCURVE",
"146 617 CURVE SMOOTH",
"180 617 OFFCURVE",
"218 612 OFFCURVE",
"218 612 CURVE",
"218 632 LINE",
"203 634 OFFCURVE",
"171 636 OFFCURVE",
"146 636 CURVE SMOOTH",
"94 636 OFFCURVE",
"70 603 OFFCURVE",
"70 546 CURVE SMOOTH",
"70 476 LINE",
"39 476 LINE",
"39 457 LINE",
"70 457 LINE",
"70 0 LINE"
);
}
);
width = 456;
}
);
leftMetricsKey = f;
rightMetricsKey = f;
},
